<svg width="170" height="50" viewBox="0 0 170 50" fill="none" xmlns="http://www.w3.org/2000/svg">
<path d="M63.5355 26H58.0755L65.4955 6.4H71.0955L78.5155 26H73.0555L71.7955 22.5H64.7955L63.5355 26ZM66.0555 18.86H70.5355L68.2955 12.28L66.0555 18.86ZM89.5744 10.88C91.0864 10.88 92.253 11.44 93.0744 12.56C93.933 11.9813 94.857 11.5613 95.8464 11.3C96.8544 11.02 97.7504 10.88 98.5344 10.88H98.8144C100.084 10.88 101.101 11.2627 101.866 12.028C102.632 12.7933 103.014 13.8107 103.014 15.08V26H98.1144V15.92C98.1144 15.64 98.021 15.4067 97.8344 15.22C97.6477 15.0333 97.4144 14.94 97.1344 14.94H96.9944C96.1544 14.94 95.081 15.1267 93.7744 15.5V26H88.8744V15.92C88.8744 15.64 88.781 15.4067 88.5944 15.22C88.4077 15.0333 88.1744 14.94 87.8944 14.94H87.7544C86.9144 14.94 85.841 15.1267 84.5344 15.5V26H79.6344V11.16H83.9744L84.2544 12.56C85.1317 11.9813 86.0277 11.5613 86.9424 11.3C87.8757 11.02 88.6597 10.88 89.2944 10.88H89.5744ZM120.649 21.8C120.649 23.2 120.248 24.3013 119.445 25.104C118.661 25.888 117.569 26.28 116.169 26.28H109.729C108.329 26.28 107.228 25.888 106.425 25.104C105.641 24.3013 105.249 23.2 105.249 21.8V15.36C105.249 13.96 105.641 12.868 106.425 12.084C107.228 11.2813 108.329 10.88 109.729 10.88H116.169C117.569 10.88 118.661 11.2813 119.445 12.084C120.248 12.868 120.649 13.96 120.649 15.36V21.8ZM115.749 15.78C115.749 15.0333 115.376 14.66 114.629 14.66H111.269C110.522 14.66 110.149 15.0333 110.149 15.78V21.38C110.149 22.1267 110.522 22.5 111.269 22.5H114.629C115.376 22.5 115.749 22.1267 115.749 21.38V15.78ZM130.026 22.22C131.015 22.22 132.135 22.0333 133.386 21.66V11.16H138.286V26H133.946L133.666 24.6C132.788 25.1787 131.883 25.608 130.95 25.888C130.035 26.1493 129.26 26.28 128.626 26.28H127.366C126.096 26.28 125.079 25.8973 124.314 25.132C123.548 24.3667 123.166 23.3493 123.166 22.08V11.16H128.066V21.24C128.066 21.52 128.159 21.7533 128.346 21.94C128.532 22.1267 128.766 22.22 129.046 22.22H130.026ZM149.336 14.94C148.346 14.94 147.226 15.1267 145.976 15.5V26H141.076V11.16H145.416L145.696 12.56C146.573 11.9813 147.469 11.5613 148.384 11.3C149.317 11.02 150.101 10.88 150.736 10.88H151.996C153.265 10.88 154.282 11.2627 155.048 12.028C155.813 12.7933 156.196 13.8107 156.196 15.08V26H151.296V15.92C151.296 15.64 151.202 15.4067 151.016 15.22C150.829 15.0333 150.596 14.94 150.316 14.94H149.336ZM169.073 26C167.262 26.1867 165.489 26.28 163.753 26.28C162.483 26.28 161.466 25.8973 160.701 25.132C159.935 24.3667 159.553 23.3493 159.553 22.08V14.94H157.873V11.16H159.553L160.113 7.8H164.453V11.16H167.953V14.94H164.453V21.38C164.453 21.66 164.546 21.8933 164.733 22.08C164.919 22.2667 165.153 22.36 165.433 22.36H169.073V26ZM78.7256 33.8H85.4456C86.5656 33.8 87.3763 34.056 87.8776 34.568C88.3896 35.0693 88.6456 35.88 88.6456 37V38.6C88.6456 39.72 88.3896 40.536 87.8776 41.048C87.3763 41.5493 86.5656 41.8 85.4456 41.8H81.6056V45H78.7256V33.8ZM85.7656 37C85.7656 36.36 85.4456 36.04 84.8056 36.04H81.6056V39.56H84.8056C85.4456 39.56 85.7656 39.24 85.7656 38.6V37ZM93.205 38.36C92.7783 38.36 92.565 38.5733 92.565 39V39.88H95.285V39C95.285 38.5733 95.0717 38.36 94.645 38.36H93.205ZM97.765 44.84C95.7063 45.0533 93.8397 45.16 92.165 45.16C91.4397 45.16 90.8583 44.9413 90.421 44.504C89.9837 44.0667 89.765 43.4853 89.765 42.76V38.92C89.765 38.12 89.989 37.496 90.437 37.048C90.8957 36.5893 91.525 36.36 92.325 36.36H95.525C96.325 36.36 96.949 36.5893 97.397 37.048C97.8557 37.496 98.085 38.12 98.085 38.92V41.88H92.565V42.52C92.565 42.68 92.6183 42.8133 92.725 42.92C92.8317 43.0267 92.965 43.08 93.125 43.08C94.181 43.08 95.7277 43 97.765 42.84V44.84ZM104.399 38.84C103.727 38.84 103.033 39 102.319 39.32V45H99.5188V36.52H101.999L102.159 37.56C103.076 36.76 104.036 36.36 105.039 36.36H105.759V38.84H104.399ZM121.595 45H118.715V40.44H114.715V45H111.835V33.8H114.715V38.2H118.715V33.8H121.595V45ZM132.003 42.6C132.003 43.4 131.773 44.0293 131.315 44.488C130.867 44.936 130.242 45.16 129.443 45.16H125.763C124.963 45.16 124.333 44.936 123.875 44.488C123.427 44.0293 123.203 43.4 123.203 42.6V38.92C123.203 38.12 123.427 37.496 123.875 37.048C124.333 36.5893 124.963 36.36 125.763 36.36H129.443C130.242 36.36 130.867 36.5893 131.315 37.048C131.773 37.496 132.003 38.12 132.003 38.92V42.6ZM129.203 39.16C129.203 38.7333 128.989 38.52 128.563 38.52H126.643C126.216 38.52 126.003 38.7333 126.003 39.16V42.36C126.003 42.7867 126.216 43 126.643 43H128.563C128.989 43 129.203 42.7867 129.203 42.36V39.16ZM137.361 42.84C137.926 42.84 138.566 42.7333 139.281 42.52V36.52H142.081V45H139.601L139.441 44.2C138.939 44.5307 138.422 44.776 137.889 44.936C137.366 45.0853 136.923 45.16 136.561 45.16H135.841C135.115 45.16 134.534 44.9413 134.097 44.504C133.659 44.0667 133.441 43.4853 133.441 42.76V36.52H136.241V42.28C136.241 42.44 136.294 42.5733 136.401 42.68C136.507 42.7867 136.641 42.84 136.801 42.84H137.361ZM148.555 38.84C147.883 38.84 147.19 39 146.475 39.32V45H143.675V36.52H146.155L146.315 37.56C147.232 36.76 148.192 36.36 149.195 36.36H149.915V38.84H148.555Z" fill="white"/>
<path fill-rule="evenodd" clip-rule="evenodd" d="M25.5791 18.0005C25.8379 18.0005 26.0865 18.1051 26.2654 18.2907C26.6625 18.7036 36 28.4742 36 33.9372C36 41.6918 27.9248 47.9997 18 47.9997C8.07526 47.9997 0 41.6918 0 33.9372C0 28.4742 9.33751 18.7036 9.73463 18.2907C9.82358 18.1986 9.93021 18.1254 10.0481 18.0755C10.1661 18.0257 10.2928 18.0001 10.4209 18.0005H25.5791ZM25.1696 19.8747H10.8304C8.09663 22.7772 1.8945 30.1572 1.8945 33.9372C1.8945 40.6568 9.11926 46.1243 18 46.1243C26.8808 46.1243 34.1055 40.6568 34.1055 33.9372C34.1055 30.1538 27.9034 22.7761 25.1696 19.8747ZM18 25.4997C18.5231 25.4997 18.9473 25.9205 18.9473 26.438V27.4471C21.0195 27.7677 22.5844 29.1301 22.7329 30.8637C22.7429 30.9871 22.7285 31.1112 22.6904 31.229C22.6524 31.3468 22.5915 31.456 22.5113 31.5502C22.431 31.6445 22.333 31.722 22.2228 31.7783C22.1125 31.8346 21.9923 31.8687 21.8689 31.8785C21.6206 31.8968 21.375 31.8178 21.1839 31.6582C20.9928 31.4987 20.8713 31.271 20.8451 31.0235C20.781 30.263 19.9935 29.6116 18.9484 29.3607L18.9495 33.1801C21.5055 33.7988 22.7351 34.9913 22.7351 36.752C22.7363 38.5598 21.1084 40.0741 18.9484 40.424V41.4365C18.9479 41.5604 18.923 41.683 18.8751 41.7973C18.8272 41.9116 18.7571 42.0153 18.669 42.1025C18.5809 42.1897 18.4765 42.2586 18.3617 42.3053C18.2468 42.352 18.124 42.3756 18 42.3747C17.7502 42.3759 17.5101 42.2779 17.3325 42.1022C17.1549 41.9265 17.0543 41.6874 17.0528 41.4376V40.4285C14.9805 40.1067 13.4156 38.7443 13.2671 37.0085C13.2573 36.8852 13.2718 36.7613 13.3099 36.6437C13.3481 36.5261 13.409 36.4171 13.4892 36.3231C13.5695 36.2291 13.6675 36.1518 13.7776 36.0956C13.8878 36.0395 14.0079 36.0056 14.1311 35.996C14.6081 35.9318 15.1099 36.3335 15.1549 36.851C15.219 37.6115 16.0065 38.2628 17.0516 38.5137V34.6955C14.4934 34.0756 13.2626 32.8842 13.2626 31.1247C13.2626 29.3135 14.8928 27.8003 17.0528 27.4505V26.438C17.0528 25.9205 17.4769 25.4997 18 25.4997ZM18.9484 35.105V38.5126C20.0396 38.2482 20.8418 37.5473 20.8418 36.7497C20.8418 35.9971 20.2343 35.4661 18.9484 35.105ZM15.1571 31.1247C15.1571 31.8762 15.7646 32.4072 17.0505 32.7683L17.0516 29.3618C15.9604 29.6273 15.1583 30.3271 15.1583 31.1247H15.1571ZM25.5791 14.2497C26.1023 14.2497 26.5264 14.6704 26.5264 15.1879C26.5264 15.7055 26.1023 16.1251 25.5791 16.1251H10.4209C10.2971 16.1258 10.1744 16.1022 10.0598 16.0554C9.94525 16.0087 9.84098 15.9399 9.753 15.8529C9.66503 15.7658 9.59507 15.6623 9.54714 15.5482C9.4992 15.4341 9.47422 15.3117 9.47363 15.1879C9.47363 14.6682 9.89776 14.2497 10.4209 14.2497H25.5791ZM30.0375 3.27532C30.1777 3.41377 30.2705 3.59301 30.3026 3.78741C30.3348 3.9818 30.3046 4.18137 30.2164 4.35757L26.4263 11.8579C26.346 12.0137 26.2244 12.1444 26.0747 12.2357C25.9251 12.327 25.7533 12.3753 25.578 12.3754H10.4209C10.2457 12.3757 10.0738 12.3276 9.9243 12.2362C9.77479 12.1449 9.65347 12.014 9.57376 11.8579L5.78475 4.35757C5.69525 4.18184 5.66412 3.98215 5.69588 3.78752C5.72765 3.59289 5.82065 3.41347 5.96138 3.27532C6.10291 3.13583 6.28442 3.04396 6.48062 3.0125C6.67683 2.98104 6.87796 3.01157 7.05601 3.09982L14.0254 6.54794L17.3306 3.27532C17.5093 3.0995 17.7499 3.00096 18.0006 3.00096C18.2512 3.00096 18.4919 3.0995 18.6705 3.27532L21.978 6.54794L28.9463 3.09982C29.1239 3.01125 29.3247 2.98054 29.5207 3.01202C29.7166 3.0435 29.8977 3.13558 30.0386 3.27532H30.0375ZM18 5.26319L14.8815 8.34907C14.7401 8.48835 14.5589 8.58018 14.3629 8.61183C14.167 8.64348 13.9661 8.61338 13.788 8.5257L8.75026 6.03382L11.007 10.5001H24.9953L27.2498 6.03382L22.2143 8.5257C22.0364 8.61438 21.8353 8.64505 21.6391 8.61336C21.4429 8.58167 21.2616 8.48923 21.1208 8.34907L18 5.26319Z" fill="white"/>
<path fill-rule="evenodd" clip-rule="evenodd" d="M25.5791 18.0005C25.8379 18.0005 26.0865 18.1051 26.2654 18.2907C26.6625 18.7036 36 28.4742 36 33.9372C36 41.6918 27.9248 47.9997 18 47.9997C8.07526 47.9997 0 41.6918 0 33.9372C0 28.4742 9.33751 18.7036 9.73463 18.2907C9.82358 18.1986 9.93021 18.1254 10.0481 18.0755C10.1661 18.0257 10.2928 18.0001 10.4209 18.0005H25.5791ZM25.1696 19.8747H10.8304C8.09663 22.7772 1.8945 30.1572 1.8945 33.9372C1.8945 40.6568 9.11926 46.1243 18 46.1243C26.8808 46.1243 34.1055 40.6568 34.1055 33.9372C34.1055 30.1538 27.9034 22.7761 25.1696 19.8747ZM18 25.4997C18.5231 25.4997 18.9473 25.9205 18.9473 26.438V27.4471C21.0195 27.7677 22.5844 29.1301 22.7329 30.8637C22.7429 30.9871 22.7285 31.1112 22.6904 31.229C22.6524 31.3468 22.5915 31.456 22.5113 31.5502C22.431 31.6445 22.333 31.722 22.2228 31.7783C22.1125 31.8346 21.9923 31.8687 21.8689 31.8785C21.6206 31.8968 21.375 31.8178 21.1839 31.6582C20.9928 31.4987 20.8713 31.271 20.8451 31.0235C20.781 30.263 19.9935 29.6116 18.9484 29.3607L18.9495 33.1801C21.5055 33.7988 22.7351 34.9913 22.7351 36.752C22.7363 38.5598 21.1084 40.0741 18.9484 40.424V41.4365C18.9479 41.5604 18.923 41.683 18.8751 41.7973C18.8272 41.9116 18.7571 42.0153 18.669 42.1025C18.5809 42.1897 18.4765 42.2586 18.3617 42.3053C18.2468 42.352 18.124 42.3756 18 42.3747C17.7502 42.3759 17.5101 42.2779 17.3325 42.1022C17.1549 41.9265 17.0543 41.6874 17.0528 41.4376V40.4285C14.9805 40.1067 13.4156 38.7443 13.2671 37.0085C13.2573 36.8852 13.2718 36.7613 13.3099 36.6437C13.3481 36.5261 13.409 36.4171 13.4892 36.3231C13.5695 36.2291 13.6675 36.1518 13.7776 36.0956C13.8878 36.0395 14.0079 36.0056 14.1311 35.996C14.6081 35.9318 15.1099 36.3335 15.1549 36.851C15.219 37.6115 16.0065 38.2628 17.0516 38.5137V34.6955C14.4934 34.0756 13.2626 32.8842 13.2626 31.1247C13.2626 29.3135 14.8928 27.8003 17.0528 27.4505V26.438C17.0528 25.9205 17.4769 25.4997 18 25.4997ZM18.9484 35.105V38.5126C20.0396 38.2482 20.8418 37.5473 20.8418 36.7497C20.8418 35.9971 20.2343 35.4661 18.9484 35.105ZM15.1571 31.1247C15.1571 31.8762 15.7646 32.4072 17.0505 32.7683L17.0516 29.3618C15.9604 29.6273 15.1583 30.3271 15.1583 31.1247H15.1571ZM25.5791 14.2497C26.1023 14.2497 26.5264 14.6704 26.5264 15.1879C26.5264 15.7055 26.1023 16.1251 25.5791 16.1251H10.4209C10.2971 16.1258 10.1744 16.1022 10.0598 16.0554C9.94525 16.0087 9.84098 15.9399 9.753 15.8529C9.66503 15.7658 9.59507 15.6623 9.54714 15.5482C9.4992 15.4341 9.47422 15.3117 9.47363 15.1879C9.47363 14.6682 9.89776 14.2497 10.4209 14.2497H25.5791ZM30.0375 3.27532C30.1777 3.41377 30.2705 3.59301 30.3026 3.78741C30.3348 3.9818 30.3046 4.18137 30.2164 4.35757L26.4263 11.8579C26.346 12.0137 26.2244 12.1444 26.0747 12.2357C25.9251 12.327 25.7533 12.3753 25.578 12.3754H10.4209C10.2457 12.3757 10.0738 12.3276 9.9243 12.2362C9.77479 12.1449 9.65347 12.014 9.57376 11.8579L5.78475 4.35757C5.69525 4.18184 5.66412 3.98215 5.69588 3.78752C5.72765 3.59289 5.82065 3.41347 5.96138 3.27532C6.10291 3.13583 6.28442 3.04396 6.48062 3.0125C6.67683 2.98104 6.87796 3.01157 7.05601 3.09982L14.0254 6.54794L17.3306 3.27532C17.5093 3.0995 17.7499 3.00096 18.0006 3.00096C18.2512 3.00096 18.4919 3.0995 18.6705 3.27532L21.978 6.54794L28.9463 3.09982C29.1239 3.01125 29.3247 2.98054 29.5207 3.01202C29.7166 3.0435 29.8977 3.13558 30.0386 3.27532H30.0375ZM18 5.26319L14.8815 8.34907C14.7401 8.48835 14.5589 8.58018 14.3629 8.61183C14.167 8.64348 13.9661 8.61338 13.788 8.5257L8.75026 6.03382L11.007 10.5001H24.9953L27.2498 6.03382L22.2143 8.5257C22.0364 8.61438 21.8353 8.64505 21.6391 8.61336C21.4429 8.58167 21.2616 8.48923 21.1208 8.34907L18 5.26319Z" fill="url(#paint0_linear_130_3116)"/>
<defs>
<linearGradient id="paint0_linear_130_3116" x1="0.778379" y1="16.9654" x2="37.944" y2="18.5441" gradientUnits="userSpaceOnUse">
<stop stop-color="#FF4B2A"/>
<stop offset="1" stop-color="#FF7551"/>
</linearGradient>
</defs>
</svg>
