<svg width="59" height="59" viewBox="0 0 59 59" fill="none" xmlns="http://www.w3.org/2000/svg">
<circle cx="29.5" cy="29.5" r="29.5" transform="rotate(-180 29.5 29.5)" fill="#999797"/>
<circle cx="29.5" cy="29.5" r="29.5" transform="rotate(-180 29.5 29.5)" fill="url(#paint0_linear_587_1042)"/>
<path d="M34.2826 30.7472L28.0652 37.2369C27.308 38.0273 26.4415 38.2037 25.4659 37.7661C24.4886 37.3301 24 36.5505 24 35.4273L24 22.5727C24 21.4495 24.4886 20.6699 25.4659 20.2339C26.4415 19.7963 27.308 19.9727 28.0652 20.7631L34.2826 27.2528C34.5217 27.5024 34.7011 27.7728 34.8207 28.064C34.9402 28.3552 35 28.6672 35 29C35 29.3328 34.9402 29.6448 34.8207 29.936C34.7011 30.2272 34.5217 30.4976 34.2826 30.7472V30.7472Z" fill="white"/>
<defs>
<linearGradient id="paint0_linear_587_1042" x1="1.27568" y1="18.3103" x2="62.1244" y2="21.5411" gradientUnits="userSpaceOnUse">
<stop stop-color="#FF4B2A"/>
<stop offset="1" stop-color="#FF7551"/>
</linearGradient>
</defs>
</svg>
