<svg width="1278" height="105" viewBox="0 0 1278 105" fill="none" xmlns="http://www.w3.org/2000/svg">
<path d="M28.8587 103V105H30.2644L30.7405 103.677L28.8587 103ZM0.77875 103L-1.0917 102.292L-2.11691 105H0.77875V103ZM38.9388 2.19999V0.199993H37.5574L37.0683 1.49189L38.9388 2.19999ZM67.7388 2.19999L69.6092 1.49189L69.1201 0.199993H67.7388V2.19999ZM105.899 103V105H108.794L107.769 102.292L105.899 103ZM77.8188 103L75.937 103.677L76.4131 105H77.8188V103ZM71.3388 85L73.2205 84.3226L72.7444 83H71.3388V85ZM35.3387 85V83H33.9331L33.457 84.3226L35.3387 85ZM41.8188 66.28L39.9254 65.6355L39.0252 68.28H41.8188V66.28ZM64.8588 66.28V68.28H67.6523L66.7521 65.6355L64.8588 66.28ZM53.3388 32.44L55.2321 31.7955L53.3388 26.2339L51.4455 31.7955L53.3388 32.44ZM28.8587 101H0.77875V105H28.8587V101ZM2.6492 103.708L40.8092 2.90809L37.0683 1.49189L-1.0917 102.292L2.6492 103.708ZM38.9388 4.19999H67.7388V0.199993H38.9388V4.19999ZM65.8683 2.90809L104.028 103.708L107.769 102.292L69.6092 1.49189L65.8683 2.90809ZM105.899 101H77.8188V105H105.899V101ZM79.7005 102.323L73.2205 84.3226L69.457 85.6774L75.937 103.677L79.7005 102.323ZM71.3388 83H35.3387V87H71.3388V83ZM33.457 84.3226L26.977 102.323L30.7405 103.677L37.2205 85.6774L33.457 84.3226ZM41.8188 68.28H64.8588V64.28H41.8188V68.28ZM66.7521 65.6355L55.2321 31.7955L51.4455 33.0845L62.9655 66.9245L66.7521 65.6355ZM51.4455 31.7955L39.9254 65.6355L43.7121 66.9245L55.2321 33.0845L51.4455 31.7955ZM158.414 26.68V24.68H156.953L156.509 26.0714L158.414 26.68ZM185.054 26.68L186.925 27.3861L187.946 24.68H185.054V26.68ZM156.254 103V105H157.637L158.125 103.706L156.254 103ZM127.454 103L125.583 103.706L126.071 105H127.454V103ZM98.6537 26.68V24.68H95.7614L96.7825 27.3861L98.6537 26.68ZM125.294 26.68L127.199 26.0714L126.754 24.68H125.294V26.68ZM141.854 78.52L139.949 79.1286L141.854 85.0926L143.759 79.1286L141.854 78.52ZM158.414 28.68H185.054V24.68H158.414V28.68ZM183.183 25.9739L154.383 102.294L158.125 103.706L186.925 27.3861L183.183 25.9739ZM156.254 101H127.454V105H156.254V101ZM129.325 102.294L100.525 25.9739L96.7825 27.3861L125.583 103.706L129.325 102.294ZM98.6537 28.68H125.294V24.68H98.6537V28.68ZM123.389 27.2886L139.949 79.1286L143.759 77.9114L127.199 26.0714L123.389 27.2886ZM143.759 79.1286L160.319 27.2886L156.509 26.0714L139.949 77.9114L143.759 79.1286ZM235.533 81.4L236.105 83.3164L237.533 82.8902V81.4H235.533ZM235.533 72.76H237.533V70.76H235.533V72.76ZM211.053 74.2L212.467 75.6142L211.053 74.2ZM211.053 82.84L209.638 84.2542L211.053 82.84ZM191.613 28.12L191.395 26.1318L189.613 26.3267V28.12H191.613ZM254.829 31.144L253.414 32.5582L254.829 31.144ZM260.733 103V105H262.733V103H260.733ZM238.413 103L236.451 103.392L236.773 105H238.413V103ZM236.973 95.8L238.934 95.4078L238.351 92.4949L235.871 94.1305L236.973 95.8ZM223.005 102.424L223.554 104.347L223.567 104.343L223.579 104.34L223.005 102.424ZM190.316 98.536L188.902 99.9502L190.316 98.536ZM190.316 60.664L191.731 62.0782L190.316 60.664ZM235.533 54.76V56.76H237.533V54.76H235.533ZM234.092 45.4L232.678 46.8142V46.8142L234.092 45.4ZM209.757 44.824L209.605 42.8297L209.603 42.8299L209.757 44.824ZM191.613 46.12H189.613V48.2489L191.737 48.1161L191.613 46.12ZM218.253 86.28C223.585 86.28 229.542 85.2753 236.105 83.3164L234.96 79.4836C228.659 81.3647 223.096 82.28 218.253 82.28V86.28ZM237.533 81.4V72.76H233.533V81.4H237.533ZM235.533 70.76H214.652V74.76H235.533V70.76ZM214.652 70.76C212.718 70.76 210.998 71.4262 209.638 72.7858L212.467 75.6142C213.027 75.0538 213.707 74.76 214.652 74.76V70.76ZM209.638 72.7858C208.279 74.1454 207.613 75.8653 207.613 77.8H211.613C211.613 76.8547 211.906 76.1746 212.467 75.6142L209.638 72.7858ZM207.613 77.8V79.24H211.613V77.8H207.613ZM207.613 79.24C207.613 81.1747 208.279 82.8946 209.638 84.2542L212.467 81.4258C211.906 80.8654 211.613 80.1853 211.613 79.24H207.613ZM209.638 84.2542C210.998 85.6138 212.718 86.28 214.652 86.28V82.28C213.707 82.28 213.027 81.9862 212.467 81.4258L209.638 84.2542ZM214.652 86.28H218.253V82.28H214.652V86.28ZM191.83 30.1082C209.343 28.1942 225.108 27.24 239.133 27.24V23.24C224.933 23.24 209.018 24.2058 191.395 26.1318L191.83 30.1082ZM239.133 27.24C245.229 27.24 249.918 29.0618 253.414 32.5582L256.243 29.7298C251.867 25.3542 246.092 23.24 239.133 23.24V27.24ZM253.414 32.5582C256.911 36.0546 258.733 40.7436 258.733 46.84H262.733C262.733 39.8803 260.618 34.1054 256.243 29.7298L253.414 32.5582ZM258.733 46.84V103H262.733V46.84H258.733ZM260.733 101H238.413V105H260.733V101ZM240.374 102.608L238.934 95.4078L235.011 96.1922L236.451 103.392L240.374 102.608ZM235.871 94.1305C231.509 97.0076 227.029 99.1285 222.43 100.508L223.579 104.34C228.58 102.839 233.412 100.544 238.074 97.4695L235.871 94.1305ZM222.455 100.501C217.85 101.817 214.063 102.44 211.053 102.44V106.44C214.57 106.44 218.751 105.719 223.554 104.347L222.455 100.501ZM211.053 102.44H206.012V106.44H211.053V102.44ZM206.012 102.44C199.916 102.44 195.227 100.618 191.731 97.1218L188.902 99.9502C193.278 104.326 199.053 106.44 206.012 106.44V102.44ZM191.731 97.1218C188.234 93.6254 186.413 88.9364 186.413 82.84H182.413C182.413 89.7996 184.527 95.5746 188.902 99.9502L191.731 97.1218ZM186.413 82.84V76.36H182.413V82.84H186.413ZM186.413 76.36C186.413 70.2636 188.234 65.5746 191.731 62.0782L188.902 59.2498C184.527 63.6254 182.413 69.4004 182.413 76.36H186.413ZM191.731 62.0782C195.227 58.5818 199.916 56.76 206.012 56.76V52.76C199.053 52.76 193.278 54.8742 188.902 59.2498L191.731 62.0782ZM206.012 56.76H235.533V52.76H206.012V56.76ZM237.533 54.76V49H233.533V54.76H237.533ZM237.533 49C237.533 47.0653 236.866 45.3454 235.507 43.9858L232.678 46.8142C233.239 47.3746 233.533 48.0547 233.533 49H237.533ZM235.507 43.9858C234.147 42.6262 232.427 41.96 230.493 41.96V45.96C231.438 45.96 232.118 46.2538 232.678 46.8142L235.507 43.9858ZM230.493 41.96C224.192 41.96 217.229 42.2507 209.605 42.8297L209.908 46.8183C217.452 46.2453 224.313 45.96 230.493 45.96V41.96ZM209.603 42.8299C202.12 43.4055 196.082 43.8367 191.488 44.1239L191.737 48.1161C196.359 47.8273 202.417 47.3944 209.91 46.8181L209.603 42.8299ZM193.613 46.12V28.12H189.613V46.12H193.613ZM305.333 29.56H307.333V27.56H305.333V29.56ZM305.333 103V105H307.333V103H305.333ZM280.133 103H278.133V105H280.133V103ZM280.133 49H282.133V47H280.133V49ZM269.333 49H267.333V51H269.333V49ZM269.333 29.56V27.56H267.333V29.56H269.333ZM280.133 0.759995V-1.24001H278.133V0.759995H280.133ZM305.333 0.759995H307.333V-1.24001H305.333V0.759995ZM305.333 20.92V22.92H307.333V20.92H305.333ZM280.133 20.92H278.133V22.92H280.133V20.92ZM303.333 29.56V103H307.333V29.56H303.333ZM305.333 101H280.133V105H305.333V101ZM282.133 103V49H278.133V103H282.133ZM280.133 47H269.333V51H280.133V47ZM271.333 49V29.56H267.333V49H271.333ZM269.333 31.56H305.333V27.56H269.333V31.56ZM280.133 2.75999H305.333V-1.24001H280.133V2.75999ZM303.333 0.759995V20.92H307.333V0.759995H303.333ZM305.333 18.92H280.133V22.92H305.333V18.92ZM282.133 20.92V0.759995H278.133V20.92H282.133ZM367.298 81.4L367.87 83.3164L369.298 82.8902V81.4H367.298ZM367.298 72.76H369.298V70.76H367.298V72.76ZM342.818 74.2L344.232 75.6142L342.818 74.2ZM342.818 82.84L341.404 84.2542L342.818 82.84ZM323.378 28.12L323.161 26.1318L321.378 26.3267V28.12H323.378ZM386.594 31.144L385.18 32.5582L386.594 31.144ZM392.498 103V105H394.498V103H392.498ZM370.178 103L368.217 103.392L368.539 105H370.178V103ZM368.738 95.8L370.699 95.4078L370.117 92.4949L367.637 94.1305L368.738 95.8ZM354.77 102.424L355.32 104.347L355.332 104.343L355.345 104.34L354.77 102.424ZM322.082 98.536L320.668 99.9502L322.082 98.536ZM322.082 60.664L323.496 62.0782L322.082 60.664ZM367.298 54.76V56.76H369.298V54.76H367.298ZM365.858 45.4L364.444 46.8142V46.8142L365.858 45.4ZM341.522 44.824L341.371 42.8297L341.369 42.8299L341.522 44.824ZM323.378 46.12H321.378V48.2489L323.503 48.1161L323.378 46.12ZM350.018 86.28C355.35 86.28 361.308 85.2753 367.87 83.3164L366.726 79.4836C360.424 81.3647 354.862 82.28 350.018 82.28V86.28ZM369.298 81.4V72.76H365.298V81.4H369.298ZM367.298 70.76H346.418V74.76H367.298V70.76ZM346.418 70.76C344.483 70.76 342.763 71.4262 341.404 72.7858L344.232 75.6142C344.793 75.0538 345.473 74.76 346.418 74.76V70.76ZM341.404 72.7858C340.044 74.1454 339.378 75.8653 339.378 77.8H343.378C343.378 76.8547 343.672 76.1746 344.232 75.6142L341.404 72.7858ZM339.378 77.8V79.24H343.378V77.8H339.378ZM339.378 79.24C339.378 81.1747 340.044 82.8946 341.404 84.2542L344.232 81.4258C343.672 80.8654 343.378 80.1853 343.378 79.24H339.378ZM341.404 84.2542C342.764 85.6138 344.483 86.28 346.418 86.28V82.28C345.473 82.28 344.793 81.9862 344.232 81.4258L341.404 84.2542ZM346.418 86.28H350.018V82.28H346.418V86.28ZM323.595 30.1082C341.108 28.1942 356.874 27.24 370.898 27.24V23.24C356.698 23.24 340.784 24.2058 323.161 26.1318L323.595 30.1082ZM370.898 27.24C376.994 27.24 381.684 29.0618 385.18 32.5582L388.008 29.7298C383.633 25.3542 377.858 23.24 370.898 23.24V27.24ZM385.18 32.5582C388.676 36.0546 390.498 40.7436 390.498 46.84H394.498C394.498 39.8803 392.384 34.1054 388.008 29.7298L385.18 32.5582ZM390.498 46.84V103H394.498V46.84H390.498ZM392.498 101H370.178V105H392.498V101ZM372.139 102.608L370.699 95.4078L366.777 96.1922L368.217 103.392L372.139 102.608ZM367.637 94.1305C363.275 97.0076 358.795 99.1285 354.195 100.508L355.345 104.34C360.345 102.839 365.177 100.544 369.839 97.4695L367.637 94.1305ZM354.221 100.501C349.616 101.817 345.829 102.44 342.818 102.44V106.44C346.336 106.44 350.516 105.719 355.32 104.347L354.221 100.501ZM342.818 102.44H337.778V106.44H342.818V102.44ZM337.778 102.44C331.682 102.44 326.993 100.618 323.496 97.1218L320.668 99.9502C325.043 104.326 330.818 106.44 337.778 106.44V102.44ZM323.496 97.1218C320 93.6254 318.178 88.9364 318.178 82.84H314.178C314.178 89.7996 316.292 95.5746 320.668 99.9502L323.496 97.1218ZM318.178 82.84V76.36H314.178V82.84H318.178ZM318.178 76.36C318.178 70.2636 320 65.5746 323.496 62.0782L320.668 59.2498C316.292 63.6254 314.178 69.4004 314.178 76.36H318.178ZM323.496 62.0782C326.993 58.5818 331.682 56.76 337.778 56.76V52.76C330.818 52.76 325.043 54.8742 320.668 59.2498L323.496 62.0782ZM337.778 56.76H367.298V52.76H337.778V56.76ZM369.298 54.76V49H365.298V54.76H369.298ZM369.298 49C369.298 47.0653 368.632 45.3454 367.272 43.9858L364.444 46.8142C365.004 47.3746 365.298 48.0547 365.298 49H369.298ZM367.272 43.9858C365.913 42.6262 364.193 41.96 362.258 41.96V45.96C363.203 45.96 363.884 46.2538 364.444 46.8142L367.272 43.9858ZM362.258 41.96C355.958 41.96 348.995 42.2507 341.371 42.8297L341.674 46.8183C349.218 46.2453 356.078 45.96 362.258 45.96V41.96ZM341.369 42.8299C333.885 43.4055 327.848 43.8367 323.253 44.1239L323.503 48.1161C328.124 47.8273 334.183 47.3944 341.676 46.8181L341.369 42.8299ZM325.378 46.12V28.12H321.378V46.12H325.378ZM455.099 46.12L453.685 47.5342V47.5342L455.099 46.12ZM437.387 45.256L437.131 43.2724L437.122 43.2735L437.387 45.256ZM430.619 46.12L430.385 44.1337L428.619 44.3415V46.12H430.619ZM430.619 83.56H428.619V85.56H430.619V83.56ZM430.619 28.12H428.619V30.5744L431.023 30.0788L430.619 28.12ZM475.835 31.144L474.421 32.5582L475.835 31.144ZM475.547 96.952L474.133 95.5378L475.547 96.952ZM405.419 103H403.419V105H405.419V103ZM405.419 2.19999V0.199993H403.419V2.19999H405.419ZM430.619 2.19999H432.619V0.199993H430.619V2.19999ZM458.539 49.72C458.539 47.7853 457.873 46.0654 456.513 44.7058L453.685 47.5342C454.245 48.0946 454.539 48.7747 454.539 49.72H458.539ZM456.513 44.7058C455.153 43.3462 453.433 42.68 451.499 42.68V46.68C452.444 46.68 453.124 46.9738 453.685 47.5342L456.513 44.7058ZM451.499 42.68H447.899V46.68H451.499V42.68ZM447.899 42.68C443.808 42.68 440.215 42.8745 437.131 43.2724L437.643 47.2396C440.511 46.8695 443.925 46.68 447.899 46.68V42.68ZM437.122 43.2735C434.246 43.657 432.002 43.9435 430.385 44.1337L430.852 48.1063C432.5 47.9125 434.767 47.623 437.651 47.2384L437.122 43.2735ZM428.619 46.12V83.56H432.619V46.12H428.619ZM430.619 85.56H450.779V81.56H430.619V85.56ZM450.779 85.56C453.007 85.56 455.046 85.0016 456.513 83.5342C457.98 82.0669 458.539 80.0283 458.539 77.8H454.539C454.539 79.4117 454.137 80.2531 453.685 80.7058C453.232 81.1584 452.39 81.56 450.779 81.56V85.56ZM458.539 77.8V49.72H454.539V77.8H458.539ZM431.023 30.0788C440.245 28.1772 448.265 27.24 455.099 27.24V23.24C447.917 23.24 439.616 24.2228 430.215 26.1612L431.023 30.0788ZM455.099 27.24H460.139V23.24H455.099V27.24ZM460.139 27.24C466.235 27.24 470.924 29.0618 474.421 32.5582L477.249 29.7298C472.873 25.3542 467.098 23.24 460.139 23.24V27.24ZM474.421 32.5582C477.917 36.0546 479.739 40.7436 479.739 46.84H483.739C483.739 39.8803 481.625 34.1054 477.249 29.7298L474.421 32.5582ZM479.739 46.84V79.96H483.739V46.84H479.739ZM479.739 79.96C479.739 86.7609 477.802 91.8685 474.133 95.5378L476.961 98.3662C481.548 93.7795 483.739 87.5591 483.739 79.96H479.739ZM474.133 95.5378C470.568 99.1024 465.515 101 458.699 101V105C466.283 105 472.462 102.866 476.961 98.3662L474.133 95.5378ZM458.699 101H405.419V105H458.699V101ZM407.419 103V2.19999H403.419V103H407.419ZM405.419 4.19999H430.619V0.199993H405.419V4.19999ZM428.619 2.19999V28.12H432.619V2.19999H428.619ZM533.596 103L533.891 104.978L535.596 104.724V103H533.596ZM500.62 98.536L502.034 97.1218L500.62 98.536ZM494.716 2.19999V0.199993H492.716V2.19999H494.716ZM519.916 2.19999H521.916V0.199993H519.916V2.19999ZM533.596 84.28H535.596V82.28H533.596V84.28ZM533.3 101.022C526.956 101.969 520.911 102.44 515.164 102.44V106.44C521.129 106.44 527.372 105.951 533.891 104.978L533.3 101.022ZM515.164 102.44C509.913 102.44 505.58 100.668 502.034 97.1218L499.205 99.9502C503.531 104.276 508.894 106.44 515.164 106.44V102.44ZM502.034 97.1218C498.537 93.6254 496.716 88.9364 496.716 82.84H492.716C492.716 89.7996 494.83 95.5746 499.205 99.9502L502.034 97.1218ZM496.716 82.84V2.19999H492.716V82.84H496.716ZM494.716 4.19999H519.916V0.199993H494.716V4.19999ZM517.916 2.19999V79.24H521.916V2.19999H517.916ZM517.916 79.24C517.916 81.1747 518.582 82.8946 519.941 84.2542L522.77 81.4258C522.209 80.8654 521.916 80.1853 521.916 79.24H517.916ZM519.941 84.2542C521.301 85.6138 523.021 86.28 524.956 86.28V82.28C524.01 82.28 523.33 81.9862 522.77 81.4258L519.941 84.2542ZM524.956 86.28H533.596V82.28H524.956V86.28ZM531.596 84.28V103H535.596V84.28H531.596ZM567.413 56.92H565.413V58.92H567.413V56.92ZM591.893 56.92V58.92H593.893V56.92H591.893ZM614.213 101.56L614.419 103.549L616.213 103.363V101.56H614.213ZM548.117 98.536L546.703 99.9502H546.703L548.117 98.536ZM548.261 31.432L549.675 32.8462L548.261 31.432ZM610.901 31.432L609.47 32.8295L609.487 32.8463L609.504 32.8628L610.901 31.432ZM617.093 74.92V76.92H619.093V74.92H617.093ZM567.413 74.92V72.92H565.413V74.92H567.413ZM568.853 84.28L570.267 82.8658L568.853 84.28ZM614.213 83.56H616.213V81.3968L614.057 81.5661L614.213 83.56ZM573.173 41.24C570.945 41.24 568.906 41.7984 567.439 43.2658C565.972 44.7331 565.413 46.7717 565.413 49H569.413C569.413 47.3883 569.815 46.5469 570.267 46.0942C570.72 45.6416 571.561 45.24 573.173 45.24V41.24ZM565.413 49V56.92H569.413V49H565.413ZM567.413 58.92H591.893V54.92H567.413V58.92ZM593.893 56.92V49H589.893V56.92H593.893ZM593.893 49C593.893 46.7717 593.335 44.7331 591.867 43.2658C590.4 41.7984 588.361 41.24 586.133 41.24V45.24C587.745 45.24 588.586 45.6416 589.039 46.0942C589.492 46.5469 589.893 47.3883 589.893 49H593.893ZM586.133 41.24H573.173V45.24H586.133V41.24ZM614.007 99.5706C595.532 101.485 578.802 102.44 563.813 102.44V106.44C578.968 106.44 595.838 105.475 614.419 103.549L614.007 99.5706ZM563.813 102.44C557.717 102.44 553.028 100.618 549.531 97.1218L546.703 99.9502C551.078 104.326 556.853 106.44 563.813 106.44V102.44ZM549.531 97.1218C546.035 93.6254 544.213 88.9364 544.213 82.84H540.213C540.213 89.7996 542.327 95.5746 546.703 99.9502L549.531 97.1218ZM544.213 82.84V48.28H540.213V82.84H544.213ZM544.213 48.28C544.213 41.4637 546.111 36.4108 549.675 32.8462L546.847 30.0178C542.347 34.5172 540.213 40.6963 540.213 48.28H544.213ZM549.675 32.8462C553.345 29.1769 558.452 27.24 565.253 27.24V23.24C557.654 23.24 551.434 25.4311 546.847 30.0178L549.675 32.8462ZM565.253 27.24H594.053V23.24H565.253V27.24ZM594.053 27.24C600.856 27.24 605.903 29.1775 609.47 32.8295L612.332 30.0345C607.835 25.4305 601.65 23.24 594.053 23.24V27.24ZM609.504 32.8628C613.156 36.4298 615.093 41.477 615.093 48.28H619.093C619.093 40.683 616.903 34.4982 612.299 30.0012L609.504 32.8628ZM615.093 48.28V74.92H619.093V48.28H615.093ZM617.093 72.92H567.413V76.92H617.093V72.92ZM565.413 74.92V80.68H569.413V74.92H565.413ZM565.413 80.68C565.413 82.6147 566.079 84.3346 567.439 85.6942L570.267 82.8658C569.707 82.3054 569.413 81.6253 569.413 80.68H565.413ZM567.439 85.6942C568.799 87.0538 570.518 87.72 572.453 87.72V83.72C571.508 83.72 570.828 83.4262 570.267 82.8658L567.439 85.6942ZM572.453 87.72C582.037 87.72 596.02 86.9949 614.37 85.5539L614.057 81.5661C595.734 83.0051 581.877 83.72 572.453 83.72V87.72ZM612.213 83.56V101.56H616.213V83.56H612.213ZM670.289 82.84L670.436 80.8454L668.289 80.6868V82.84H670.289ZM719.969 83.56L721.383 84.9742L719.969 83.56ZM721.409 74.92H723.409V72.92H721.409V74.92ZM674.753 69.016L676.167 67.6018L674.753 69.016ZM674.753 32.584L676.167 33.9982L674.753 32.584ZM739.409 26.68H741.409V24.68H739.409V26.68ZM739.409 45.4V47.4H741.409V45.4H739.409ZM695.489 46.84L696.903 48.2542L695.489 46.84ZM695.489 54.04L694.075 55.4542V55.4542L695.489 54.04ZM740.705 61.384L742.119 59.9698L740.705 61.384ZM740.705 98.536L742.119 99.9502L740.705 98.536ZM670.289 101.56H668.289V103.373L670.093 103.55L670.289 101.56ZM670.141 84.8346C689.648 86.276 705.065 87 716.369 87V83C705.209 83 689.905 82.284 670.436 80.8454L670.141 84.8346ZM716.369 87C718.303 87 720.023 86.3338 721.383 84.9742L718.555 82.1458C717.994 82.7062 717.314 83 716.369 83V87ZM721.383 84.9742C722.743 83.6146 723.409 81.8947 723.409 79.96H719.409C719.409 80.9053 719.115 81.5854 718.555 82.1458L721.383 84.9742ZM723.409 79.96V74.92H719.409V79.96H723.409ZM721.409 72.92H690.449V76.92H721.409V72.92ZM690.449 72.92C684.352 72.92 679.663 71.0982 676.167 67.6018L673.339 70.4302C677.714 74.8058 683.489 76.92 690.449 76.92V72.92ZM676.167 67.6018C672.671 64.1054 670.849 59.4164 670.849 53.32H666.849C666.849 60.2796 668.963 66.0546 673.339 70.4302L676.167 67.6018ZM670.849 53.32V48.28H666.849V53.32H670.849ZM670.849 48.28C670.849 42.1836 672.671 37.4946 676.167 33.9982L673.339 31.1698C668.963 35.5454 666.849 41.3204 666.849 48.28H670.849ZM676.167 33.9982C679.663 30.5018 684.352 28.68 690.449 28.68V24.68C683.489 24.68 677.714 26.7942 673.339 31.1698L676.167 33.9982ZM690.449 28.68H739.409V24.68H690.449V28.68ZM737.409 26.68V45.4H741.409V26.68H737.409ZM739.409 43.4H699.089V47.4H739.409V43.4ZM699.089 43.4C697.154 43.4 695.434 44.0662 694.075 45.4258L696.903 48.2542C697.463 47.6938 698.143 47.4 699.089 47.4V43.4ZM694.075 45.4258C692.715 46.7854 692.049 48.5053 692.049 50.44H696.049C696.049 49.4947 696.343 48.8146 696.903 48.2542L694.075 45.4258ZM692.049 50.44C692.049 52.3747 692.715 54.0946 694.075 55.4542L696.903 52.6258C696.343 52.0654 696.049 51.3853 696.049 50.44H692.049ZM694.075 55.4542C695.434 56.8138 697.154 57.48 699.089 57.48V53.48C698.143 53.48 697.463 53.1862 696.903 52.6258L694.075 55.4542ZM699.089 57.48H725.009V53.48H699.089V57.48ZM725.009 57.48C731.105 57.48 735.794 59.3018 739.291 62.7982L742.119 59.9698C737.743 55.5942 731.968 53.48 725.009 53.48V57.48ZM739.291 62.7982C742.787 66.2946 744.609 70.9836 744.609 77.08H748.609C748.609 70.1204 746.495 64.3454 742.119 59.9698L739.291 62.7982ZM744.609 77.08V82.84H748.609V77.08H744.609ZM744.609 82.84C744.609 88.9364 742.787 93.6254 739.291 97.1218L742.119 99.9502C746.495 95.5746 748.609 89.7996 748.609 82.84H744.609ZM739.291 97.1218C735.794 100.618 731.105 102.44 725.009 102.44V106.44C731.968 106.44 737.743 104.326 742.119 99.9502L739.291 97.1218ZM725.009 102.44C708.091 102.44 689.917 101.484 670.485 99.5696L670.093 103.55C689.636 105.476 707.942 106.44 725.009 106.44V102.44ZM672.289 101.56V82.84H668.289V101.56H672.289ZM780.46 56.92H778.46V58.92H780.46V56.92ZM804.94 56.92V58.92H806.94V56.92H804.94ZM827.26 101.56L827.466 103.549L829.26 103.363V101.56H827.26ZM761.164 98.536L759.75 99.9502H759.75L761.164 98.536ZM761.308 31.432L762.722 32.8462L761.308 31.432ZM823.948 31.432L822.517 32.8295L822.534 32.8463L822.551 32.8628L823.948 31.432ZM830.14 74.92V76.92H832.14V74.92H830.14ZM780.46 74.92V72.92H778.46V74.92H780.46ZM781.9 84.28L783.314 82.8658L781.9 84.28ZM827.26 83.56H829.26V81.3968L827.103 81.5661L827.26 83.56ZM786.22 41.24C783.992 41.24 781.953 41.7984 780.486 43.2658C779.018 44.7331 778.46 46.7717 778.46 49H782.46C782.46 47.3883 782.862 46.5469 783.314 46.0942C783.767 45.6416 784.608 45.24 786.22 45.24V41.24ZM778.46 49V56.92H782.46V49H778.46ZM780.46 58.92H804.94V54.92H780.46V58.92ZM806.94 56.92V49H802.94V56.92H806.94ZM806.94 49C806.94 46.7717 806.382 44.7331 804.914 43.2658C803.447 41.7984 801.408 41.24 799.18 41.24V45.24C800.792 45.24 801.633 45.6416 802.086 46.0942C802.538 46.5469 802.94 47.3883 802.94 49H806.94ZM799.18 41.24H786.22V45.24H799.18V41.24ZM827.054 99.5706C808.579 101.485 791.849 102.44 776.86 102.44V106.44C792.015 106.44 808.885 105.475 827.466 103.549L827.054 99.5706ZM776.86 102.44C770.764 102.44 766.075 100.618 762.578 97.1218L759.75 99.9502C764.125 104.326 769.9 106.44 776.86 106.44V102.44ZM762.578 97.1218C759.082 93.6254 757.26 88.9364 757.26 82.84H753.26C753.26 89.7996 755.374 95.5746 759.75 99.9502L762.578 97.1218ZM757.26 82.84V48.28H753.26V82.84H757.26ZM757.26 48.28C757.26 41.4637 759.158 36.4108 762.722 32.8462L759.894 30.0178C755.394 34.5172 753.26 40.6963 753.26 48.28H757.26ZM762.722 32.8462C766.391 29.1769 771.499 27.24 778.3 27.24V23.24C770.701 23.24 764.48 25.4311 759.894 30.0178L762.722 32.8462ZM778.3 27.24H807.1V23.24H778.3V27.24ZM807.1 27.24C813.903 27.24 818.95 29.1775 822.517 32.8295L825.379 30.0345C820.882 25.4305 814.697 23.24 807.1 23.24V27.24ZM822.551 32.8628C826.203 36.4298 828.14 41.477 828.14 48.28H832.14C832.14 40.683 829.949 34.4982 825.345 30.0012L822.551 32.8628ZM828.14 48.28V74.92H832.14V48.28H828.14ZM830.14 72.92H780.46V76.92H830.14V72.92ZM778.46 74.92V80.68H782.46V74.92H778.46ZM778.46 80.68C778.46 82.6147 779.126 84.3346 780.486 85.6942L783.314 82.8658C782.754 82.3054 782.46 81.6253 782.46 80.68H778.46ZM780.486 85.6942C781.845 87.0538 783.565 87.72 785.5 87.72V83.72C784.555 83.72 783.875 83.4262 783.314 82.8658L780.486 85.6942ZM785.5 87.72C795.084 87.72 809.067 86.9949 827.417 85.5539L827.103 81.5661C808.781 83.0051 794.924 83.72 785.5 83.72V87.72ZM825.26 83.56V101.56H829.26V83.56H825.26ZM868.244 51.88L867.426 50.0546L866.244 50.5842V51.88H868.244ZM868.244 103V105H870.244V103H868.244ZM843.044 103H841.044V105H843.044V103ZM843.044 26.68V24.68H841.044V26.68H843.044ZM865.364 26.68L867.341 26.3759L867.08 24.68H865.364V26.68ZM866.804 36.04L864.827 36.3441L865.38 39.9357L868.118 37.5473L866.804 36.04ZM899.204 25.24H901.204V23.24H899.204V25.24ZM899.204 47.56V49.56H901.204V47.56H899.204ZM886.964 45.56C880.591 45.56 874.073 47.0784 867.426 50.0546L869.061 53.7054C875.278 50.9216 881.24 49.56 886.964 49.56V45.56ZM866.244 51.88V103H870.244V51.88H866.244ZM868.244 101H843.044V105H868.244V101ZM845.044 103V26.68H841.044V103H845.044ZM843.044 28.68H865.364V24.68H843.044V28.68ZM863.387 26.9841L864.827 36.3441L868.781 35.7359L867.341 26.3759L863.387 26.9841ZM868.118 37.5473C876.091 30.594 884.281 27.24 892.724 27.24V23.24C883.118 23.24 874.028 27.086 865.489 34.5327L868.118 37.5473ZM892.724 27.24H899.204V23.24H892.724V27.24ZM897.204 25.24V47.56H901.204V25.24H897.204ZM899.204 45.56H886.964V49.56H899.204V45.56ZM960.398 26.68V24.68H958.937L958.493 26.0714L960.398 26.68ZM987.038 26.68L988.909 27.3861L989.93 24.68H987.038V26.68ZM958.238 103V105H959.621L960.109 103.706L958.238 103ZM929.438 103L927.567 103.706L928.055 105H929.438V103ZM900.638 26.68V24.68H897.746L898.767 27.3861L900.638 26.68ZM927.278 26.68L929.183 26.0714L928.739 24.68H927.278V26.68ZM943.838 78.52L941.933 79.1286L943.838 85.0926L945.743 79.1286L943.838 78.52ZM960.398 28.68H987.038V24.68H960.398V28.68ZM985.167 25.9739L956.367 102.294L960.109 103.706L988.909 27.3861L985.167 25.9739ZM958.238 101H929.438V105H958.238V101ZM931.309 102.294L902.509 25.9739L898.767 27.3861L927.567 103.706L931.309 102.294ZM900.638 28.68H927.278V24.68H900.638V28.68ZM925.373 27.2886L941.933 79.1286L945.743 77.9114L929.183 26.0714L925.373 27.2886ZM945.743 79.1286L962.303 27.2886L958.493 26.0714L941.933 77.9114L945.743 79.1286ZM1024.49 29.56H1026.49V27.56H1024.49V29.56ZM1024.49 103V105H1026.49V103H1024.49ZM999.289 103H997.289V105H999.289V103ZM999.289 49H1001.29V47H999.289V49ZM988.489 49H986.489V51H988.489V49ZM988.489 29.56V27.56H986.489V29.56H988.489ZM999.289 0.759995V-1.24001H997.289V0.759995H999.289ZM1024.49 0.759995H1026.49V-1.24001H1024.49V0.759995ZM1024.49 20.92V22.92H1026.49V20.92H1024.49ZM999.289 20.92H997.289V22.92H999.289V20.92ZM1022.49 29.56V103H1026.49V29.56H1022.49ZM1024.49 101H999.289V105H1024.49V101ZM1001.29 103V49H997.289V103H1001.29ZM999.289 47H988.489V51H999.289V47ZM990.489 49V29.56H986.489V49H990.489ZM988.489 31.56H1024.49V27.56H988.489V31.56ZM999.289 2.75999H1024.49V-1.24001H999.289V2.75999ZM1022.49 0.759995V20.92H1026.49V0.759995H1022.49ZM1024.49 18.92H999.289V22.92H1024.49V18.92ZM1001.29 20.92V0.759995H997.289V20.92H1001.29ZM1106.61 101.56L1106.83 103.549L1108.61 103.357V101.56H1106.61ZM1043.4 98.536L1041.98 99.9502L1043.4 98.536ZM1043.54 32.872L1044.96 34.2862L1043.54 32.872ZM1106.61 26.68H1108.61V24.68H1106.61V26.68ZM1106.61 46.12V48.12H1108.61V46.12H1106.61ZM1106.61 82.84H1108.61V80.6664L1106.45 80.8469L1106.61 82.84ZM1106.4 99.5713C1088.5 101.486 1072.73 102.44 1059.09 102.44V106.44C1072.91 106.44 1088.82 105.474 1106.83 103.549L1106.4 99.5713ZM1059.09 102.44C1053 102.44 1048.31 100.618 1044.81 97.1218L1041.98 99.9502C1046.36 104.326 1052.13 106.44 1059.09 106.44V102.44ZM1044.81 97.1218C1041.32 93.6254 1039.49 88.9364 1039.49 82.84H1035.49C1035.49 89.7996 1037.61 95.5746 1041.98 99.9502L1044.81 97.1218ZM1039.49 82.84V49.72H1035.49V82.84H1039.49ZM1039.49 49.72C1039.49 42.9037 1041.39 37.8508 1044.96 34.2862L1042.13 31.4578C1037.63 35.9572 1035.49 42.1363 1035.49 49.72H1039.49ZM1044.96 34.2862C1048.63 30.6169 1053.73 28.68 1060.53 28.68V24.68C1052.94 24.68 1046.71 26.8711 1042.13 31.4578L1044.96 34.2862ZM1060.53 28.68H1106.61V24.68H1060.53V28.68ZM1104.61 26.68V46.12H1108.61V26.68H1104.61ZM1106.61 44.12H1068.45V48.12H1106.61V44.12ZM1068.45 44.12C1066.23 44.12 1064.19 44.6784 1062.72 46.1458C1061.25 47.6131 1060.69 49.6517 1060.69 51.88H1064.69C1064.69 50.2683 1065.1 49.4268 1065.55 48.9742C1066 48.5216 1066.84 48.12 1068.45 48.12V44.12ZM1060.69 51.88V79.96H1064.69V51.88H1060.69ZM1060.69 79.96C1060.69 81.8947 1061.36 83.6146 1062.72 84.9742L1065.55 82.1458C1064.99 81.5854 1064.69 80.9053 1064.69 79.96H1060.69ZM1062.72 84.9742C1064.08 86.3338 1065.8 87 1067.73 87V83C1066.79 83 1066.11 82.7062 1065.55 82.1458L1062.72 84.9742ZM1067.73 87C1076.46 87 1089.49 86.2741 1106.78 84.8331L1106.45 80.8469C1089.18 82.2859 1076.29 83 1067.73 83V87ZM1104.61 82.84V101.56H1108.61V82.84H1104.61ZM1141.87 56.92H1139.87V58.92H1141.87V56.92ZM1166.35 56.92V58.92H1168.35V56.92H1166.35ZM1188.67 101.56L1188.87 103.549L1190.67 103.363V101.56H1188.67ZM1122.57 98.536L1121.16 99.9502L1122.57 98.536ZM1122.71 31.432L1124.13 32.8462L1122.71 31.432ZM1185.35 31.432L1183.92 32.8295L1183.94 32.8463L1183.96 32.8628L1185.35 31.432ZM1191.55 74.92V76.92H1193.55V74.92H1191.55ZM1141.87 74.92V72.92H1139.87V74.92H1141.87ZM1143.31 84.28L1144.72 82.8658L1143.31 84.28ZM1188.67 83.56H1190.67V81.3968L1188.51 81.5661L1188.67 83.56ZM1147.63 41.24C1145.4 41.24 1143.36 41.7984 1141.89 43.2658C1140.42 44.7331 1139.87 46.7717 1139.87 49H1143.87C1143.87 47.3883 1144.27 46.5469 1144.72 46.0942C1145.17 45.6416 1146.01 45.24 1147.63 45.24V41.24ZM1139.87 49V56.92H1143.87V49H1139.87ZM1141.87 58.92H1166.35V54.92H1141.87V58.92ZM1168.35 56.92V49H1164.35V56.92H1168.35ZM1168.35 49C1168.35 46.7717 1167.79 44.7331 1166.32 43.2658C1164.85 41.7984 1162.81 41.24 1160.59 41.24V45.24C1162.2 45.24 1163.04 45.6416 1163.49 46.0942C1163.94 46.5469 1164.35 47.3883 1164.35 49H1168.35ZM1160.59 41.24H1147.63V45.24H1160.59V41.24ZM1188.46 99.5706C1169.99 101.485 1153.26 102.44 1138.27 102.44V106.44C1153.42 106.44 1170.29 105.475 1188.87 103.549L1188.46 99.5706ZM1138.27 102.44C1132.17 102.44 1127.48 100.618 1123.98 97.1218L1121.16 99.9502C1125.53 104.326 1131.31 106.44 1138.27 106.44V102.44ZM1123.98 97.1218C1120.49 93.6254 1118.67 88.9364 1118.67 82.84H1114.67C1114.67 89.7996 1116.78 95.5746 1121.16 99.9502L1123.98 97.1218ZM1118.67 82.84V48.28H1114.67V82.84H1118.67ZM1118.67 48.28C1118.67 41.4637 1120.56 36.4108 1124.13 32.8462L1121.3 30.0178C1116.8 34.5172 1114.67 40.6963 1114.67 48.28H1118.67ZM1124.13 32.8462C1127.8 29.1769 1132.91 27.24 1139.71 27.24V23.24C1132.11 23.24 1125.89 25.4311 1121.3 30.0178L1124.13 32.8462ZM1139.71 27.24H1168.51V23.24H1139.71V27.24ZM1168.51 27.24C1175.31 27.24 1180.36 29.1775 1183.92 32.8295L1186.79 30.0345C1182.29 25.4305 1176.1 23.24 1168.51 23.24V27.24ZM1183.96 32.8628C1187.61 36.4298 1189.55 41.477 1189.55 48.28H1193.55C1193.55 40.683 1191.36 34.4982 1186.75 30.0012L1183.96 32.8628ZM1189.55 48.28V74.92H1193.55V48.28H1189.55ZM1191.55 72.92H1141.87V76.92H1191.55V72.92ZM1139.87 74.92V80.68H1143.87V74.92H1139.87ZM1139.87 80.68C1139.87 82.6147 1140.53 84.3346 1141.89 85.6942L1144.72 82.8658C1144.16 82.3054 1143.87 81.6253 1143.87 80.68H1139.87ZM1141.89 85.6942C1143.25 87.0538 1144.97 87.72 1146.91 87.72V83.72C1145.96 83.72 1145.28 83.4262 1144.72 82.8658L1141.89 85.6942ZM1146.91 87.72C1156.49 87.72 1170.47 86.9949 1188.82 85.5539L1188.51 81.5661C1170.19 83.0051 1156.33 83.72 1146.91 83.72V87.72ZM1186.67 83.56V101.56H1190.67V83.56H1186.67ZM1201.57 82.84L1201.72 80.8454L1199.57 80.6868V82.84H1201.57ZM1251.25 83.56L1252.66 84.9742L1251.25 83.56ZM1252.69 74.92H1254.69V72.92H1252.69V74.92ZM1206.03 69.016L1207.45 67.6018L1206.03 69.016ZM1206.03 32.584L1207.45 33.9982L1206.03 32.584ZM1270.69 26.68H1272.69V24.68H1270.69V26.68ZM1270.69 45.4V47.4H1272.69V45.4H1270.69ZM1226.77 46.84L1228.18 48.2542L1226.77 46.84ZM1226.77 54.04L1225.36 55.4542V55.4542L1226.77 54.04ZM1271.99 61.384L1273.4 59.9698L1271.99 61.384ZM1271.99 98.536L1273.4 99.9502L1271.99 98.536ZM1201.57 101.56H1199.57V103.373L1201.37 103.55L1201.57 101.56ZM1201.42 84.8346C1220.93 86.276 1236.35 87 1247.65 87V83C1236.49 83 1221.19 82.284 1201.72 80.8454L1201.42 84.8346ZM1247.65 87C1249.58 87 1251.3 86.3338 1252.66 84.9742L1249.84 82.1458C1249.28 82.7062 1248.6 83 1247.65 83V87ZM1252.66 84.9742C1254.02 83.6146 1254.69 81.8947 1254.69 79.96H1250.69C1250.69 80.9053 1250.4 81.5854 1249.84 82.1458L1252.66 84.9742ZM1254.69 79.96V74.92H1250.69V79.96H1254.69ZM1252.69 72.92H1221.73V76.92H1252.69V72.92ZM1221.73 72.92C1215.63 72.92 1210.94 71.0982 1207.45 67.6018L1204.62 70.4302C1209 74.8058 1214.77 76.92 1221.73 76.92V72.92ZM1207.45 67.6018C1203.95 64.1054 1202.13 59.4164 1202.13 53.32H1198.13C1198.13 60.2796 1200.24 66.0546 1204.62 70.4302L1207.45 67.6018ZM1202.13 53.32V48.28H1198.13V53.32H1202.13ZM1202.13 48.28C1202.13 42.1836 1203.95 37.4946 1207.45 33.9982L1204.62 31.1698C1200.24 35.5454 1198.13 41.3204 1198.13 48.28H1202.13ZM1207.45 33.9982C1210.94 30.5018 1215.63 28.68 1221.73 28.68V24.68C1214.77 24.68 1209 26.7942 1204.62 31.1698L1207.45 33.9982ZM1221.73 28.68H1270.69V24.68H1221.73V28.68ZM1268.69 26.68V45.4H1272.69V26.68H1268.69ZM1270.69 43.4H1230.37V47.4H1270.69V43.4ZM1230.37 43.4C1228.44 43.4 1226.72 44.0662 1225.36 45.4258L1228.18 48.2542C1228.74 47.6938 1229.42 47.4 1230.37 47.4V43.4ZM1225.36 45.4258C1224 46.7854 1223.33 48.5053 1223.33 50.44H1227.33C1227.33 49.4947 1227.62 48.8146 1228.18 48.2542L1225.36 45.4258ZM1223.33 50.44C1223.33 52.3747 1224 54.0946 1225.36 55.4542L1228.18 52.6258C1227.62 52.0654 1227.33 51.3853 1227.33 50.44H1223.33ZM1225.36 55.4542C1226.72 56.8138 1228.44 57.48 1230.37 57.48V53.48C1229.42 53.48 1228.74 53.1862 1228.18 52.6258L1225.36 55.4542ZM1230.37 57.48H1256.29V53.48H1230.37V57.48ZM1256.29 57.48C1262.39 57.48 1267.08 59.3018 1270.57 62.7982L1273.4 59.9698C1269.02 55.5942 1263.25 53.48 1256.29 53.48V57.48ZM1270.57 62.7982C1274.07 66.2946 1275.89 70.9836 1275.89 77.08H1279.89C1279.89 70.1204 1277.78 64.3454 1273.4 59.9698L1270.57 62.7982ZM1275.89 77.08V82.84H1279.89V77.08H1275.89ZM1275.89 82.84C1275.89 88.9364 1274.07 93.6254 1270.57 97.1218L1273.4 99.9502C1277.78 95.5746 1279.89 89.7996 1279.89 82.84H1275.89ZM1270.57 97.1218C1267.08 100.618 1262.39 102.44 1256.29 102.44V106.44C1263.25 106.44 1269.02 104.326 1273.4 99.9502L1270.57 97.1218ZM1256.29 102.44C1239.37 102.44 1221.2 101.484 1201.77 99.5696L1201.37 103.55C1220.92 105.476 1239.22 106.44 1256.29 106.44V102.44ZM1203.57 101.56V82.84H1199.57V101.56H1203.57Z" fill="white" fill-opacity="0.06"/>
</svg>
