<svg width="162" height="19" viewBox="0 0 162 19" fill="none" xmlns="http://www.w3.org/2000/svg">
<path d="M14.4 17.76C10.832 18.08 7.872 18.24 5.52 18.24C3.952 18.24 2.8 17.872 2.064 17.136C1.328 16.4 0.96 15.248 0.96 13.68V6C0.96 4.32 1.336 3.104 2.088 2.352C2.856 1.584 4.08 1.2 5.76 1.2H14.4V4.56H6.72C5.76 4.56 5.28 5.04 5.28 6V13.68C5.28 14.048 5.384 14.344 5.592 14.568C5.816 14.776 6.096 14.88 6.432 14.88C6.768 14.88 7.136 14.88 7.536 14.88C7.936 14.864 8.352 14.848 8.784 14.832C9.216 14.816 9.648 14.8 10.08 14.784C10.528 14.768 11.096 14.736 11.784 14.688C12.488 14.64 13.36 14.584 14.4 14.52V17.76ZM21.1228 14.88C21.9708 14.88 22.9308 14.72 24.0028 14.4V12.96H20.5228C20.2828 12.96 20.0828 13.04 19.9228 13.2C19.7628 13.36 19.6828 13.56 19.6828 13.8V14.04C19.6828 14.28 19.7628 14.48 19.9228 14.64C20.0828 14.8 20.2828 14.88 20.5228 14.88H21.1228ZM16.6828 5.52C19.6108 5.2 22.2508 5.04 24.6028 5.04C25.6908 5.04 26.5628 5.368 27.2188 6.024C27.8748 6.68 28.2028 7.552 28.2028 8.64V18H24.4828L24.2428 16.8C23.4908 17.296 22.7148 17.664 21.9148 17.904C21.1308 18.128 20.4668 18.24 19.9228 18.24H19.0828C17.9948 18.24 17.1228 17.912 16.4668 17.256C15.8108 16.6 15.4828 15.728 15.4828 14.64V13.56C15.4828 12.472 15.8108 11.6 16.4668 10.944C17.1228 10.288 17.9948 9.96 19.0828 9.96H24.0028V9C24.0028 8.76 23.9228 8.56 23.7628 8.4C23.6028 8.24 23.4028 8.16 23.1628 8.16C22.1228 8.16 20.9708 8.208 19.7068 8.304C18.4588 8.4 17.4508 8.472 16.6828 8.52V5.52ZM37.6763 8.76C36.6683 8.76 35.6283 9 34.5563 9.48V18H30.3563V5.28H34.0763L34.3163 6.84C35.6923 5.64 37.1323 5.04 38.6363 5.04H39.7163V8.76H37.6763ZM63.2306 8.64L59.8706 14.64H56.5106L53.1506 8.64V18H48.8306V1.2H53.3906L58.1906 10.08L62.9906 1.2H67.5506V18H63.2306V8.64ZM75.12 8.04C74.48 8.04 74.16 8.36 74.16 9V10.32H78.24V9C78.24 8.36 77.92 8.04 77.28 8.04H75.12ZM81.96 17.76C78.872 18.08 76.072 18.24 73.56 18.24C72.472 18.24 71.6 17.912 70.944 17.256C70.288 16.6 69.96 15.728 69.96 14.64V8.88C69.96 7.68 70.296 6.744 70.968 6.072C71.656 5.384 72.6 5.04 73.8 5.04H78.6C79.8 5.04 80.736 5.384 81.408 6.072C82.096 6.744 82.44 7.68 82.44 8.88V13.32H74.16V14.28C74.16 14.52 74.24 14.72 74.4 14.88C74.56 15.04 74.76 15.12 75 15.12C76.584 15.12 78.904 15 81.96 14.76V17.76ZM95.8706 17.76C92.8786 18.08 90.2386 18.24 87.9506 18.24C86.8626 18.24 85.9906 17.912 85.3346 17.256C84.6786 16.6 84.3506 15.728 84.3506 14.64V9.12C84.3506 7.92 84.6866 6.984 85.3586 6.312C86.0466 5.624 86.9906 5.28 88.1906 5.28H95.8706V8.52H89.5106C88.8706 8.52 88.5506 8.84 88.5506 9.48V14.16C88.5506 14.4 88.6306 14.6 88.7906 14.76C88.9506 14.92 89.1506 15 89.3906 15C90.8306 15 92.9906 14.88 95.8706 14.64V17.76ZM101.986 5.52C103.538 5.2 104.898 5.04 106.066 5.04H107.146C108.234 5.04 109.106 5.368 109.762 6.024C110.418 6.68 110.746 7.552 110.746 8.64V18H106.546V9.12C106.546 8.88 106.466 8.68 106.306 8.52C106.146 8.36 105.946 8.28 105.706 8.28H104.866C104.258 8.28 103.698 8.312 103.186 8.376C102.69 8.44 102.29 8.488 101.986 8.52V18H97.7859V1.2H101.986V5.52ZM117.943 14.88C118.791 14.88 119.751 14.72 120.823 14.4V12.96H117.343C117.103 12.96 116.903 13.04 116.743 13.2C116.583 13.36 116.503 13.56 116.503 13.8V14.04C116.503 14.28 116.583 14.48 116.743 14.64C116.903 14.8 117.103 14.88 117.343 14.88H117.943ZM113.503 5.52C116.431 5.2 119.071 5.04 121.423 5.04C122.511 5.04 123.383 5.368 124.039 6.024C124.695 6.68 125.023 7.552 125.023 8.64V18H121.303L121.063 16.8C120.311 17.296 119.535 17.664 118.735 17.904C117.951 18.128 117.287 18.24 116.743 18.24H115.903C114.815 18.24 113.943 17.912 113.287 17.256C112.631 16.6 112.303 15.728 112.303 14.64V13.56C112.303 12.472 112.631 11.6 113.287 10.944C113.943 10.288 114.815 9.96 115.903 9.96H120.823V9C120.823 8.76 120.743 8.56 120.583 8.4C120.423 8.24 120.223 8.16 119.983 8.16C118.943 8.16 117.791 8.208 116.527 8.304C115.279 8.4 114.271 8.472 113.503 8.52V5.52ZM134.257 8.52C133.409 8.52 132.449 8.68 131.377 9V18H127.177V5.28H130.897L131.137 6.48C131.889 5.984 132.657 5.624 133.441 5.4C134.241 5.16 134.913 5.04 135.457 5.04H136.537C137.625 5.04 138.497 5.368 139.153 6.024C139.809 6.68 140.137 7.552 140.137 8.64V18H135.937V9.36C135.937 9.12 135.857 8.92 135.697 8.76C135.537 8.6 135.337 8.52 135.097 8.52H134.257ZM147.574 5.76V18H143.374V9H141.574V5.76H147.574ZM143.374 0.959999H147.574V4.32H143.374V0.959999ZM161.261 17.76C158.269 18.08 155.629 18.24 153.341 18.24C152.253 18.24 151.381 17.912 150.725 17.256C150.069 16.6 149.741 15.728 149.741 14.64V9.12C149.741 7.92 150.077 6.984 150.749 6.312C151.437 5.624 152.381 5.28 153.581 5.28H161.261V8.52H154.901C154.261 8.52 153.941 8.84 153.941 9.48V14.16C153.941 14.4 154.021 14.6 154.181 14.76C154.341 14.92 154.541 15 154.781 15C156.221 15 158.381 14.88 161.261 14.64V17.76Z" fill="white"/>
<path d="M14.4 17.76C10.832 18.08 7.872 18.24 5.52 18.24C3.952 18.24 2.8 17.872 2.064 17.136C1.328 16.4 0.96 15.248 0.96 13.68V6C0.96 4.32 1.336 3.104 2.088 2.352C2.856 1.584 4.08 1.2 5.76 1.2H14.4V4.56H6.72C5.76 4.56 5.28 5.04 5.28 6V13.68C5.28 14.048 5.384 14.344 5.592 14.568C5.816 14.776 6.096 14.88 6.432 14.88C6.768 14.88 7.136 14.88 7.536 14.88C7.936 14.864 8.352 14.848 8.784 14.832C9.216 14.816 9.648 14.8 10.08 14.784C10.528 14.768 11.096 14.736 11.784 14.688C12.488 14.64 13.36 14.584 14.4 14.52V17.76ZM21.1228 14.88C21.9708 14.88 22.9308 14.72 24.0028 14.4V12.96H20.5228C20.2828 12.96 20.0828 13.04 19.9228 13.2C19.7628 13.36 19.6828 13.56 19.6828 13.8V14.04C19.6828 14.28 19.7628 14.48 19.9228 14.64C20.0828 14.8 20.2828 14.88 20.5228 14.88H21.1228ZM16.6828 5.52C19.6108 5.2 22.2508 5.04 24.6028 5.04C25.6908 5.04 26.5628 5.368 27.2188 6.024C27.8748 6.68 28.2028 7.552 28.2028 8.64V18H24.4828L24.2428 16.8C23.4908 17.296 22.7148 17.664 21.9148 17.904C21.1308 18.128 20.4668 18.24 19.9228 18.24H19.0828C17.9948 18.24 17.1228 17.912 16.4668 17.256C15.8108 16.6 15.4828 15.728 15.4828 14.64V13.56C15.4828 12.472 15.8108 11.6 16.4668 10.944C17.1228 10.288 17.9948 9.96 19.0828 9.96H24.0028V9C24.0028 8.76 23.9228 8.56 23.7628 8.4C23.6028 8.24 23.4028 8.16 23.1628 8.16C22.1228 8.16 20.9708 8.208 19.7068 8.304C18.4588 8.4 17.4508 8.472 16.6828 8.52V5.52ZM37.6763 8.76C36.6683 8.76 35.6283 9 34.5563 9.48V18H30.3563V5.28H34.0763L34.3163 6.84C35.6923 5.64 37.1323 5.04 38.6363 5.04H39.7163V8.76H37.6763ZM63.2306 8.64L59.8706 14.64H56.5106L53.1506 8.64V18H48.8306V1.2H53.3906L58.1906 10.08L62.9906 1.2H67.5506V18H63.2306V8.64ZM75.12 8.04C74.48 8.04 74.16 8.36 74.16 9V10.32H78.24V9C78.24 8.36 77.92 8.04 77.28 8.04H75.12ZM81.96 17.76C78.872 18.08 76.072 18.24 73.56 18.24C72.472 18.24 71.6 17.912 70.944 17.256C70.288 16.6 69.96 15.728 69.96 14.64V8.88C69.96 7.68 70.296 6.744 70.968 6.072C71.656 5.384 72.6 5.04 73.8 5.04H78.6C79.8 5.04 80.736 5.384 81.408 6.072C82.096 6.744 82.44 7.68 82.44 8.88V13.32H74.16V14.28C74.16 14.52 74.24 14.72 74.4 14.88C74.56 15.04 74.76 15.12 75 15.12C76.584 15.12 78.904 15 81.96 14.76V17.76ZM95.8706 17.76C92.8786 18.08 90.2386 18.24 87.9506 18.24C86.8626 18.24 85.9906 17.912 85.3346 17.256C84.6786 16.6 84.3506 15.728 84.3506 14.64V9.12C84.3506 7.92 84.6866 6.984 85.3586 6.312C86.0466 5.624 86.9906 5.28 88.1906 5.28H95.8706V8.52H89.5106C88.8706 8.52 88.5506 8.84 88.5506 9.48V14.16C88.5506 14.4 88.6306 14.6 88.7906 14.76C88.9506 14.92 89.1506 15 89.3906 15C90.8306 15 92.9906 14.88 95.8706 14.64V17.76ZM101.986 5.52C103.538 5.2 104.898 5.04 106.066 5.04H107.146C108.234 5.04 109.106 5.368 109.762 6.024C110.418 6.68 110.746 7.552 110.746 8.64V18H106.546V9.12C106.546 8.88 106.466 8.68 106.306 8.52C106.146 8.36 105.946 8.28 105.706 8.28H104.866C104.258 8.28 103.698 8.312 103.186 8.376C102.69 8.44 102.29 8.488 101.986 8.52V18H97.7859V1.2H101.986V5.52ZM117.943 14.88C118.791 14.88 119.751 14.72 120.823 14.4V12.96H117.343C117.103 12.96 116.903 13.04 116.743 13.2C116.583 13.36 116.503 13.56 116.503 13.8V14.04C116.503 14.28 116.583 14.48 116.743 14.64C116.903 14.8 117.103 14.88 117.343 14.88H117.943ZM113.503 5.52C116.431 5.2 119.071 5.04 121.423 5.04C122.511 5.04 123.383 5.368 124.039 6.024C124.695 6.68 125.023 7.552 125.023 8.64V18H121.303L121.063 16.8C120.311 17.296 119.535 17.664 118.735 17.904C117.951 18.128 117.287 18.24 116.743 18.24H115.903C114.815 18.24 113.943 17.912 113.287 17.256C112.631 16.6 112.303 15.728 112.303 14.64V13.56C112.303 12.472 112.631 11.6 113.287 10.944C113.943 10.288 114.815 9.96 115.903 9.96H120.823V9C120.823 8.76 120.743 8.56 120.583 8.4C120.423 8.24 120.223 8.16 119.983 8.16C118.943 8.16 117.791 8.208 116.527 8.304C115.279 8.4 114.271 8.472 113.503 8.52V5.52ZM134.257 8.52C133.409 8.52 132.449 8.68 131.377 9V18H127.177V5.28H130.897L131.137 6.48C131.889 5.984 132.657 5.624 133.441 5.4C134.241 5.16 134.913 5.04 135.457 5.04H136.537C137.625 5.04 138.497 5.368 139.153 6.024C139.809 6.68 140.137 7.552 140.137 8.64V18H135.937V9.36C135.937 9.12 135.857 8.92 135.697 8.76C135.537 8.6 135.337 8.52 135.097 8.52H134.257ZM147.574 5.76V18H143.374V9H141.574V5.76H147.574ZM143.374 0.959999H147.574V4.32H143.374V0.959999ZM161.261 17.76C158.269 18.08 155.629 18.24 153.341 18.24C152.253 18.24 151.381 17.912 150.725 17.256C150.069 16.6 149.741 15.728 149.741 14.64V9.12C149.741 7.92 150.077 6.984 150.749 6.312C151.437 5.624 152.381 5.28 153.581 5.28H161.261V8.52H154.901C154.261 8.52 153.941 8.84 153.941 9.48V14.16C153.941 14.4 154.021 14.6 154.181 14.76C154.341 14.92 154.541 15 154.781 15C156.221 15 158.381 14.88 161.261 14.64V17.76Z" fill="url(#paint0_linear_130_3304)"/>
<defs>
<linearGradient id="paint0_linear_130_3304" x1="3.5027" y1="5.44827" x2="151.979" y2="58.6609" gradientUnits="userSpaceOnUse">
<stop stop-color="#FF4B2A"/>
<stop offset="1" stop-color="#FF7551"/>
</linearGradient>
</defs>
</svg>
