<svg width="178" height="23" viewBox="0 0 178 23" fill="none" xmlns="http://www.w3.org/2000/svg">
<path d="M14.4 17.76C10.832 18.08 7.872 18.24 5.52 18.24C3.952 18.24 2.8 17.872 2.064 17.136C1.328 16.4 0.96 15.248 0.96 13.68V6C0.96 4.32 1.336 3.104 2.088 2.352C2.856 1.584 4.08 1.2 5.76 1.2H14.4V4.56H6.72C5.76 4.56 5.28 5.04 5.28 6V13.68C5.28 14.048 5.384 14.344 5.592 14.568C5.816 14.776 6.096 14.88 6.432 14.88C6.768 14.88 7.136 14.88 7.536 14.88C7.936 14.864 8.352 14.848 8.784 14.832C9.216 14.816 9.648 14.8 10.08 14.784C10.528 14.768 11.096 14.736 11.784 14.688C12.488 14.64 13.36 14.584 14.4 14.52V17.76ZM20.2828 5.52C21.8348 5.2 23.1948 5.04 24.3628 5.04H25.4428C26.5308 5.04 27.4028 5.368 28.0588 6.024C28.7148 6.68 29.0428 7.552 29.0428 8.64V18H24.8428V9.12C24.8428 8.88 24.7628 8.68 24.6028 8.52C24.4428 8.36 24.2428 8.28 24.0028 8.28H23.1628C22.5548 8.28 21.9948 8.312 21.4828 8.376C20.9868 8.44 20.5868 8.488 20.2828 8.52V18H16.0828V1.2H20.2828V5.52ZM36.24 14.88C37.088 14.88 38.048 14.72 39.12 14.4V12.96H35.64C35.4 12.96 35.2 13.04 35.04 13.2C34.88 13.36 34.8 13.56 34.8 13.8V14.04C34.8 14.28 34.88 14.48 35.04 14.64C35.2 14.8 35.4 14.88 35.64 14.88H36.24ZM31.8 5.52C34.728 5.2 37.368 5.04 39.72 5.04C40.808 5.04 41.68 5.368 42.336 6.024C42.992 6.68 43.32 7.552 43.32 8.64V18H39.6L39.36 16.8C38.608 17.296 37.832 17.664 37.032 17.904C36.248 18.128 35.584 18.24 35.04 18.24H34.2C33.112 18.24 32.24 17.912 31.584 17.256C30.928 16.6 30.6 15.728 30.6 14.64V13.56C30.6 12.472 30.928 11.6 31.584 10.944C32.24 10.288 33.112 9.96 34.2 9.96H39.12V9C39.12 8.76 39.04 8.56 38.88 8.4C38.72 8.24 38.52 8.16 38.28 8.16C37.24 8.16 36.088 8.208 34.824 8.304C33.576 8.4 32.568 8.472 31.8 8.52V5.52ZM52.5534 8.52C51.7054 8.52 50.7454 8.68 49.6734 9V18H45.4734V5.28H49.1934L49.4334 6.48C50.1854 5.984 50.9534 5.624 51.7374 5.4C52.5374 5.16 53.2094 5.04 53.7534 5.04H54.8334C55.9214 5.04 56.7934 5.368 57.4494 6.024C58.1054 6.68 58.4334 7.552 58.4334 8.64V18H54.2334V9.36C54.2334 9.12 54.1534 8.92 53.9934 8.76C53.8334 8.6 53.6334 8.52 53.3934 8.52H52.5534ZM68.8706 17.04C67.3186 17.36 65.9586 17.52 64.7906 17.52H63.9506C62.8626 17.52 61.9906 17.192 61.3346 16.536C60.6786 15.88 60.3506 15.008 60.3506 13.92V9.12C60.3506 7.92 60.6866 6.984 61.3586 6.312C62.0466 5.624 62.9906 5.28 64.1906 5.28H73.0706V18.72C73.0706 19.808 72.7426 20.68 72.0866 21.336C71.4306 21.992 70.5586 22.32 69.4706 22.32C66.9586 22.32 64.1586 22.16 61.0706 21.84V18.72C64.1266 18.96 66.4466 19.08 68.0306 19.08C68.2706 19.08 68.4706 19 68.6306 18.84C68.7906 18.68 68.8706 18.48 68.8706 18.24V17.04ZM65.9906 14.28C66.9986 14.28 67.9586 14.2 68.8706 14.04V8.52H65.5106C64.8706 8.52 64.5506 8.84 64.5506 9.48V13.44C64.5506 13.68 64.6306 13.88 64.7906 14.04C64.9506 14.2 65.1506 14.28 65.3906 14.28H65.9906ZM80.3934 8.04C79.7534 8.04 79.4334 8.36 79.4334 9V10.32H83.5134V9C83.5134 8.36 83.1934 8.04 82.5534 8.04H80.3934ZM87.2334 17.76C84.1454 18.08 81.3454 18.24 78.8334 18.24C77.7454 18.24 76.8734 17.912 76.2174 17.256C75.5614 16.6 75.2334 15.728 75.2334 14.64V8.88C75.2334 7.68 75.5694 6.744 76.2414 6.072C76.9294 5.384 77.8734 5.04 79.0734 5.04H83.8734C85.0734 5.04 86.0094 5.384 86.6814 6.072C87.3694 6.744 87.7134 7.68 87.7134 8.88V13.32H79.4334V14.28C79.4334 14.52 79.5134 14.72 79.6734 14.88C79.8334 15.04 80.0334 15.12 80.2734 15.12C81.8574 15.12 84.1774 15 87.2334 14.76V17.76ZM110.619 18H97.2994V1.2H110.619V4.56H101.619V7.8H108.699V11.16H101.619V14.64H110.619V18ZM119.374 8.52C118.526 8.52 117.566 8.68 116.494 9V18H112.294V5.28H116.014L116.254 6.48C117.006 5.984 117.774 5.624 118.558 5.4C119.358 5.16 120.03 5.04 120.574 5.04H121.654C122.742 5.04 123.614 5.368 124.27 6.024C124.926 6.68 125.254 7.552 125.254 8.64V18H121.054V9.36C121.054 9.12 120.974 8.92 120.814 8.76C120.654 8.6 120.454 8.52 120.214 8.52H119.374ZM135.691 17.04C134.139 17.36 132.779 17.52 131.611 17.52H130.771C129.683 17.52 128.811 17.192 128.155 16.536C127.499 15.88 127.171 15.008 127.171 13.92V9.12C127.171 7.92 127.507 6.984 128.179 6.312C128.867 5.624 129.811 5.28 131.011 5.28H139.891V18.72C139.891 19.808 139.563 20.68 138.907 21.336C138.251 21.992 137.379 22.32 136.291 22.32C133.779 22.32 130.979 22.16 127.891 21.84V18.72C130.947 18.96 133.267 19.08 134.851 19.08C135.091 19.08 135.291 19 135.451 18.84C135.611 18.68 135.691 18.48 135.691 18.24V17.04ZM132.811 14.28C133.819 14.28 134.779 14.2 135.691 14.04V8.52H132.331C131.691 8.52 131.371 8.84 131.371 9.48V13.44C131.371 13.68 131.451 13.88 131.611 14.04C131.771 14.2 131.971 14.28 132.211 14.28H132.811ZM147.574 5.76V18H143.374V9H141.574V5.76H147.574ZM143.374 0.959999H147.574V4.32H143.374V0.959999ZM157.061 8.52C156.213 8.52 155.253 8.68 154.181 9V18H149.981V5.28H153.701L153.941 6.48C154.693 5.984 155.461 5.624 156.245 5.4C157.045 5.16 157.717 5.04 158.261 5.04H159.341C160.429 5.04 161.301 5.368 161.957 6.024C162.613 6.68 162.941 7.552 162.941 8.64V18H158.741V9.36C158.741 9.12 158.661 8.92 158.501 8.76C158.341 8.6 158.141 8.52 157.901 8.52H157.061ZM170.018 8.04C169.378 8.04 169.058 8.36 169.058 9V10.32H173.138V9C173.138 8.36 172.818 8.04 172.178 8.04H170.018ZM176.858 17.76C173.77 18.08 170.97 18.24 168.458 18.24C167.37 18.24 166.498 17.912 165.842 17.256C165.186 16.6 164.858 15.728 164.858 14.64V8.88C164.858 7.68 165.194 6.744 165.866 6.072C166.554 5.384 167.498 5.04 168.698 5.04H173.498C174.698 5.04 175.634 5.384 176.306 6.072C176.994 6.744 177.338 7.68 177.338 8.88V13.32H169.058V14.28C169.058 14.52 169.138 14.72 169.298 14.88C169.458 15.04 169.658 15.12 169.898 15.12C171.482 15.12 173.802 15 176.858 14.76V17.76Z" fill="#FF4B2A"/>
<path d="M14.4 17.76C10.832 18.08 7.872 18.24 5.52 18.24C3.952 18.24 2.8 17.872 2.064 17.136C1.328 16.4 0.96 15.248 0.96 13.68V6C0.96 4.32 1.336 3.104 2.088 2.352C2.856 1.584 4.08 1.2 5.76 1.2H14.4V4.56H6.72C5.76 4.56 5.28 5.04 5.28 6V13.68C5.28 14.048 5.384 14.344 5.592 14.568C5.816 14.776 6.096 14.88 6.432 14.88C6.768 14.88 7.136 14.88 7.536 14.88C7.936 14.864 8.352 14.848 8.784 14.832C9.216 14.816 9.648 14.8 10.08 14.784C10.528 14.768 11.096 14.736 11.784 14.688C12.488 14.64 13.36 14.584 14.4 14.52V17.76ZM20.2828 5.52C21.8348 5.2 23.1948 5.04 24.3628 5.04H25.4428C26.5308 5.04 27.4028 5.368 28.0588 6.024C28.7148 6.68 29.0428 7.552 29.0428 8.64V18H24.8428V9.12C24.8428 8.88 24.7628 8.68 24.6028 8.52C24.4428 8.36 24.2428 8.28 24.0028 8.28H23.1628C22.5548 8.28 21.9948 8.312 21.4828 8.376C20.9868 8.44 20.5868 8.488 20.2828 8.52V18H16.0828V1.2H20.2828V5.52ZM36.24 14.88C37.088 14.88 38.048 14.72 39.12 14.4V12.96H35.64C35.4 12.96 35.2 13.04 35.04 13.2C34.88 13.36 34.8 13.56 34.8 13.8V14.04C34.8 14.28 34.88 14.48 35.04 14.64C35.2 14.8 35.4 14.88 35.64 14.88H36.24ZM31.8 5.52C34.728 5.2 37.368 5.04 39.72 5.04C40.808 5.04 41.68 5.368 42.336 6.024C42.992 6.68 43.32 7.552 43.32 8.64V18H39.6L39.36 16.8C38.608 17.296 37.832 17.664 37.032 17.904C36.248 18.128 35.584 18.24 35.04 18.24H34.2C33.112 18.24 32.24 17.912 31.584 17.256C30.928 16.6 30.6 15.728 30.6 14.64V13.56C30.6 12.472 30.928 11.6 31.584 10.944C32.24 10.288 33.112 9.96 34.2 9.96H39.12V9C39.12 8.76 39.04 8.56 38.88 8.4C38.72 8.24 38.52 8.16 38.28 8.16C37.24 8.16 36.088 8.208 34.824 8.304C33.576 8.4 32.568 8.472 31.8 8.52V5.52ZM52.5534 8.52C51.7054 8.52 50.7454 8.68 49.6734 9V18H45.4734V5.28H49.1934L49.4334 6.48C50.1854 5.984 50.9534 5.624 51.7374 5.4C52.5374 5.16 53.2094 5.04 53.7534 5.04H54.8334C55.9214 5.04 56.7934 5.368 57.4494 6.024C58.1054 6.68 58.4334 7.552 58.4334 8.64V18H54.2334V9.36C54.2334 9.12 54.1534 8.92 53.9934 8.76C53.8334 8.6 53.6334 8.52 53.3934 8.52H52.5534ZM68.8706 17.04C67.3186 17.36 65.9586 17.52 64.7906 17.52H63.9506C62.8626 17.52 61.9906 17.192 61.3346 16.536C60.6786 15.88 60.3506 15.008 60.3506 13.92V9.12C60.3506 7.92 60.6866 6.984 61.3586 6.312C62.0466 5.624 62.9906 5.28 64.1906 5.28H73.0706V18.72C73.0706 19.808 72.7426 20.68 72.0866 21.336C71.4306 21.992 70.5586 22.32 69.4706 22.32C66.9586 22.32 64.1586 22.16 61.0706 21.84V18.72C64.1266 18.96 66.4466 19.08 68.0306 19.08C68.2706 19.08 68.4706 19 68.6306 18.84C68.7906 18.68 68.8706 18.48 68.8706 18.24V17.04ZM65.9906 14.28C66.9986 14.28 67.9586 14.2 68.8706 14.04V8.52H65.5106C64.8706 8.52 64.5506 8.84 64.5506 9.48V13.44C64.5506 13.68 64.6306 13.88 64.7906 14.04C64.9506 14.2 65.1506 14.28 65.3906 14.28H65.9906ZM80.3934 8.04C79.7534 8.04 79.4334 8.36 79.4334 9V10.32H83.5134V9C83.5134 8.36 83.1934 8.04 82.5534 8.04H80.3934ZM87.2334 17.76C84.1454 18.08 81.3454 18.24 78.8334 18.24C77.7454 18.24 76.8734 17.912 76.2174 17.256C75.5614 16.6 75.2334 15.728 75.2334 14.64V8.88C75.2334 7.68 75.5694 6.744 76.2414 6.072C76.9294 5.384 77.8734 5.04 79.0734 5.04H83.8734C85.0734 5.04 86.0094 5.384 86.6814 6.072C87.3694 6.744 87.7134 7.68 87.7134 8.88V13.32H79.4334V14.28C79.4334 14.52 79.5134 14.72 79.6734 14.88C79.8334 15.04 80.0334 15.12 80.2734 15.12C81.8574 15.12 84.1774 15 87.2334 14.76V17.76ZM110.619 18H97.2994V1.2H110.619V4.56H101.619V7.8H108.699V11.16H101.619V14.64H110.619V18ZM119.374 8.52C118.526 8.52 117.566 8.68 116.494 9V18H112.294V5.28H116.014L116.254 6.48C117.006 5.984 117.774 5.624 118.558 5.4C119.358 5.16 120.03 5.04 120.574 5.04H121.654C122.742 5.04 123.614 5.368 124.27 6.024C124.926 6.68 125.254 7.552 125.254 8.64V18H121.054V9.36C121.054 9.12 120.974 8.92 120.814 8.76C120.654 8.6 120.454 8.52 120.214 8.52H119.374ZM135.691 17.04C134.139 17.36 132.779 17.52 131.611 17.52H130.771C129.683 17.52 128.811 17.192 128.155 16.536C127.499 15.88 127.171 15.008 127.171 13.92V9.12C127.171 7.92 127.507 6.984 128.179 6.312C128.867 5.624 129.811 5.28 131.011 5.28H139.891V18.72C139.891 19.808 139.563 20.68 138.907 21.336C138.251 21.992 137.379 22.32 136.291 22.32C133.779 22.32 130.979 22.16 127.891 21.84V18.72C130.947 18.96 133.267 19.08 134.851 19.08C135.091 19.08 135.291 19 135.451 18.84C135.611 18.68 135.691 18.48 135.691 18.24V17.04ZM132.811 14.28C133.819 14.28 134.779 14.2 135.691 14.04V8.52H132.331C131.691 8.52 131.371 8.84 131.371 9.48V13.44C131.371 13.68 131.451 13.88 131.611 14.04C131.771 14.2 131.971 14.28 132.211 14.28H132.811ZM147.574 5.76V18H143.374V9H141.574V5.76H147.574ZM143.374 0.959999H147.574V4.32H143.374V0.959999ZM157.061 8.52C156.213 8.52 155.253 8.68 154.181 9V18H149.981V5.28H153.701L153.941 6.48C154.693 5.984 155.461 5.624 156.245 5.4C157.045 5.16 157.717 5.04 158.261 5.04H159.341C160.429 5.04 161.301 5.368 161.957 6.024C162.613 6.68 162.941 7.552 162.941 8.64V18H158.741V9.36C158.741 9.12 158.661 8.92 158.501 8.76C158.341 8.6 158.141 8.52 157.901 8.52H157.061ZM170.018 8.04C169.378 8.04 169.058 8.36 169.058 9V10.32H173.138V9C173.138 8.36 172.818 8.04 172.178 8.04H170.018ZM176.858 17.76C173.77 18.08 170.97 18.24 168.458 18.24C167.37 18.24 166.498 17.912 165.842 17.256C165.186 16.6 164.858 15.728 164.858 14.64V8.88C164.858 7.68 165.194 6.744 165.866 6.072C166.554 5.384 167.498 5.04 168.698 5.04H173.498C174.698 5.04 175.634 5.384 176.306 6.072C176.994 6.744 177.338 7.68 177.338 8.88V13.32H169.058V14.28C169.058 14.52 169.138 14.72 169.298 14.88C169.458 15.04 169.658 15.12 169.898 15.12C171.482 15.12 173.802 15 176.858 14.76V17.76Z" fill="url(#paint0_linear_130_3288)"/>
<defs>
<linearGradient id="paint0_linear_130_3288" x1="3.87027" y1="5.44827" x2="163.904" y2="68.8216" gradientUnits="userSpaceOnUse">
<stop stop-color="#FF4B2A"/>
<stop offset="1" stop-color="#FF7551"/>
</linearGradient>
</defs>
</svg>
