<svg width="243" height="243" viewBox="0 0 243 243" fill="none" xmlns="http://www.w3.org/2000/svg">
<path d="M121.499 17.6761C140.904 17.6761 159.804 23.2201 176.435 33.2997C192.563 43.1277 205.414 57.4925 213.984 74.3761C214.235 75.132 214.74 75.8878 214.991 76.6437C218.519 83.6997 221.04 91.2597 222.803 98.8201C224.567 106.127 225.323 113.941 225.323 121.499C225.323 138.132 221.291 154.511 213.73 169.379C204.91 186.514 191.554 200.628 175.174 210.456C172.402 212.221 169.63 213.732 166.607 214.991C159.3 218.52 151.739 221.293 144.179 222.804C136.872 224.569 129.058 225.325 121.5 225.325C102.095 225.325 83.1953 219.781 66.5638 209.701C50.4358 199.873 37.5847 185.508 29.0154 168.625C28.764 167.869 28.2595 167.113 28.0081 166.357C24.4784 159.299 21.7063 151.739 20.1948 144.179C18.4299 136.872 17.6741 129.058 17.6741 121.5C17.6741 104.867 21.7065 88.4884 29.267 73.6199C38.0879 56.4848 51.4434 42.3715 67.8229 32.5435C70.595 30.7786 73.3669 29.2669 76.3905 28.0084C83.6994 24.4787 91.2598 21.7066 98.8203 20.195C106.127 18.4319 113.939 17.6761 121.499 17.6761M121.499 8.09961C105.12 8.09961 88.2345 11.6275 72.6114 19.1881C69.3349 20.6998 66.3114 22.4646 63.2879 24.2276C44.8923 35.3161 30.5274 50.9392 20.9528 69.0836C12.635 85.2116 8.09985 103.356 8.09985 121.5C8.09985 137.879 11.6278 154.764 19.1883 170.64C19.6928 171.395 19.9442 172.404 20.4487 173.16C30.2767 192.06 44.6398 207.179 61.5233 217.765C79.4162 228.851 100.332 234.9 121.499 234.9C137.878 234.9 154.764 231.372 170.387 223.811C173.664 222.3 176.687 220.535 179.711 218.772C198.106 207.683 212.471 192.06 222.046 173.916C230.364 157.788 234.899 139.644 234.899 121.5C234.899 105.121 231.371 88.235 223.81 72.3599C223.306 71.604 223.055 70.595 222.55 69.8392C212.722 50.9392 198.359 35.8201 181.475 25.2347C163.582 14.1481 142.666 8.09961 121.499 8.09961V8.09961Z" fill="#FF5E3C" fill-opacity="0.36"/>
<circle cx="121.5" cy="25.6494" r="4.5" fill="#FF5E3C"/>
<circle cx="121.5" cy="213.301" r="4.5" fill="#FF5E3C"/>
<g opacity="0.5">
<circle cx="145.784" cy="28.8465" r="2.25" transform="rotate(15 145.784 28.8465)" fill="#FF5E3C"/>
<circle cx="97.216" cy="210.102" r="2.25" transform="rotate(15 97.216 210.102)" fill="#FF5E3C"/>
<circle cx="168.412" cy="38.22" r="2.25" transform="rotate(30 168.412 38.22)" fill="#FF5E3C"/>
<circle cx="74.588" cy="200.73" r="2.25" transform="rotate(30 74.588 200.73)" fill="#FF5E3C"/>
<circle cx="187.844" cy="53.1302" r="2.25" transform="rotate(45 187.844 53.1302)" fill="#FF5E3C"/>
<circle cx="55.1555" cy="185.82" r="2.25" transform="rotate(45 55.1555 185.82)" fill="#FF5E3C"/>
<circle cx="202.755" cy="72.5618" r="2.25" transform="rotate(60 202.755 72.5618)" fill="#FF5E3C"/>
<circle cx="40.245" cy="166.387" r="2.25" transform="rotate(60 40.245 166.387)" fill="#FF5E3C"/>
<circle cx="212.128" cy="95.1912" r="2.25" transform="rotate(75 212.128 95.1912)" fill="#FF5E3C"/>
<circle cx="30.8714" cy="143.759" r="2.25" transform="rotate(75 30.8714 143.759)" fill="#FF5E3C"/>
</g>
<g opacity="0.5">
<circle cx="212.129" cy="143.758" r="2.25" transform="rotate(105 212.129 143.758)" fill="#FF5E3C"/>
<circle cx="30.8725" cy="95.1906" r="2.25" transform="rotate(105 30.8725 95.1906)" fill="#FF5E3C"/>
<circle cx="202.755" cy="166.388" r="2.25" transform="rotate(120 202.755 166.388)" fill="#FF5E3C"/>
<circle cx="40.2453" cy="72.5628" r="2.25" transform="rotate(120 40.2453 72.5628)" fill="#FF5E3C"/>
<circle cx="187.844" cy="185.818" r="2.25" transform="rotate(135 187.844 185.818)" fill="#FF5E3C"/>
<circle cx="55.1559" cy="53.1299" r="2.25" transform="rotate(135 55.1559 53.1299)" fill="#FF5E3C"/>
<circle cx="168.413" cy="200.73" r="2.25" transform="rotate(150 168.413 200.73)" fill="#FF5E3C"/>
<circle cx="74.5876" cy="38.2204" r="2.25" transform="rotate(150 74.5876 38.2204)" fill="#FF5E3C"/>
<circle cx="145.784" cy="210.103" r="2.25" transform="rotate(165 145.784 210.103)" fill="#FF5E3C"/>
<circle cx="97.216" cy="28.848" r="2.25" transform="rotate(165 97.216 28.848)" fill="#FF5E3C"/>
</g>
<circle cx="215.325" cy="119.476" r="4.5" transform="rotate(90 215.325 119.476)" fill="#FF5E3C"/>
<circle cx="27.6748" cy="119.476" r="4.5" transform="rotate(90 27.6748 119.476)" fill="#FF5E3C"/>
<path d="M115.031 82.912V105.15H112.338V85.7352H112.208L106.779 89.3403V86.6039L112.338 82.912H115.031ZM128.68 105.454C127.044 105.454 125.651 105.009 124.5 104.119C123.349 103.221 122.469 101.922 121.861 100.221C121.253 98.5122 120.949 96.449 120.949 94.0312C120.949 91.6278 121.253 89.5756 121.861 87.8744C122.477 86.166 123.36 84.8629 124.511 83.9653C125.669 83.0604 127.059 82.608 128.68 82.608C130.302 82.608 131.688 83.0604 132.839 83.9653C133.998 84.8629 134.881 86.166 135.489 87.8744C136.104 89.5756 136.412 91.6278 136.412 94.0312C136.412 96.449 136.108 98.5122 135.5 100.221C134.892 101.922 134.012 103.221 132.861 104.119C131.71 105.009 130.317 105.454 128.68 105.454ZM128.68 103.066C130.302 103.066 131.562 102.284 132.459 100.72C133.357 99.1564 133.806 96.9268 133.806 94.0312C133.806 92.1056 133.599 90.466 133.187 89.1123C132.781 87.7585 132.195 86.727 131.428 86.0176C130.668 85.3081 129.752 84.9534 128.68 84.9534C127.073 84.9534 125.817 85.7461 124.913 87.3314C124.008 88.9096 123.555 91.1428 123.555 94.0312C123.555 95.9568 123.758 97.5928 124.163 98.9393C124.569 100.286 125.151 101.31 125.912 102.012C126.679 102.714 127.602 103.066 128.68 103.066Z" fill="#FF5E3C"/>
<path d="M101.628 151.55V145.295H103.741C104.23 145.295 104.631 145.379 104.945 145.546C105.258 145.711 105.49 145.938 105.641 146.227C105.792 146.516 105.867 146.845 105.867 147.213C105.867 147.582 105.792 147.908 105.641 148.193C105.49 148.479 105.259 148.702 104.948 148.865C104.636 149.026 104.238 149.107 103.754 149.107H102.043V148.423H103.729C104.063 148.423 104.332 148.374 104.535 148.276C104.741 148.178 104.89 148.04 104.981 147.861C105.075 147.679 105.122 147.464 105.122 147.213C105.122 146.963 105.075 146.744 104.981 146.557C104.888 146.369 104.738 146.225 104.532 146.123C104.327 146.019 104.055 145.967 103.717 145.967H102.385V151.55H101.628ZM104.572 148.74L106.111 151.55H105.232L103.717 148.74H104.572ZM108.948 151.648C108.496 151.648 108.106 151.548 107.778 151.348C107.452 151.147 107.201 150.866 107.024 150.505C106.848 150.143 106.761 149.721 106.761 149.241C106.761 148.761 106.848 148.337 107.024 147.971C107.201 147.602 107.447 147.315 107.763 147.109C108.08 146.902 108.451 146.798 108.874 146.798C109.119 146.798 109.36 146.839 109.598 146.92C109.836 147.001 110.053 147.134 110.249 147.317C110.444 147.498 110.6 147.738 110.716 148.038C110.832 148.337 110.89 148.706 110.89 149.143V149.449H107.274V148.826H110.157C110.157 148.561 110.104 148.325 109.998 148.117C109.894 147.909 109.746 147.746 109.552 147.625C109.361 147.505 109.135 147.445 108.874 147.445C108.587 147.445 108.339 147.517 108.129 147.659C107.921 147.8 107.762 147.983 107.65 148.209C107.538 148.435 107.482 148.677 107.482 148.936V149.351C107.482 149.705 107.543 150.006 107.665 150.252C107.789 150.496 107.961 150.682 108.181 150.811C108.401 150.937 108.656 151 108.948 151C109.137 151 109.308 150.974 109.461 150.921C109.615 150.866 109.749 150.784 109.861 150.676C109.973 150.566 110.059 150.43 110.12 150.267L110.817 150.463C110.743 150.699 110.62 150.906 110.447 151.086C110.274 151.263 110.06 151.401 109.806 151.501C109.551 151.599 109.265 151.648 108.948 151.648ZM111.986 151.55V146.859H112.683V147.592H112.744C112.841 147.341 112.999 147.147 113.217 147.009C113.435 146.868 113.697 146.798 114.002 146.798C114.311 146.798 114.569 146.868 114.775 147.009C114.982 147.147 115.144 147.341 115.26 147.592H115.309C115.429 147.35 115.609 147.157 115.85 147.015C116.09 146.87 116.378 146.798 116.714 146.798C117.133 146.798 117.476 146.929 117.743 147.192C118.01 147.452 118.143 147.859 118.143 148.41V151.55H117.422V148.41C117.422 148.064 117.328 147.817 117.138 147.668C116.949 147.52 116.726 147.445 116.47 147.445C116.14 147.445 115.884 147.545 115.703 147.745C115.522 147.942 115.431 148.192 115.431 148.496V151.55H114.698V148.337C114.698 148.07 114.612 147.856 114.439 147.693C114.266 147.528 114.043 147.445 113.77 147.445C113.583 147.445 113.407 147.495 113.245 147.595C113.084 147.695 112.953 147.833 112.854 148.01C112.756 148.185 112.707 148.388 112.707 148.618V151.55H111.986ZM120.841 151.66C120.544 151.66 120.274 151.604 120.032 151.492C119.79 151.378 119.597 151.214 119.455 151C119.312 150.784 119.241 150.524 119.241 150.218C119.241 149.95 119.294 149.732 119.4 149.565C119.506 149.396 119.647 149.263 119.824 149.168C120.001 149.072 120.197 149.001 120.411 148.954C120.627 148.905 120.843 148.866 121.061 148.838C121.346 148.801 121.577 148.774 121.754 148.755C121.934 148.735 122.064 148.701 122.145 148.655C122.229 148.608 122.271 148.526 122.271 148.41V148.386C122.271 148.085 122.188 147.85 122.023 147.683C121.86 147.517 121.613 147.433 121.281 147.433C120.937 147.433 120.667 147.508 120.472 147.659C120.276 147.81 120.139 147.971 120.059 148.142L119.375 147.897C119.498 147.612 119.66 147.39 119.864 147.231C120.07 147.071 120.294 146.959 120.536 146.896C120.78 146.83 121.02 146.798 121.257 146.798C121.407 146.798 121.58 146.816 121.776 146.853C121.973 146.887 122.164 146.96 122.347 147.07C122.532 147.18 122.686 147.345 122.808 147.567C122.93 147.789 122.991 148.087 122.991 148.459V151.55H122.271V150.915H122.234C122.185 151.016 122.104 151.125 121.99 151.241C121.876 151.357 121.724 151.456 121.535 151.538C121.345 151.619 121.114 151.66 120.841 151.66ZM120.951 151.012C121.236 151.012 121.477 150.956 121.672 150.844C121.869 150.732 122.018 150.588 122.118 150.411C122.22 150.234 122.271 150.047 122.271 149.852V149.192C122.24 149.229 122.173 149.262 122.069 149.293C121.967 149.321 121.849 149.347 121.715 149.369C121.582 149.39 121.453 149.408 121.327 149.424C121.203 149.438 121.102 149.451 121.025 149.461C120.837 149.485 120.662 149.525 120.499 149.58C120.338 149.633 120.208 149.713 120.108 149.821C120.011 149.927 119.962 150.072 119.962 150.255C119.962 150.505 120.054 150.695 120.24 150.823C120.427 150.949 120.664 151.012 120.951 151.012ZM124.307 151.55V146.859H125.028V151.55H124.307ZM124.673 146.077C124.533 146.077 124.412 146.029 124.31 145.934C124.21 145.838 124.16 145.723 124.16 145.588C124.16 145.454 124.21 145.339 124.31 145.243C124.412 145.148 124.533 145.1 124.673 145.1C124.814 145.1 124.934 145.148 125.034 145.243C125.135 145.339 125.186 145.454 125.186 145.588C125.186 145.723 125.135 145.838 125.034 145.934C124.934 146.029 124.814 146.077 124.673 146.077ZM127.068 148.728V151.55H126.348V146.859H127.044V147.592H127.105C127.215 147.354 127.382 147.162 127.606 147.018C127.83 146.871 128.119 146.798 128.473 146.798C128.791 146.798 129.069 146.863 129.307 146.993C129.545 147.122 129.73 147.317 129.863 147.58C129.995 147.84 130.061 148.17 130.061 148.569V151.55H129.341V148.618C129.341 148.249 129.245 147.962 129.053 147.757C128.862 147.549 128.599 147.445 128.266 147.445C128.035 147.445 127.83 147.495 127.649 147.595C127.469 147.695 127.328 147.84 127.224 148.032C127.12 148.223 127.068 148.455 127.068 148.728ZM131.378 151.55V146.859H132.099V151.55H131.378ZM131.745 146.077C131.604 146.077 131.483 146.029 131.381 145.934C131.282 145.838 131.232 145.723 131.232 145.588C131.232 145.454 131.282 145.339 131.381 145.243C131.483 145.148 131.604 145.1 131.745 145.1C131.885 145.1 132.005 145.148 132.105 145.243C132.207 145.339 132.258 145.454 132.258 145.588C132.258 145.723 132.207 145.838 132.105 145.934C132.005 146.029 131.885 146.077 131.745 146.077ZM134.14 148.728V151.55H133.419V146.859H134.115V147.592H134.177C134.286 147.354 134.453 147.162 134.677 147.018C134.901 146.871 135.19 146.798 135.545 146.798C135.862 146.798 136.14 146.863 136.378 146.993C136.617 147.122 136.802 147.317 136.934 147.58C137.067 147.84 137.133 148.17 137.133 148.569V151.55H136.412V148.618C136.412 148.249 136.316 147.962 136.125 147.757C135.934 147.549 135.671 147.445 135.337 147.445C135.107 147.445 134.901 147.495 134.72 147.595C134.541 147.695 134.399 147.84 134.296 148.032C134.192 148.223 134.14 148.455 134.14 148.728ZM140.343 153.407C139.995 153.407 139.696 153.362 139.445 153.272C139.195 153.185 138.986 153.069 138.819 152.924C138.654 152.782 138.523 152.629 138.425 152.466L138.999 152.063C139.065 152.148 139.147 152.246 139.247 152.356C139.347 152.468 139.483 152.565 139.656 152.646C139.831 152.73 140.06 152.771 140.343 152.771C140.722 152.771 141.034 152.68 141.281 152.497C141.527 152.313 141.65 152.026 141.65 151.635V150.682H141.589C141.536 150.768 141.461 150.874 141.363 151C141.268 151.124 141.129 151.235 140.948 151.333C140.769 151.429 140.526 151.477 140.221 151.477C139.842 151.477 139.502 151.387 139.201 151.208C138.902 151.029 138.665 150.768 138.489 150.426C138.316 150.084 138.23 149.669 138.23 149.18C138.23 148.699 138.314 148.281 138.483 147.925C138.652 147.566 138.888 147.29 139.189 147.094C139.49 146.897 139.838 146.798 140.233 146.798C140.539 146.798 140.781 146.849 140.96 146.951C141.141 147.05 141.28 147.164 141.375 147.293C141.473 147.419 141.549 147.523 141.601 147.604H141.675V146.859H142.371V151.684C142.371 152.087 142.279 152.415 142.096 152.668C141.915 152.922 141.671 153.108 141.363 153.226C141.058 153.347 140.718 153.407 140.343 153.407ZM140.319 150.829C140.608 150.829 140.852 150.763 141.052 150.631C141.251 150.498 141.403 150.308 141.507 150.059C141.611 149.811 141.663 149.514 141.663 149.168C141.663 148.83 141.612 148.531 141.51 148.273C141.408 148.014 141.257 147.812 141.058 147.665C140.858 147.519 140.612 147.445 140.319 147.445C140.013 147.445 139.759 147.523 139.555 147.677C139.354 147.832 139.202 148.04 139.1 148.3C139.001 148.561 138.951 148.85 138.951 149.168C138.951 149.493 139.002 149.782 139.103 150.032C139.207 150.28 139.36 150.476 139.561 150.618C139.765 150.759 140.017 150.829 140.319 150.829Z" fill="#FF5E3C"/>
<path d="M164.289 123.286C164.263 123.07 164.16 122.902 163.978 122.783C163.796 122.664 163.573 122.604 163.309 122.604C163.116 122.604 162.947 122.635 162.802 122.698C162.658 122.76 162.546 122.846 162.465 122.956C162.385 123.065 162.346 123.189 162.346 123.328C162.346 123.445 162.373 123.545 162.429 123.629C162.486 123.711 162.558 123.78 162.646 123.836C162.734 123.89 162.827 123.934 162.923 123.97C163.02 124.004 163.109 124.032 163.189 124.053L163.633 124.172C163.746 124.202 163.873 124.243 164.012 124.296C164.153 124.348 164.287 124.42 164.415 124.511C164.544 124.6 164.65 124.716 164.734 124.856C164.818 124.997 164.86 125.169 164.86 125.374C164.86 125.61 164.798 125.823 164.675 126.013C164.552 126.203 164.373 126.355 164.138 126.467C163.903 126.579 163.618 126.635 163.283 126.635C162.971 126.635 162.7 126.585 162.471 126.484C162.244 126.383 162.065 126.243 161.935 126.062C161.805 125.882 161.732 125.672 161.715 125.434H162.26C162.275 125.598 162.33 125.735 162.427 125.843C162.525 125.949 162.648 126.029 162.797 126.081C162.948 126.132 163.11 126.158 163.283 126.158C163.485 126.158 163.666 126.125 163.827 126.06C163.987 125.993 164.114 125.901 164.208 125.783C164.302 125.664 164.349 125.525 164.349 125.365C164.349 125.221 164.308 125.103 164.227 125.012C164.146 124.921 164.04 124.847 163.908 124.79C163.775 124.733 163.633 124.684 163.479 124.641L162.942 124.488C162.601 124.39 162.332 124.25 162.133 124.068C161.934 123.886 161.834 123.648 161.834 123.354C161.834 123.11 161.9 122.897 162.033 122.715C162.166 122.532 162.345 122.39 162.569 122.289C162.795 122.186 163.047 122.135 163.326 122.135C163.607 122.135 163.857 122.186 164.076 122.287C164.295 122.386 164.468 122.522 164.596 122.696C164.725 122.869 164.793 123.066 164.8 123.286H164.289ZM167.033 126.627C166.717 126.627 166.445 126.557 166.217 126.418C165.989 126.277 165.814 126.081 165.69 125.83C165.568 125.577 165.507 125.283 165.507 124.948C165.507 124.613 165.568 124.317 165.69 124.061C165.814 123.804 165.986 123.604 166.206 123.461C166.428 123.316 166.686 123.243 166.982 123.243C167.152 123.243 167.32 123.272 167.487 123.328C167.653 123.385 167.804 123.478 167.94 123.605C168.077 123.732 168.185 123.9 168.266 124.108C168.347 124.317 168.388 124.574 168.388 124.88V125.093H165.865V124.658H167.876C167.876 124.473 167.84 124.309 167.766 124.164C167.693 124.019 167.59 123.904 167.455 123.821C167.321 123.737 167.163 123.695 166.982 123.695C166.781 123.695 166.608 123.745 166.462 123.844C166.317 123.942 166.205 124.07 166.127 124.228C166.049 124.385 166.01 124.554 166.01 124.735V125.025C166.01 125.272 166.053 125.481 166.138 125.653C166.224 125.824 166.344 125.953 166.498 126.043C166.651 126.131 166.83 126.175 167.033 126.175C167.165 126.175 167.284 126.157 167.391 126.12C167.499 126.081 167.592 126.025 167.67 125.949C167.748 125.873 167.808 125.777 167.851 125.664L168.337 125.8C168.286 125.965 168.2 126.11 168.079 126.235C167.958 126.358 167.809 126.455 167.631 126.525C167.454 126.593 167.254 126.627 167.033 126.627ZM170.482 126.627C170.175 126.627 169.911 126.554 169.69 126.409C169.468 126.265 169.298 126.065 169.178 125.811C169.059 125.556 168.999 125.266 168.999 124.939C168.999 124.607 169.06 124.314 169.183 124.059C169.306 123.804 169.478 123.604 169.698 123.461C169.92 123.316 170.178 123.243 170.474 123.243C170.704 123.243 170.911 123.286 171.096 123.371C171.281 123.456 171.432 123.576 171.55 123.729C171.668 123.882 171.741 124.061 171.769 124.266H171.266C171.228 124.117 171.143 123.985 171.011 123.87C170.88 123.753 170.704 123.695 170.482 123.695C170.286 123.695 170.114 123.746 169.967 123.848C169.82 123.949 169.706 124.092 169.624 124.277C169.543 124.46 169.502 124.675 169.502 124.922C169.502 125.175 169.542 125.395 169.621 125.583C169.702 125.77 169.816 125.916 169.962 126.02C170.11 126.123 170.283 126.175 170.482 126.175C170.613 126.175 170.732 126.152 170.838 126.107C170.945 126.061 171.035 125.996 171.109 125.911C171.183 125.826 171.235 125.723 171.266 125.604H171.769C171.741 125.797 171.67 125.971 171.558 126.126C171.447 126.279 171.3 126.402 171.117 126.493C170.935 126.582 170.724 126.627 170.482 126.627Z" fill="#FF5E3C"/>
<path fillRule="evenodd" clipRule="evenodd" d="M219.226 193.693C234.668 172.79 243 147.488 243 121.5H238.5C238.5 186.117 186.117 238.5 121.5 238.5C56.8827 238.5 4.50005 186.117 4.50005 121.5C4.50005 56.8825 56.8827 4.49978 121.5 4.49978C136.738 4.49978 151.296 7.41295 164.647 12.7128L166.295 8.559C142.138 -1.02213 115.545 -2.60535 90.4224 4.04181C65.2994 10.689 42.9695 25.2163 26.7119 45.4904C10.4542 65.7646 1.1255 90.7174 0.0955074 116.684C-0.934482 142.652 6.38856 168.265 20.9893 189.763C35.59 211.261 56.6991 227.512 81.2167 236.128C105.734 244.744 132.369 245.272 157.209 237.634C182.048 229.997 203.785 214.596 219.226 193.693Z" fill="#FF5E3C"/>
<circle cx="164.826" cy="10.3607" r="4.7093" fill="#FF5E3C"/>
</svg>
