<svg width="141" height="19" viewBox="0 0 141 19" fill="none" xmlns="http://www.w3.org/2000/svg">
<path d="M4.76 18H0.44V1.2H13.76V4.56H4.76V8.52H11.84V11.88H4.76V18ZM20.48 5.76V18H16.28V9H14.48V5.76H20.48ZM16.28 0.959999H20.48V4.32H16.28V0.959999ZM30.3275 5.28H35.0075L31.1675 11.64L35.1275 18H30.4475L28.2875 14.16L26.1275 18H21.4475L25.4075 11.64L21.5675 5.28H26.2475L28.2875 9.12L30.3275 5.28ZM51.6781 18H47.3581V4.56H42.3181V1.2H56.7181V4.56H51.6781V18ZM62.3609 5.52C63.9129 5.2 65.2729 5.04 66.4409 5.04H67.5209C68.6089 5.04 69.4809 5.368 70.1369 6.024C70.7929 6.68 71.1209 7.552 71.1209 8.64V18H66.9209V9.12C66.9209 8.88 66.8409 8.68 66.6809 8.52C66.5209 8.36 66.3209 8.28 66.0809 8.28H65.2409C64.6329 8.28 64.0729 8.312 63.5609 8.376C63.0649 8.44 62.6649 8.488 62.3609 8.52V18H58.1609V1.2H62.3609V5.52ZM78.1981 8.04C77.5581 8.04 77.2381 8.36 77.2381 9V10.32H81.3181V9C81.3181 8.36 80.9981 8.04 80.3581 8.04H78.1981ZM85.0381 17.76C81.9501 18.08 79.1501 18.24 76.6381 18.24C75.5501 18.24 74.6781 17.912 74.0221 17.256C73.3661 16.6 73.0381 15.728 73.0381 14.64V8.88C73.0381 7.68 73.3741 6.744 74.0461 6.072C74.7341 5.384 75.6781 5.04 76.8781 5.04H81.6781C82.8781 5.04 83.8141 5.384 84.4861 6.072C85.1741 6.744 85.5181 7.68 85.5181 8.88V13.32H77.2381V14.28C77.2381 14.52 77.3181 14.72 77.4781 14.88C77.6381 15.04 77.8381 15.12 78.0781 15.12C79.6621 15.12 81.9821 15 85.0381 14.76V17.76ZM103.264 18H98.9441V4.56H93.9041V1.2H108.304V4.56H103.264V18ZM115.027 5.76V18H110.827V9H109.027V5.76H115.027ZM110.827 0.959999H115.027V4.32H110.827V0.959999ZM124.754 8.76C123.746 8.76 122.706 9 121.634 9.48V18H117.434V5.28H121.154L121.394 6.84C122.77 5.64 124.21 5.04 125.714 5.04H126.794V8.76H124.754ZM132.925 8.04C132.285 8.04 131.965 8.36 131.965 9V10.32H136.045V9C136.045 8.36 135.725 8.04 135.085 8.04H132.925ZM139.765 17.76C136.677 18.08 133.877 18.24 131.365 18.24C130.277 18.24 129.405 17.912 128.749 17.256C128.093 16.6 127.765 15.728 127.765 14.64V8.88C127.765 7.68 128.101 6.744 128.773 6.072C129.461 5.384 130.405 5.04 131.605 5.04H136.405C137.605 5.04 138.541 5.384 139.213 6.072C139.901 6.744 140.245 7.68 140.245 8.88V13.32H131.965V14.28C131.965 14.52 132.045 14.72 132.205 14.88C132.365 15.04 132.565 15.12 132.805 15.12C134.389 15.12 136.709 15 139.765 14.76V17.76Z" fill="white"/>
<path d="M4.76 18H0.44V1.2H13.76V4.56H4.76V8.52H11.84V11.88H4.76V18ZM20.48 5.76V18H16.28V9H14.48V5.76H20.48ZM16.28 0.959999H20.48V4.32H16.28V0.959999ZM30.3275 5.28H35.0075L31.1675 11.64L35.1275 18H30.4475L28.2875 14.16L26.1275 18H21.4475L25.4075 11.64L21.5675 5.28H26.2475L28.2875 9.12L30.3275 5.28ZM51.6781 18H47.3581V4.56H42.3181V1.2H56.7181V4.56H51.6781V18ZM62.3609 5.52C63.9129 5.2 65.2729 5.04 66.4409 5.04H67.5209C68.6089 5.04 69.4809 5.368 70.1369 6.024C70.7929 6.68 71.1209 7.552 71.1209 8.64V18H66.9209V9.12C66.9209 8.88 66.8409 8.68 66.6809 8.52C66.5209 8.36 66.3209 8.28 66.0809 8.28H65.2409C64.6329 8.28 64.0729 8.312 63.5609 8.376C63.0649 8.44 62.6649 8.488 62.3609 8.52V18H58.1609V1.2H62.3609V5.52ZM78.1981 8.04C77.5581 8.04 77.2381 8.36 77.2381 9V10.32H81.3181V9C81.3181 8.36 80.9981 8.04 80.3581 8.04H78.1981ZM85.0381 17.76C81.9501 18.08 79.1501 18.24 76.6381 18.24C75.5501 18.24 74.6781 17.912 74.0221 17.256C73.3661 16.6 73.0381 15.728 73.0381 14.64V8.88C73.0381 7.68 73.3741 6.744 74.0461 6.072C74.7341 5.384 75.6781 5.04 76.8781 5.04H81.6781C82.8781 5.04 83.8141 5.384 84.4861 6.072C85.1741 6.744 85.5181 7.68 85.5181 8.88V13.32H77.2381V14.28C77.2381 14.52 77.3181 14.72 77.4781 14.88C77.6381 15.04 77.8381 15.12 78.0781 15.12C79.6621 15.12 81.9821 15 85.0381 14.76V17.76ZM103.264 18H98.9441V4.56H93.9041V1.2H108.304V4.56H103.264V18ZM115.027 5.76V18H110.827V9H109.027V5.76H115.027ZM110.827 0.959999H115.027V4.32H110.827V0.959999ZM124.754 8.76C123.746 8.76 122.706 9 121.634 9.48V18H117.434V5.28H121.154L121.394 6.84C122.77 5.64 124.21 5.04 125.714 5.04H126.794V8.76H124.754ZM132.925 8.04C132.285 8.04 131.965 8.36 131.965 9V10.32H136.045V9C136.045 8.36 135.725 8.04 135.085 8.04H132.925ZM139.765 17.76C136.677 18.08 133.877 18.24 131.365 18.24C130.277 18.24 129.405 17.912 128.749 17.256C128.093 16.6 127.765 15.728 127.765 14.64V8.88C127.765 7.68 128.101 6.744 128.773 6.072C129.461 5.384 130.405 5.04 131.605 5.04H136.405C137.605 5.04 138.541 5.384 139.213 6.072C139.901 6.744 140.245 7.68 140.245 8.88V13.32H131.965V14.28C131.965 14.52 132.045 14.72 132.205 14.88C132.365 15.04 132.565 15.12 132.805 15.12C134.389 15.12 136.709 15 139.765 14.76V17.76Z" fill="url(#paint0_linear_130_3301)"/>
<defs>
<linearGradient id="paint0_linear_130_3301" x1="2.09189" y1="5.44827" x2="136.533" y2="47.9799" gradientUnits="userSpaceOnUse">
<stop stop-color="#FF4B2A"/>
<stop offset="1" stop-color="#FF7551"/>
</linearGradient>
</defs>
</svg>
