<svg width="76" height="76" viewBox="0 0 76 76" fill="none" xmlns="http://www.w3.org/2000/svg">
<circle cx="38" cy="38" r="38" fill="#D9D9D9"/>
<circle cx="38" cy="38" r="38" fill="url(#paint0_linear_587_1052)"/>
<path d="M25.4447 21.0009C25.1503 21.0151 24.8775 21.1588 24.6989 21.3934C22.3051 24.4016 21 28.1324 21 31.9769C21 35.8215 22.3049 39.5535 24.6989 42.5618C24.8602 42.78 25.1035 42.9234 25.373 42.9588C25.6422 42.9943 25.9142 42.9187 26.1269 42.7496C26.3392 42.5802 26.4739 42.3319 26.4996 42.0616C26.5253 41.7912 26.4399 41.522 26.2633 41.3159C24.1507 38.6612 23.0018 35.3696 23.0018 31.9766C23.0018 28.5843 24.151 25.2882 26.2633 22.6337C26.5135 22.3285 26.5607 21.9044 26.3838 21.5518C26.2072 21.1989 25.8392 20.9829 25.445 21.0011L25.4447 21.0009ZM50.5192 21.0009C50.1314 20.9973 49.7762 21.2182 49.6085 21.5681C49.4408 21.918 49.4905 22.3331 49.7363 22.6336C51.8486 25.2882 52.9997 28.5843 52.9997 31.9764C52.9997 35.3693 51.8489 38.6609 49.7363 41.3157C49.416 41.7487 49.4961 42.3575 49.9174 42.6931C50.3387 43.0288 50.9499 42.9704 51.3003 42.5617C53.6944 39.5533 54.9993 35.8212 54.9993 31.9768C54.9993 28.1325 53.6939 24.4017 51.3003 21.3933C51.1142 21.1495 50.8261 21.0047 50.5191 21.0008L50.5192 21.0009ZM28.9137 23.282C28.6205 23.2884 28.3448 23.4235 28.1601 23.6511C26.1907 25.9785 25.1056 28.9278 25.1056 31.9769C25.1056 35.026 26.1904 37.977 28.1601 40.3041C28.3261 40.5226 28.575 40.6629 28.8478 40.6925C29.1207 40.7221 29.3938 40.6381 29.603 40.4604C29.812 40.2826 29.939 40.0268 29.9537 39.7526C29.9685 39.4786 29.87 39.2105 29.6814 39.0113C28.0169 37.0446 27.1055 34.5532 27.1055 31.9766C27.1055 29.4004 28.0173 26.9028 29.6814 24.9362C29.939 24.6385 29.9981 24.2177 29.8324 23.8606C29.6669 23.5038 29.3073 23.2773 28.9137 23.282ZM47.049 23.282C46.6606 23.2887 46.3116 23.5194 46.1534 23.874C45.995 24.2286 46.0563 24.6427 46.3108 24.9362C47.975 26.9028 48.8867 29.4004 48.8867 31.9766C48.8867 34.5532 47.9752 37.0446 46.3108 39.0112C45.9537 39.4334 46.0064 40.065 46.4288 40.4221C46.8512 40.7792 47.4829 40.7262 47.84 40.3041C49.8097 37.9767 50.8886 35.0255 50.8886 31.9769C50.8886 28.9283 49.8095 25.9788 47.84 23.6511C47.6466 23.4134 47.355 23.2773 47.049 23.282ZM43.3166 25.774H43.3169C43.2842 25.7735 43.2516 25.7749 43.2189 25.7777C42.8308 25.8103 42.4972 26.0656 42.3638 26.4316C42.2304 26.7977 42.3219 27.2078 42.5981 27.4826C43.7699 28.6839 44.4281 30.2983 44.4281 31.9764C44.4281 33.6554 43.771 35.263 42.5981 36.4644C42.4126 36.6541 42.3105 36.9099 42.3136 37.175C42.3169 37.4403 42.4254 37.6933 42.6152 37.8786C42.8052 38.0638 43.061 38.166 43.326 38.1626C43.5914 38.1593 43.8444 38.0507 44.0294 37.8607C45.5664 36.2864 46.4296 34.1766 46.4296 31.9764C46.4296 29.7774 45.565 27.6603 44.0294 26.0862C43.8439 25.8901 43.5866 25.7774 43.3165 25.7737L43.3166 25.774ZM32.6474 25.7779L32.6477 25.7777C32.3877 25.7874 32.1416 25.8982 31.9622 26.0862C30.4266 27.6603 29.5698 29.7774 29.5698 31.9764C29.5698 34.1766 30.433 36.2864 31.97 37.8608H31.9697C32.1494 38.0725 32.4091 38.2 32.6864 38.2128C32.9637 38.2254 33.2338 38.1222 33.4321 37.9277C33.6305 37.7333 33.7388 37.4651 33.7315 37.1878C33.7242 36.9102 33.6018 36.6483 33.3936 36.4644C32.2207 35.2631 31.5715 33.6555 31.5715 31.9765C31.5715 30.2983 32.2218 28.684 33.3936 27.4827C33.6838 27.1917 33.7661 26.7525 33.6015 26.3762C33.4366 25.9995 33.0583 25.7621 32.6476 25.778L32.6474 25.7779ZM38.0005 28.0278C35.831 28.0278 34.0496 29.8072 34.0496 31.9767C34.0496 33.7968 35.3099 35.3286 36.9947 35.7791V42.1555H34.9949V42.1553C34.7284 42.1541 34.4726 42.2596 34.284 42.4482C34.0954 42.6365 33.9902 42.8927 33.9913 43.1591V54.004C33.9921 54.2693 34.0984 54.5232 34.2868 54.7098C34.4751 54.8968 34.7298 55.0011 34.9949 55H41.0045C41.5535 54.998 41.9982 54.5533 42.0002 54.004V43.1591C42.0013 42.8938 41.8969 42.6391 41.7103 42.4507C41.5234 42.2627 41.2695 42.1564 41.0044 42.1553H38.9968V35.7808C40.6856 35.333 41.9497 33.7996 41.9497 31.9763C41.9497 29.8069 40.1703 28.0274 38.0008 28.0274L38.0005 28.0278ZM38.0005 30.0218C39.0891 30.0218 39.9476 30.888 39.9476 31.9767C39.9476 33.0653 39.0891 33.9257 38.0005 33.9257C36.9119 33.9257 36.0514 33.0653 36.0514 31.9767C36.0514 30.888 36.9119 30.0218 38.0005 30.0218ZM35.9909 44.1571H40.0003V49.479H35.9909V44.1571ZM35.9909 51.4787H40.0003V52.9981H35.9909V51.4787Z" fill="white"/>
<defs>
<linearGradient id="paint0_linear_587_1052" x1="1.64324" y1="23.5862" x2="80.0246" y2="27.7479" gradientUnits="userSpaceOnUse">
<stop stop-color="#FF4B2A"/>
<stop offset="1" stop-color="#FF7551"/>
</linearGradient>
</defs>
</svg>
