<svg width="76" height="76" viewBox="0 0 76 76" fill="none" xmlns="http://www.w3.org/2000/svg">
<circle cx="38" cy="38" r="38" fill="#D9D9D9"/>
<circle cx="38" cy="38" r="38" fill="url(#paint0_linear_587_1043)"/>
<path d="M37.4514 34.1611C36.2417 34.1611 35.2578 35.145 35.2578 36.3547C35.2578 37.5643 36.2417 38.5482 37.4514 38.5482C38.661 38.5482 39.6449 37.5643 39.6449 36.3547C39.6449 35.145 38.661 34.1611 37.4514 34.1611ZM37.4514 37.4515C36.8464 37.4515 36.3546 36.9596 36.3546 36.3547C36.3546 35.7497 36.8464 35.2579 37.4514 35.2579C38.0563 35.2579 38.5481 35.7497 38.5481 36.3547C38.5481 36.9596 38.0563 37.4515 37.4514 37.4515Z" fill="white"/>
<path d="M30.8707 48.969C31.7778 48.969 32.5159 48.2309 32.5159 47.3239C32.5159 46.4168 31.7778 45.6787 30.8707 45.6787C29.9637 45.6787 29.2256 46.4168 29.2256 47.3239C29.2256 48.2309 29.9637 48.969 30.8707 48.969ZM30.8707 46.7755C31.1733 46.7755 31.4191 47.0218 31.4191 47.3239C31.4191 47.626 31.1733 47.8723 30.8707 47.8723C30.5682 47.8723 30.3224 47.626 30.3224 47.3239C30.3224 47.0218 30.5682 46.7755 30.8707 46.7755Z" fill="white"/>
<path d="M45.1295 45.677C46.0366 45.677 46.7747 44.9389 46.7747 44.0319C46.7747 43.1248 46.0366 42.3867 45.1295 42.3867C44.2225 42.3867 43.4844 43.1248 43.4844 44.0319C43.4844 44.9389 44.2225 45.677 45.1295 45.677ZM45.1295 43.4835C45.4321 43.4835 45.6779 43.7298 45.6779 44.0319C45.6779 44.334 45.4321 44.5803 45.1295 44.5803C44.8269 44.5803 44.5811 44.334 44.5811 44.0319C44.5811 43.7298 44.8269 43.4835 45.1295 43.4835Z" fill="white"/>
<path d="M22.8057 29.3868L23.628 28.5645L24.4036 29.34L23.5812 30.1624L22.8057 29.3868Z" fill="white"/>
<path d="M28.5635 23.629L29.3858 22.8066L30.1614 23.5822L29.3391 24.4045L28.5635 23.629Z" fill="white"/>
<path d="M53.8696 27.3201L48.679 22.1296C47.9509 21.4015 46.982 21 45.9515 21C44.921 21 43.9521 21.4015 43.2233 22.1303L43.096 22.2576C42.8815 22.4721 42.8815 22.8187 43.096 23.0329L43.3117 23.2484L41.184 26.1499L41.1296 26.0956C41.0271 25.993 40.8878 25.9355 40.7418 25.9355H35.258C35.1121 25.9355 34.9728 25.993 34.8702 26.0961L34.8158 26.1504L32.6882 23.2484L32.9036 23.0329C33.1181 22.8185 33.1181 22.4718 32.9036 22.2576L32.7763 22.1303C32.0477 21.4015 31.0787 21 30.0483 21C29.0179 21 28.0489 21.4015 27.3201 22.1303L22.1296 27.3209C21.4007 28.0489 21 29.0179 21 30.0484C21 31.0789 21.4008 32.0478 22.1303 32.7766L22.2576 32.9039C22.3643 33.0106 22.5049 33.0645 22.6451 33.0645C22.7854 33.0645 22.926 33.0106 23.0329 32.9039L23.2484 32.6882L30.7108 38.1606L29.1222 41.8387H27.0322C26.1251 41.8387 25.387 42.5768 25.387 43.4839V52.2581C25.387 53.1651 26.1251 53.9032 27.0322 53.9032H32.0685C32.2955 54.54 32.8987 55 33.6128 55C34.3267 55 34.93 54.54 35.1572 53.9032H36.4564C36.6833 54.54 37.2865 55 38.0007 55C38.7146 55 39.3178 54.54 39.545 53.9032H40.8442C41.0712 54.54 41.6744 55 42.3885 55C43.1024 55 43.7057 54.54 43.9329 53.9032H45.2321C45.459 54.54 46.0622 55 46.7764 55C47.4903 55 48.0935 54.54 48.3207 53.9032H48.9677C49.8748 53.9032 50.6129 53.1651 50.6129 52.2581V43.4839C50.6129 42.5768 49.8748 41.8387 48.9677 41.8387H48.2746C48.2061 41.741 48.1336 41.6463 48.057 41.5557L48.0587 41.5547L45.4654 38.0318L52.7517 32.6882L52.9672 32.9036C53.0741 33.0106 53.2147 33.0645 53.3549 33.0645C53.4952 33.0645 53.6358 33.0106 53.7427 32.9039L53.87 32.7766C54.5994 32.0478 55.0001 31.0788 55.0001 30.0484C55.0001 29.018 54.5993 28.049 53.8698 27.3202L53.8696 27.3201ZM47.6439 27.5806L46.7741 28.4504L43.3608 25.0367L44.0968 24.0332L47.6439 27.5806ZM42.7045 25.9316L45.9987 29.2258L45.1289 30.0956L41.9686 26.9353L42.7045 25.9316ZM45.129 41.2902C46.641 41.2902 47.8709 42.5201 47.8709 44.0321C47.8709 45.5441 46.641 46.774 45.129 46.774C43.617 46.774 42.387 45.5441 42.387 44.0321C42.387 42.5201 43.617 41.2902 45.129 41.2902ZM45.129 40.1934C44.2521 40.1934 43.4454 40.4923 42.7983 40.989L42.7951 40.9846L42.7124 41.0532C42.6965 41.0664 42.6805 41.0796 42.6641 41.0933L34.6896 47.7153C34.7029 47.5858 34.7095 47.4553 34.7095 47.3226C34.7095 45.206 32.987 43.4839 30.8708 43.4839C30.3848 43.4839 29.9221 43.5782 29.4937 43.7434L32.1269 37.6458C32.7101 40.0477 34.873 41.8388 37.4514 41.8388C40.4467 41.8388 42.8853 39.4242 42.9309 36.4394L45.7331 40.2457C45.5357 40.2144 45.335 40.1936 45.1289 40.1936L45.129 40.1934ZM30.8709 44.5805C32.3829 44.5805 33.6128 45.8104 33.6128 47.3224C33.6128 48.8344 32.3829 50.0644 30.8709 50.0644C29.3589 50.0644 28.129 48.8344 28.129 47.3224C28.129 45.8104 29.3589 44.5805 30.8709 44.5805ZM35.258 49.516H36.3548V52.8063H35.258V49.516ZM30.8709 31.6461L31.7407 32.5159L28.8338 35.4229L27.8303 34.687L30.8709 31.6461ZM26.9352 34.0311L25.9317 33.2952L29.2257 30.001L30.0956 30.8708L26.9352 34.0311ZM31.6462 30.8707L34.6876 27.8294L35.4235 28.8329L32.516 31.7406L31.6462 30.8707ZM36.0796 29.728L36.9367 30.8972C35.5503 31.0272 34.316 31.6777 33.4226 32.6476L33.2914 32.5159L36.0796 29.728ZM41.8387 36.3544C41.8387 38.7734 39.8706 40.7415 37.4516 40.7415C35.0325 40.7415 33.0645 38.7734 33.0645 36.3544C33.0645 33.9353 35.0325 31.9673 37.4516 31.9673C39.8706 31.9673 41.8387 33.9353 41.8387 36.3544ZM41.9704 33.2538C41.2513 32.2096 40.1798 31.4294 38.9295 31.0783L39.9205 29.7272L42.7084 32.5156L41.9704 33.2538ZM40.5764 28.8326L41.3123 27.8291L44.3536 30.8704L43.4838 31.7403L40.5764 28.8326ZM45.129 31.6458L48.1699 34.6867L47.1664 35.4226L44.2592 32.5157L45.129 31.6458ZM45.9043 30.8705L46.7742 30.0007L50.0684 33.2949L49.0649 34.0308L45.9043 30.8705ZM35.485 27.0318H40.5147L40.5275 27.0445L38 30.4915L35.4725 27.045L35.485 27.0318ZM30.8709 30.0952L30.0011 29.2253L33.2953 25.9311L34.0312 26.9346L30.8709 30.0952ZM32.639 25.0363L29.2258 28.45L28.3559 27.5802L31.9035 24.0326L32.639 25.0363ZM22.0968 30.0479C22.0968 29.3103 22.3837 28.6172 22.9057 28.095L28.0962 22.9045C28.6177 22.3837 29.3108 22.0963 30.0484 22.0963C30.6614 22.0963 31.245 22.2948 31.7236 22.6616L22.6617 31.7234C22.295 31.2448 22.0965 30.6619 22.0965 30.0482L22.0968 30.0479ZM27.5807 28.3555L28.4505 29.2253L25.0373 32.6391L24.0338 31.9032L27.5807 28.3555ZM29.7282 36.0793L32.5162 33.2911L32.758 33.533C32.5754 33.8356 32.4219 34.157 32.2995 34.4936L32.2946 34.4914L31.1567 37.1264L29.7282 36.0793ZM26.4839 52.2577V43.4835C26.4839 43.1814 26.7297 42.9351 27.0323 42.9351H28.6483L27.6585 45.2268C27.2644 45.8295 27.0323 46.549 27.0323 47.3222C27.0323 49.4388 28.7548 51.1609 30.871 51.1609C31.2522 51.1609 31.6201 51.1034 31.9678 50.9991V52.8061H27.0323C26.7297 52.8061 26.4839 52.5598 26.4839 52.2577H26.4839ZM33.6129 53.9028C33.3103 53.9028 33.0646 53.6565 33.0646 53.3544V50.4678C33.1583 50.4019 33.2494 50.3334 33.337 50.2599L33.3387 50.2621L34.1613 49.5793V53.3544C34.1613 53.6565 33.9155 53.9027 33.6129 53.9027L33.6129 53.9028ZM38 53.9028C37.6974 53.9028 37.4517 53.6565 37.4517 53.3544V49.5157H38.5484V53.3544C38.5484 53.6565 38.3026 53.9028 38 53.9028ZM39.6452 49.5157H40.742V52.8061H39.6452V49.5157ZM42.3871 53.9028C42.0845 53.9028 41.8387 53.6565 41.8387 53.3544V49.5157H42.9355V53.3544C42.9355 53.6565 42.6897 53.9028 42.3871 53.9028ZM44.0323 49.5157H45.1291V52.8061H44.0323V49.5157ZM46.7742 53.9028C46.4716 53.9028 46.2258 53.6565 46.2258 53.3544V49.5157H47.3226V53.3544C47.3226 53.6565 47.0768 53.9028 46.7742 53.9028ZM48.9678 52.8061H48.4194V49.5157H49.5162V52.2577C49.5162 52.5598 49.2704 52.8061 48.9678 52.8061ZM48.9678 42.9351C49.2704 42.9351 49.5162 43.1814 49.5162 43.4835V48.419H35.5589L41.3104 43.6431C41.2972 43.7709 41.2906 43.9009 41.2906 44.0319C41.2906 46.1485 43.0131 47.8706 45.1293 47.8706C47.2455 47.8706 48.968 46.1485 48.968 44.0319C48.968 43.6507 48.9105 43.2827 48.8062 42.9351L48.9678 42.9351ZM42.6153 34.1596L43.4839 33.2908L46.2718 36.0787L44.8154 37.1471L42.6153 34.1596ZM50.9627 32.6388L47.5494 29.2251L48.4193 28.3552L51.9662 31.9022L50.9627 32.6388ZM53.3378 31.723L44.276 22.6611C44.7546 22.2944 45.3382 22.0958 45.9512 22.0958C46.6889 22.0958 47.3819 22.3832 47.9041 22.9047L53.0947 28.0952C53.6159 28.6167 53.9028 29.3098 53.9028 30.0474C53.9028 30.6611 53.7043 31.2441 53.3376 31.7226L53.3378 31.723Z" fill="white"/>
<path d="M51.5957 29.34L52.3713 28.5645L53.1936 29.3868L52.418 30.1624L51.5957 29.34Z" fill="white"/>
<path d="M45.8379 23.5822L46.6135 22.8066L47.4358 23.629L46.6602 24.4045L45.8379 23.5822Z" fill="white"/>
<defs>
<linearGradient id="paint0_linear_587_1043" x1="1.64324" y1="23.5862" x2="80.0246" y2="27.7479" gradientUnits="userSpaceOnUse">
<stop stop-color="#FF4B2A"/>
<stop offset="1" stop-color="#FF7551"/>
</linearGradient>
</defs>
</svg>
