<svg width="76" height="76" viewBox="0 0 76 76" fill="none" xmlns="http://www.w3.org/2000/svg">
<circle cx="38" cy="38" r="38" fill="#D9D9D9"/>
<circle cx="38" cy="38" r="38" fill="url(#paint0_linear_587_1046)"/>
<path d="M20.2502 48.6262C20.2502 48.6262 20.2502 48.6262 20.2502 48.6262C21.6976 48.6262 22.8751 47.4488 22.8751 46.0013C22.8751 44.9579 22.2576 44.0138 21.3013 43.5959C21.3005 43.5956 21.2997 43.5955 21.2989 43.5953V43.5953C21.2981 43.5951 21.2974 43.5945 21.2967 43.5942C21.2778 43.5859 21.2587 43.5783 21.2393 43.5714C21.0999 43.521 21 43.3984 21 43.2501V41.5011C21 41.087 20.6648 40.751 20.2499 40.751C19.8351 40.751 19.4998 41.087 19.4998 41.5011V43.2555C19.4998 43.4004 19.4024 43.5208 19.2657 43.5691C19.2447 43.5766 19.2238 43.5847 19.2032 43.5936C19.2024 43.5939 19.2016 43.594 19.2008 43.5942V43.5942C19.2001 43.5944 19.1994 43.595 19.1987 43.5953C18.2425 44.0137 17.625 44.9575 17.625 46.0011C17.625 47.4488 18.8025 48.6262 20.2502 48.6262C20.2502 48.6262 20.2502 48.6262 20.2502 48.6262V48.6262ZM20.2502 47.1261C19.6299 47.1261 19.1252 46.6213 19.1252 46.0011C19.1252 45.5534 19.3905 45.1484 19.7999 44.9699C19.8001 44.9698 19.8001 44.9698 19.8003 44.9697V44.9697C19.8008 44.9696 19.8012 44.9688 19.8017 44.9686C20.085 44.846 20.4152 44.8461 20.6984 44.9689C20.6986 44.9689 20.6986 44.969 20.6988 44.969V44.969C20.6993 44.9691 20.6997 44.9699 20.7002 44.9701C21.1098 45.1488 21.3752 45.5536 21.3752 46.0011C21.3752 46.6213 20.8704 47.1261 20.2502 47.1261H20.2502Z" fill="white"/>
<path d="M57.7498 34.7499H56.2499C55.0094 34.7499 53.9999 35.7594 53.9999 36.9999V39.25C53.9999 39.6642 53.6641 40 53.2499 40V40C52.8358 40 52.5 39.6642 52.5 39.25V35.5V35.5C52.5 34.8492 51.7499 34.2223 51.7499 33.5715V30.2499C51.7499 29.4227 51.0772 28.75 50.25 28.75H48.7501C47.9229 28.75 47.2502 29.4227 47.2502 30.2499V32.4999C47.2502 33.7425 46.2428 34.7499 45.0002 34.7499V34.7499C43.7576 34.7499 42.7502 33.7425 42.7502 32.4999V32.4999L42.7499 30.2499C42.7499 29.4227 42.0772 28.75 41.25 28.75H39.7501C38.923 28.75 38.2502 29.4227 38.2502 30.2499V33.9998C38.2502 34.4141 37.9144 34.7499 37.5001 34.7499V34.7499C37.3007 34.7499 37.1102 34.8287 36.9698 34.9696L33.2199 38.7195C33.0787 38.8599 32.9999 39.0513 32.9999 39.2499V39.2499C32.9999 39.6641 32.6641 40 32.2499 40V40C31.8358 40 31.5121 39.6549 31.3763 39.2637C31.0706 38.3836 30.2328 37.75 29.25 37.75C28.0095 37.75 27 38.7594 27 40V45.9999C27 47.2404 28.0095 48.2499 29.25 48.2499C30.2328 48.2499 31.0706 47.6163 31.3763 46.7361C31.5121 46.3449 31.8358 45.9999 32.2499 45.9999V45.9999C32.6641 45.9999 32.9999 46.3358 32.9999 46.7499V46.7499C32.9999 46.9486 33.0787 47.1399 33.2196 47.2803L36.9695 51.0302C37.1099 51.1711 37.3005 51.2499 37.4999 51.2499H51.75C52.1649 51.2499 52.5001 50.9139 52.5001 50.4998V46.7498C52.5001 46.3356 52.8359 45.9999 53.2501 45.9999V45.9999C53.6643 45.9999 54 46.3356 54 46.7498V48.2499C54 49.4904 55.0095 50.4998 56.25 50.4998H57.7499C58.9905 50.4998 59.9999 49.4904 59.9999 48.2499V36.9999C59.9999 35.7594 58.9905 34.7499 57.7499 34.7499H57.7498ZM38.9996 37.3751C38.9996 36.7537 39.5033 36.2501 40.1246 36.2501H49.8748C50.4961 36.2501 50.9998 36.7537 50.9998 37.3751V37.3751C50.9998 37.9964 50.4961 38.5001 49.8748 38.5001H40.1246C39.5033 38.5001 38.9996 37.9964 38.9996 37.3751V37.3751ZM38.9996 42.9999C38.9996 41.3431 40.3428 40 41.9996 40H47.9998C49.6567 40 50.9998 41.3432 50.9998 43V43C50.9998 44.6569 49.6566 46.0001 47.9998 46.0001L41.9996 45.9999C40.3427 45.9999 38.9996 44.6568 38.9996 42.9999V42.9999ZM48.7498 30.9997C48.7498 30.5855 49.0856 30.2498 49.4998 30.2498V30.2498C49.914 30.2498 50.2497 30.5855 50.2497 30.9997V30.9997C50.2497 31.4139 49.914 31.7497 49.4998 31.7497V31.7497C49.0856 31.7497 48.7498 31.4139 48.7498 30.9997V30.9997ZM48.7498 33.9998C48.7498 33.5856 49.0856 33.2499 49.4998 33.2499V33.2499C49.914 33.2499 50.2497 33.5856 50.2497 33.9998V33.9998C50.2497 34.414 49.914 34.7498 49.4998 34.7498V34.7498C49.0856 34.7498 48.7498 34.414 48.7498 33.9998V33.9998ZM39.7499 30.9997C39.7499 30.5855 40.0856 30.2498 40.4998 30.2498V30.2498C40.914 30.2498 41.2498 30.5855 41.2498 30.9997V30.9997C41.2498 31.4139 40.914 31.7497 40.4998 31.7497V31.7497C40.0856 31.7497 39.7499 31.4139 39.7499 30.9997V30.9997ZM39.7499 33.9998C39.7499 33.5856 40.0856 33.2499 40.4998 33.2499V33.2499C40.914 33.2499 41.2498 33.5856 41.2498 33.9998V33.9998C41.2498 34.414 40.914 34.7498 40.4998 34.7498V34.7498C40.0856 34.7498 39.7499 34.414 39.7499 33.9998V33.9998ZM29.9997 45.9996C29.9997 46.4129 29.6637 46.7497 29.2496 46.7497C28.8355 46.7497 28.4995 46.4129 28.4995 45.9996V39.9997C28.4995 39.5864 28.8355 39.2496 29.2496 39.2496C29.6637 39.2496 29.9997 39.5864 29.9997 39.9997V45.9996ZM32.2498 44.4997C31.8356 44.4997 31.4998 44.1639 31.4998 43.7497V42.2496C31.4998 41.8354 31.8356 41.4996 32.2498 41.4996V41.4996C32.664 41.4996 32.9998 41.8354 32.9998 42.2496V43.7497C32.9998 44.1639 32.664 44.4997 32.2498 44.4997V44.4997ZM34.9391 46.8787C34.6577 46.5974 34.4997 46.2158 34.4997 45.8179V40.1815C34.4997 39.7836 34.6577 39.4021 34.939 39.1208V39.1208C35.884 38.1758 37.4997 38.8451 37.4997 40.1815V45.8179C37.4997 47.1543 35.8841 47.8236 34.9391 46.8787V46.8787ZM40.1246 49.7498C39.5033 49.7498 38.9996 49.2461 38.9996 48.6248V48.6248C38.9996 48.0034 39.5033 47.4998 40.1246 47.4998H49.8748C50.4961 47.4998 50.9998 48.0034 50.9998 48.6248V48.6248C50.9998 49.2461 50.4961 49.7498 49.8748 49.7498H40.1246ZM53.2496 44.4997C52.8354 44.4997 52.4996 44.1639 52.4996 43.7497V42.2496C52.4996 41.8354 52.8354 41.4996 53.2496 41.4996V41.4996C53.6638 41.4996 53.9995 41.8354 53.9995 42.2496V43.7497C53.9995 44.1639 53.6638 44.4997 53.2496 44.4997V44.4997ZM58.4998 48.2496C58.4998 48.6629 58.1638 48.9997 57.7497 48.9997H56.2498C55.8357 48.9997 55.4997 48.6629 55.4997 48.2496V36.9996C55.4997 36.5863 55.8357 36.2495 56.2498 36.2495H57.7497C58.1638 36.2495 58.4998 36.5863 58.4998 36.9996V48.2496Z" fill="white"/>
<path d="M41.0294 41.72C40.7361 41.4267 40.2623 41.4267 39.969 41.72C39.6757 42.0133 39.6757 42.4872 39.969 42.7804L41.4689 44.2803C41.6153 44.4267 41.8071 44.5003 41.9993 44.5003C42.1914 44.5003 42.3832 44.4267 42.5296 44.2806C42.8229 43.9873 42.8229 43.5134 42.5296 43.2201L41.0294 41.72Z" fill="white"/>
<path d="M44.7804 41.72C44.4871 41.4267 44.0132 41.4267 43.72 41.72C43.4267 42.0133 43.4267 42.4872 43.72 42.7804L45.2199 44.2803C45.366 44.4267 45.5581 44.5003 45.75 44.5003C45.9421 44.5003 46.1339 44.4267 46.2803 44.2806C46.5736 43.9873 46.5736 43.5134 46.2803 43.2201L44.7804 41.72Z" fill="white"/>
<path d="M48.5304 41.72C48.2371 41.4267 47.7632 41.4267 47.47 41.72C47.1767 42.0133 47.1767 42.4872 47.47 42.7804L48.9699 44.2803C49.116 44.4267 49.3081 44.5003 49.5002 44.5003C49.6923 44.5003 49.8842 44.4267 50.0306 44.2806C50.3239 43.9873 50.3239 43.5134 50.0306 43.2201L48.5304 41.72Z" fill="white"/>
<path d="M26.25 31.7509C26.25 31.3367 26.5858 31.001 27 31.001V31.001C27.4141 31.001 27.7499 31.3367 27.7499 31.7509V31.7509C27.7499 32.1651 27.4141 32.5009 27 32.5009V32.5009C26.5858 32.5009 26.25 32.1651 26.25 31.7509V31.7509Z" fill="white"/>
<path d="M29.25 30.2509C29.25 29.8367 29.5858 29.501 30 29.501V29.501C30.4141 29.501 30.7499 29.8367 30.7499 30.2509V31.7511C30.7499 32.1653 30.4141 32.5011 30 32.5011V32.5011C29.5858 32.5011 29.25 32.1653 29.25 31.7511V30.2509Z" fill="white"/>
<path d="M32.25 28.7509C32.25 28.3367 32.5858 28.001 33 28.001V28.001C33.4141 28.001 33.7499 28.3367 33.7499 28.7509V31.751C33.7499 32.1652 33.4141 32.501 33 32.501V32.501C32.5858 32.501 32.25 32.1652 32.25 31.751V28.7509Z" fill="white"/>
<path d="M26.25 34.7509C26.25 34.3367 26.5858 34.001 27 34.001V34.001C27.4141 34.001 27.7499 34.3367 27.7499 34.7509V34.7509C27.7499 35.1651 27.4141 35.5009 27 35.5009V35.5009C26.5858 35.5009 26.25 35.1651 26.25 34.7509V34.7509Z" fill="white"/>
<path d="M29.25 34.7509C29.25 34.3367 29.5858 34.001 30 34.001V34.001C30.4141 34.001 30.7499 34.3367 30.7499 34.7509V34.7509C30.7499 35.1651 30.4141 35.5009 30 35.5009V35.5009C29.5858 35.5009 29.25 35.1651 29.25 34.7509V34.7509Z" fill="white"/>
<path d="M32.25 34.7509C32.25 34.3367 32.5858 34.001 33 34.001V34.001C33.4141 34.001 33.7499 34.3367 33.7499 34.7509V34.7509C33.7499 35.1651 33.4141 35.5009 33 35.5009V35.5009C32.5858 35.5009 32.25 35.1651 32.25 34.7509V34.7509Z" fill="white"/>
<path d="M20.2501 51.2503C23.1444 51.2503 25.5001 48.8953 25.5001 46.0002C25.5001 44.8126 25.0934 43.6754 24.3809 42.7638C23.7774 41.9916 23.2501 41.1077 23.2501 40.1276L23.2499 28.0001C23.2499 26.3455 21.9044 25 20.2498 25C18.5955 25.0003 17.25 26.3458 17.25 28.0001V40.1276C17.25 41.1077 16.7228 41.9917 16.1193 42.7639C15.407 43.6754 15 44.8128 15 46.0002C15 48.8953 17.3557 51.2503 20.2501 51.2503H20.2501ZM18.3007 42.7962C18.3007 42.7961 18.3007 42.7961 18.3008 42.7961C18.5656 42.6798 18.7499 42.4159 18.7499 42.1086V40.0001C18.7499 39.5859 19.0857 39.2501 19.4999 39.2501V39.2501C19.9141 39.2501 20.2498 38.9143 20.2498 38.5002V38.5002C20.2498 38.086 19.9141 37.7502 19.4999 37.7502V37.7502C19.0857 37.7502 18.7499 37.4144 18.7499 37.0002V37.0002C18.7499 36.5861 19.0857 36.2503 19.4999 36.2503V36.2503C19.9141 36.2503 20.2498 35.9145 20.2498 35.5003V35.5003C20.2498 35.0861 19.914 34.7503 19.4999 34.7503V34.7503C19.0857 34.7502 18.7499 34.4144 18.7499 34.0002V34.0002C18.7499 33.586 19.0857 33.2502 19.5 33.2502V33.2502C19.9141 33.2502 20.2499 32.9145 20.25 32.5004V32.5004C20.25 32.0861 19.9142 31.7503 19.5 31.7503V31.7503C19.0857 31.7503 18.7499 31.4144 18.7499 31.0002V31.0002C18.7499 30.586 19.0857 30.2501 19.5 30.2501V30.2501C19.9141 30.2501 20.2499 29.9144 20.2499 29.5003V29.5003C20.25 29.0861 19.9142 28.7502 19.5 28.7502V28.7502C19.0857 28.7502 18.7499 28.4144 18.7499 28.0001V28.0001C18.7499 27.173 19.4227 26.5002 20.2498 26.5002C21.077 26.5002 21.7497 27.173 21.7497 28.0001V42.1025C21.7497 42.3702 21.8921 42.6177 22.1239 42.7519C23.2815 43.4211 24 44.6661 24 46.0003C24 48.068 22.3178 49.7502 20.2501 49.7502C18.1824 49.7502 16.5002 48.068 16.5002 46.0003C16.4999 44.6955 17.1877 43.4751 18.3006 42.7963C18.3007 42.7963 18.3007 42.7963 18.3007 42.7962V42.7962Z" fill="white"/>
<defs>
<linearGradient id="paint0_linear_587_1046" x1="1.64324" y1="23.5862" x2="80.0246" y2="27.7479" gradientUnits="userSpaceOnUse">
<stop stop-color="#FF4B2A"/>
<stop offset="1" stop-color="#FF7551"/>
</linearGradient>
</defs>
</svg>
