<svg width="76" height="76" viewBox="0 0 76 76" fill="none" xmlns="http://www.w3.org/2000/svg">
<circle cx="38" cy="38" r="38" fill="#D9D9D9"/>
<circle cx="38" cy="38" r="38" fill="url(#paint0_linear_587_1045)"/>
<path d="M33.1083 44.7525C32.9976 44.753 32.8888 44.7221 32.7948 44.6637C30.0364 42.9389 28.365 39.9117 28.3751 36.6584C28.3737 36.3222 28.3936 35.9862 28.4342 35.6526C28.4598 35.4276 28.6115 35.2371 28.8246 35.1616C29.032 35.0945 29.2591 35.1468 29.4163 35.2976L33.5045 39.3859H33.5048C33.6155 39.4976 33.6773 39.6487 33.6762 39.8061V44.1606C33.6746 44.3753 33.5571 44.5724 33.3688 44.6754C33.2898 44.7229 33.2003 44.7493 33.1083 44.7522L33.1083 44.7525ZM29.5584 37.1022C29.673 39.4015 30.7459 41.5475 32.5167 43.0188V40.0605L29.5584 37.1022Z" fill="white"/>
<path d="M37.8416 31.7352C37.6844 31.7363 37.5331 31.6745 37.4216 31.5638L34.5402 28.6824C34.3936 28.5384 34.3323 28.3287 34.3783 28.1285C34.424 27.9283 34.5706 27.7661 34.765 27.7001C36.7605 27.0258 38.9227 27.0258 40.9182 27.7001C41.1126 27.7661 41.2592 27.9283 41.3049 28.1285C41.3509 28.3287 41.2896 28.5384 41.143 28.6824L38.2616 31.5638C38.1501 31.6745 37.9988 31.7363 37.8416 31.7352H37.8416ZM36.0962 28.558L37.8416 30.333L39.6166 28.558C38.456 28.3113 37.2568 28.3113 36.0962 28.558Z" fill="white"/>
<path d="M42.5751 44.7522C42.4752 44.7536 42.3767 44.7269 42.2911 44.6754C42.1028 44.5724 41.985 44.3753 41.9834 44.1606V39.8061C41.9826 39.6487 42.0442 39.4976 42.1551 39.3859L46.2434 35.2976C46.4005 35.1468 46.6277 35.0945 46.835 35.1616C47.0484 35.2371 47.2001 35.4276 47.2254 35.6526C47.274 35.9859 47.3017 36.3216 47.3084 36.6584C47.3184 39.9115 45.647 42.9387 42.8886 44.6637C42.7946 44.7221 42.6858 44.753 42.5751 44.7525L42.5751 44.7522ZM43.1667 40.019V42.9773C44.9375 41.506 46.0104 39.36 46.125 37.0607L43.1667 40.019Z" fill="white"/>
<path d="M35.4754 53.2245C35.1487 53.2245 34.8838 52.9596 34.8838 52.6328V49.0829C34.8838 48.7561 35.1487 48.4912 35.4754 48.4912C35.8022 48.4912 36.0671 48.7561 36.0671 49.0829V52.6328C36.0671 52.7897 36.0048 52.9403 35.8938 53.0512C35.7829 53.1622 35.6323 53.2245 35.4754 53.2245Z" fill="white"/>
<path d="M37.8417 53.2245C37.5149 53.2245 37.25 52.9596 37.25 52.6328V49.0829C37.25 48.7561 37.5149 48.4912 37.8417 48.4912C38.1684 48.4912 38.4333 48.7561 38.4333 49.0829V52.6328C38.4333 52.7897 38.371 52.9403 38.26 53.0512C38.1491 53.1622 37.9986 53.2245 37.8417 53.2245Z" fill="white"/>
<path d="M40.2088 53.2245C39.8821 53.2245 39.6172 52.9596 39.6172 52.6328V49.0829C39.6172 48.7561 39.8821 48.4912 40.2088 48.4912C40.5356 48.4912 40.8005 48.7561 40.8005 49.0829V52.6328C40.8005 52.7897 40.7382 52.9403 40.6272 53.0512C40.5163 53.1622 40.3657 53.2245 40.2088 53.2245Z" fill="white"/>
<path d="M30.3812 27.6301C30.2251 27.6277 30.0761 27.5641 29.967 27.4526L27.4524 24.9438C27.2229 24.713 27.2229 24.3403 27.4524 24.1097C27.5634 23.9977 27.7147 23.9346 27.8724 23.9346C28.0301 23.9346 28.1814 23.9977 28.2924 24.1097L30.8011 26.6005C31.0307 26.8313 31.0307 27.204 30.8011 27.4346C30.6934 27.5543 30.5418 27.6248 30.3812 27.6301L30.3812 27.6301Z" fill="white"/>
<path d="M28.7071 29.3048C28.5513 29.3024 28.4023 29.2388 28.293 29.1273L25.7845 26.6009C25.636 26.3671 25.6698 26.0615 25.8658 25.8658C26.0615 25.6698 26.3671 25.636 26.6009 25.7845L29.1097 28.2932V28.293C29.3389 28.5238 29.3389 28.8965 29.1097 29.1274C29.0032 29.2359 28.8593 29.2996 28.7071 29.3049V29.3048Z" fill="white"/>
<path d="M27.0384 30.9728C26.8749 30.9784 26.7164 30.9163 26.6005 30.8011L24.1097 28.2924C23.9977 28.1814 23.9346 28.0301 23.9346 27.8724C23.9346 27.7147 23.9977 27.5634 24.1097 27.4524C24.3403 27.2229 24.713 27.2229 24.9438 27.4524L27.4526 29.967C27.6819 30.1976 27.6819 30.5703 27.4526 30.8011C27.3422 30.9105 27.1935 30.972 27.0384 30.9728L27.0384 30.9728Z" fill="white"/>
<path d="M42.5754 55H33.1088C32.7821 55 32.5171 54.7351 32.5171 54.4083V40.0489L21.1749 28.7127C21.0629 28.6015 21 28.4504 21 28.2925C21 28.1348 21.0629 27.9837 21.1749 27.8725L27.8725 21.1749C27.9837 21.0629 28.1348 21 28.2925 21C28.4504 21 28.6015 21.0629 28.7127 21.1749L37.8419 30.3101L46.971 21.1749C47.0822 21.0629 47.2333 21 47.3912 21C47.5489 21 47.7 21.0629 47.8112 21.1749L54.5089 27.8725C54.6209 27.9837 54.6837 28.1348 54.6837 28.2925C54.6837 28.4504 54.6209 28.6015 54.5089 28.7127L43.1666 40.0489V54.4083C43.1666 54.5652 43.1042 54.7158 42.9933 54.8267C42.8824 54.9377 42.7318 55 42.5749 55H42.5754ZM33.7005 53.8167H41.9837V39.8062C41.9829 39.6487 42.0445 39.4977 42.1554 39.3859L53.2549 28.2925L47.3917 22.4589L38.2619 31.5643C38.1509 31.6763 37.9996 31.7392 37.8419 31.7392C37.6842 31.7392 37.5329 31.6763 37.4219 31.5643L28.2921 22.4589L22.4585 28.2925L33.5283 39.3859C33.6392 39.4977 33.7007 39.6487 33.7 39.8062L33.7005 53.8167Z" fill="white"/>
<path d="M48.6457 30.9728C48.4906 30.972 48.3419 30.9105 48.2315 30.8011C48.0023 30.5703 48.0023 30.1976 48.2315 29.967L50.7403 27.4524C50.9712 27.2229 51.3438 27.2229 51.5744 27.4524C51.6864 27.5634 51.7496 27.7147 51.7496 27.8724C51.7496 28.0301 51.6864 28.1814 51.5744 28.2924L49.0836 30.8011C48.9677 30.9163 48.8092 30.9784 48.6457 30.9728L48.6457 30.9728Z" fill="white"/>
<path d="M46.9709 29.3049C46.8148 29.3025 46.6661 29.2388 46.5567 29.1274C46.3274 28.8965 46.3274 28.5238 46.5567 28.293L49.0831 25.7845C49.3169 25.636 49.6225 25.6698 49.8182 25.8658C50.0142 26.0615 50.048 26.3671 49.8996 26.6009L47.3908 29.1097H47.3911C47.2833 29.2291 47.1317 29.2996 46.9708 29.3049L46.9709 29.3049Z" fill="white"/>
<path d="M45.3031 27.6301C45.1451 27.6293 44.9938 27.5654 44.8831 27.4526C44.6536 27.2218 44.6536 26.8491 44.8831 26.6182L47.3919 24.1094V24.1097C47.5028 23.9977 47.6541 23.9346 47.8118 23.9346C47.9695 23.9346 48.1209 23.9977 48.2318 24.1097C48.4613 24.3403 48.4613 24.713 48.2318 24.9438L45.7172 27.4526C45.6081 27.5641 45.4592 27.6277 45.303 27.6301L45.3031 27.6301Z" fill="white"/>
<path d="M37.8417 41.3923C36.5863 41.3923 35.3823 40.8937 34.4948 40.0059C33.6071 39.1184 33.1084 37.9145 33.1084 36.6591C33.1084 35.4037 33.6071 34.1997 34.4948 33.3122C35.3823 32.4245 36.5863 31.9258 37.8417 31.9258C39.0971 31.9258 40.301 32.4245 41.1885 33.3122C42.0763 34.1997 42.575 35.4037 42.575 36.6591C42.575 37.9145 42.0763 39.1184 41.1885 40.0059C40.301 40.8937 39.0971 41.3923 37.8417 41.3923ZM37.8417 33.1091C36.9 33.1091 35.9973 33.4831 35.3313 34.1487C34.6657 34.8146 34.2917 35.7174 34.2917 36.6591C34.2917 37.6007 34.6657 38.5035 35.3313 39.1694C35.9972 39.835 36.9 40.209 37.8417 40.209C38.7833 40.209 39.6861 39.835 40.352 39.1694C41.0176 38.5035 41.3916 37.6007 41.3916 36.6591C41.3916 35.7174 41.0176 34.8146 40.352 34.1487C39.6861 33.4831 38.7833 33.1091 37.8417 33.1091Z" fill="white"/>
<defs>
<linearGradient id="paint0_linear_587_1045" x1="1.64324" y1="23.5862" x2="80.0246" y2="27.7479" gradientUnits="userSpaceOnUse">
<stop stop-color="#FF4B2A"/>
<stop offset="1" stop-color="#FF7551"/>
</linearGradient>
</defs>
</svg>
