<svg width="76" height="76" viewBox="0 0 76 76" fill="none" xmlns="http://www.w3.org/2000/svg">
<circle cx="38" cy="38" r="38" fill="#D9D9D9"/>
<circle cx="38" cy="38" r="38" fill="url(#paint0_linear_587_1373)"/>
<path fill-rule="evenodd" clip-rule="evenodd" d="M23.2313 30.789C23.6838 30.0299 24.5026 29.5642 25.3866 29.5642H50.1473C51.0317 29.5642 51.8501 30.0299 52.3026 30.789C54.2229 34.0123 58.5569 41.286 60.8474 45.1304C61.0062 45.3975 61.0094 45.7288 60.8561 45.9991C60.7021 46.2693 60.4155 46.4359 60.1054 46.4359H15.4277C15.1173 46.4359 14.8306 46.269 14.677 45.9991C14.5237 45.7288 14.5269 45.3975 14.6857 45.1304L21.8048 33.1818C22.0255 32.811 21.904 32.3309 21.5332 32.1099C21.1621 31.8889 20.6816 32.0104 20.4606 32.3815C18.299 36.0099 15.2915 41.0582 13.3421 44.3293C12.8952 45.0796 12.8854 46.0121 13.317 46.7715C13.7482 47.5306 14.5544 47.9998 15.4276 47.9998H60.1053C60.9785 47.9998 61.7847 47.5306 62.2159 46.7715C62.6474 46.0125 62.6377 45.0795 62.1908 44.3293C59.9007 40.4855 55.5671 33.2119 53.6467 29.9888C52.9121 28.7555 51.5825 28 50.1472 28H25.3865C23.9511 28 22.6216 28.7556 21.887 29.9888C21.6664 30.3595 21.7879 30.8403 22.1587 31.0606C22.5295 31.2816 23.0103 31.1601 23.2313 30.789Z" fill="white"/>
<path fill-rule="evenodd" clip-rule="evenodd" d="M33.5857 46.7997L27.7535 37.5817C27.5224 37.2169 27.0392 37.1083 26.6743 37.3387C26.3095 37.5698 26.2009 38.0531 26.432 38.4179L32.2642 47.6359C32.4953 48.0008 32.9786 48.1094 33.3434 47.8789C33.7083 47.6478 33.8169 47.1646 33.5857 46.7997Z" fill="white"/>
<path fill-rule="evenodd" clip-rule="evenodd" d="M50.266 46.7997L44.4331 37.5817C44.202 37.2169 43.7188 37.1083 43.3539 37.3387C42.9894 37.5698 42.8805 38.0531 43.1116 38.4179L48.9445 47.6359C49.175 48.0008 49.6589 48.1094 50.0234 47.8789C50.3882 47.6478 50.4968 47.1646 50.2664 46.7997H50.266Z" fill="white"/>
<path fill-rule="evenodd" clip-rule="evenodd" d="M42.9645 33.1701C42.9645 32.6715 42.7665 32.1935 42.4139 31.8416C42.0616 31.4893 41.5839 31.291 41.0854 31.291H34.4543C33.9557 31.291 33.4781 31.489 33.1258 31.8416C32.7735 32.1936 32.5752 32.6716 32.5752 33.1701V34.2661C32.5752 34.7647 32.7732 35.2427 33.1258 35.5953C33.4781 35.9476 33.9557 36.1459 34.4543 36.1459H41.0854C41.584 36.1459 42.0616 35.948 42.4139 35.5953C42.7662 35.243 42.9645 34.7647 42.9645 34.2661V33.1701ZM41.4003 33.1701V34.2661C41.4003 34.3499 41.3668 34.4299 41.3081 34.4892C41.2491 34.5482 41.1688 34.5814 41.0854 34.5814H34.4543C34.3708 34.5814 34.2905 34.5479 34.2315 34.4892C34.1725 34.4299 34.1394 34.3499 34.1394 34.2661V33.1701C34.1394 33.0867 34.1729 33.0064 34.2315 32.9474C34.2905 32.8884 34.3708 32.8552 34.4543 32.8552H41.0854C41.1688 32.8552 41.2491 32.8887 41.3081 32.9474C41.3671 33.0064 41.4003 33.0867 41.4003 33.1701Z" fill="white"/>
<path fill-rule="evenodd" clip-rule="evenodd" d="M38.5505 32.073V29.0253C38.5505 28.5937 38.2 28.2432 37.7684 28.2432C37.3369 28.2432 36.9863 28.5937 36.9863 29.0253V32.073C36.9863 32.5046 37.3369 32.8551 37.7684 32.8551C38.2 32.8551 38.5505 32.5046 38.5505 32.073Z" fill="white"/>
<defs>
<linearGradient id="paint0_linear_587_1373" x1="1.64324" y1="23.5862" x2="80.0246" y2="27.7479" gradientUnits="userSpaceOnUse">
<stop stop-color="#FF4B2A"/>
<stop offset="1" stop-color="#FF7551"/>
</linearGradient>
</defs>
</svg>
