<svg width="76" height="76" viewBox="0 0 76 76" fill="none" xmlns="http://www.w3.org/2000/svg">
<circle cx="38" cy="38" r="38" fill="#D9D9D9"/>
<circle cx="38" cy="38" r="38" fill="url(#paint0_linear_587_1135)"/>
<path d="M59.0752 31.8751H55.5199V29.8066C55.5172 29.3557 55.1509 28.9917 54.7001 28.9917H35.7497L33.3045 21.8089C33.2177 21.2826 32.7207 20.9262 32.1941 21.013C31.6678 21.1001 31.3114 21.5971 31.3982 22.1238V28.9916H17.8198C17.369 28.9916 17.0027 29.3557 17 29.8065V46.2445C17 46.6973 17.367 47.0643 17.8198 47.0643H38.1856L40.0348 54.2517C40.1325 54.6969 40.5321 55.0104 40.9879 54.9997H41.0833C41.5817 54.9625 41.9663 54.5463 41.965 54.0466L42.0936 47.0643H54.7C54.9174 47.0643 55.1259 46.9779 55.2795 46.8243C55.4334 46.6704 55.5198 46.4619 55.5198 46.2445V44.1809H59.0754H59.0751C59.2925 44.1809 59.501 44.0945 59.6549 43.9406C59.8085 43.787 59.8949 43.5785 59.8949 43.3611V32.6901C59.8949 32.473 59.8085 32.2649 59.6546 32.112C59.5007 31.959 59.2922 31.8736 59.0751 31.8749L59.0752 31.8751ZM18.6347 45.4305V30.6266H31.413V39.8916C31.413 40.1446 31.5134 40.3869 31.6923 40.5658C31.8711 40.7443 32.1135 40.8447 32.3661 40.8447H36.589L37.7616 45.4107L18.6347 45.4305ZM40.4107 49.148L39.8771 47.0652L39.4576 45.4305L38.0277 39.9782V39.9779C37.9299 39.5327 37.5303 39.2192 37.0745 39.2298H33.0521V26.1375L34.0052 28.9973L34.5628 30.632L35.7447 34.1065V34.1062C35.8727 34.5051 36.2457 34.7741 36.6646 34.7688H40.6634L40.4632 45.4398L40.4347 47.0745L40.4107 49.148ZM53.8844 45.4305H42.1121L42.3265 34.1109H42.3268C42.3288 33.851 42.2278 33.6006 42.0456 33.4151C41.8644 33.2276 41.6147 33.1225 41.3544 33.1242H37.1554L36.3024 30.6268H53.8842L53.8844 45.4305ZM58.2595 42.5471L55.5623 42.5467V33.4911H58.2598L58.2595 42.5471Z" fill="white"/>
<defs>
<linearGradient id="paint0_linear_587_1135" x1="1.64324" y1="23.5862" x2="80.0246" y2="27.7479" gradientUnits="userSpaceOnUse">
<stop stop-color="#FF4B2A"/>
<stop offset="1" stop-color="#FF7551"/>
</linearGradient>
</defs>
</svg>
