<svg width="76" height="76" viewBox="0 0 76 76" fill="none" xmlns="http://www.w3.org/2000/svg">
<circle cx="38" cy="38" r="38" fill="#D9D9D9"/>
<circle cx="38" cy="38" r="38" fill="url(#paint0_linear_587_1044)"/>
<path d="M30.0006 29.123C31.5287 29.1244 32.9739 29.2317 34.3069 29.4184C34.3069 29.4184 34.5113 28.5587 34.7195 28.1218C34.4006 28.0099 33.5663 27.9224 32.2552 27.8408C31.3865 27.7876 31.0155 27.7816 30.0013 27.7734C28.9872 27.7816 28.6162 27.7872 27.7475 27.8408C26.4361 27.9224 25.6021 28.0099 25.2832 28.1218C25.4907 28.559 25.695 29.4184 25.695 29.4184C27.0277 29.2317 28.4729 29.1244 30.0006 29.123H30.0006Z" fill="white"/>
<path d="M29.9469 42.8268C30.2917 41.3192 31.4279 39.6511 32.6113 39.2438C34.2054 39.4958 35.8896 39.6243 37.5486 39.6264C39.2073 39.6243 40.8922 39.4958 42.486 39.2438C43.669 39.6511 44.8055 41.3193 45.1496 42.8268C53.5349 41.0115 56.3299 37.7641 57.0964 36.5935C56.266 34.9776 54.0522 32.9509 51.3211 34.0311C51.6996 32.6838 50.6727 31.3716 49.7986 30.7594C49.7986 30.7594 49.4003 31.1469 48.9881 31.7687C49.8245 32.1773 50.324 33.102 50.324 33.6987C50.324 34.3628 49.8047 35.0507 48.8757 35.6848C48.66 35.6205 48.4397 35.5609 48.2198 35.5002C47.8441 34.6822 48.3287 32.803 48.9881 31.7686C48.9622 31.7485 46.6785 30.1364 41.855 29.4189C41.4389 31.2216 41.6028 32.9836 41.9979 34.3578C40.5468 34.211 39.0566 34.1358 37.5487 34.1348C36.0414 34.1358 34.5513 34.211 33.0994 34.3578C33.4949 32.9836 33.6588 31.2216 33.2424 29.4189C28.4189 30.1364 26.1348 31.7481 26.1093 31.7686C26.7687 32.8033 27.2536 34.6821 26.8776 35.5002C26.658 35.5609 26.4374 35.6205 26.2217 35.6848C25.2927 35.0503 24.7734 34.3628 24.7734 33.6987C24.7734 33.1012 25.2721 32.1769 26.1089 31.7687C25.6964 31.1469 25.2984 30.7594 25.2984 30.7594C24.4243 31.3716 23.397 32.6838 23.7752 34.0311C21.0446 32.9509 18.8304 34.9777 18 36.5935C18.7673 37.7641 21.5618 41.0115 29.9468 42.8268H29.9469ZM37.5483 35.485C40.9281 35.4875 44.2099 35.8736 47.1576 36.5991C44.8573 37.5753 41.4697 38.2701 37.5483 38.2747C33.6275 38.2701 30.2396 37.5756 27.9398 36.5991C30.8872 35.8736 34.1687 35.4875 37.5483 35.485Z" fill="white"/>
<path d="M30.0009 43.5207C26.9074 43.5207 25.0479 43.2532 22.3996 42.8272C22.3996 42.8272 22.2648 43.5189 22.2197 44.0793C23.0136 44.242 26.0599 44.8059 30.0009 44.8059C33.9419 44.8059 36.9882 44.242 37.7828 44.0782C37.737 43.5182 37.6022 42.8262 37.6022 42.8262C34.9539 43.2528 33.0944 43.5207 30.0009 43.5207H30.0009Z" fill="white"/>
<path d="M59.3875 33.711C57.8619 27.3347 50.9647 24 38.0003 24C25.0355 24 18.1386 27.3349 16.613 33.711C15.2842 39.2639 16.2927 44.1519 17.9478 46.4204C20.9992 50.6002 28.1166 52.7059 38.0002 52.7109C47.8838 52.706 55.0014 50.6002 58.0526 46.4204C59.708 44.152 60.7151 39.2635 59.3874 33.711H59.3875ZM57.7973 44.6036C58.7568 41.3298 58.2531 38.581 58.0683 37.9331C57.3848 38.989 54.4846 42.3397 45.7819 44.0784C46.1469 47.4621 45.053 50.6428 44.4737 50.9173C41.7476 51.3196 40.8272 51.3207 37.9997 51.3602C35.1722 51.3207 34.2518 51.3196 31.5257 50.9177C30.9464 50.6431 29.8524 47.4624 30.2179 44.0788C21.5151 42.3397 18.6143 38.9889 17.9314 37.933C17.7463 38.5806 17.2433 41.3298 18.2025 44.6036C17.1209 42.4089 16.8031 38.989 17.3064 36.701C17.4529 37.0091 17.7307 37.6369 17.9314 37.933C17.9314 37.933 18.0322 37.3705 18.4518 36.5934C18.1184 36.0231 17.7598 35.0357 17.7598 34.3021C17.7598 34.1436 17.774 33.9848 17.7959 33.826C18.1489 32.1635 18.9162 30.8913 20.1623 29.9956C21.5301 29.0121 24.363 29.1416 25.7506 30.7597C25.863 30.6665 28.1818 28.9397 33.2824 28.1227C32.8304 27.0683 32.1515 26.3331 31.4952 25.8345C33.4969 25.5257 35.6739 25.3532 37.9994 25.3514C40.3249 25.3535 42.5019 25.5261 44.5047 25.8335C43.8491 26.3325 43.1699 27.0676 42.7176 28.1217C47.8177 28.9387 50.1369 30.6654 50.2493 30.7586C51.637 29.1406 54.4695 29.011 55.8369 29.9946C57.0834 30.8906 57.8503 32.1624 58.2035 33.8249C58.2244 33.9837 58.239 34.1425 58.239 34.301C58.239 35.0347 57.8804 36.0221 57.5469 36.5924C57.9669 37.3695 58.0673 37.932 58.0673 37.932C58.2681 37.6359 58.5448 37.0088 58.6923 36.7C59.1964 38.9889 58.8785 42.4088 57.7966 44.6035L57.7973 44.6036Z" fill="white"/>
<defs>
<linearGradient id="paint0_linear_587_1044" x1="1.64324" y1="23.5862" x2="80.0246" y2="27.7479" gradientUnits="userSpaceOnUse">
<stop stop-color="#FF4B2A"/>
<stop offset="1" stop-color="#FF7551"/>
</linearGradient>
</defs>
</svg>
