<svg width="76" height="76" viewBox="0 0 76 76" fill="none" xmlns="http://www.w3.org/2000/svg">
<circle cx="38" cy="38" r="38" fill="#D9D9D9"/>
<circle cx="38" cy="38" r="38" fill="url(#paint0_linear_587_1260)"/>
<path d="M45.6997 20.2667C48.4935 20.2667 50.7663 22.5395 50.7663 25.3333C50.7663 25.6827 51.0502 25.9666 51.3997 25.9666C51.7491 25.9666 52.033 25.6827 52.033 25.3333C52.033 21.8412 49.1918 19 45.6997 19C45.3503 19 45.0664 19.2839 45.0664 19.6333C45.0664 19.9828 45.3503 20.2667 45.6997 20.2667Z" fill="white"/>
<path d="M45.065 22.8008C46.8111 22.8008 48.2316 24.2213 48.2316 25.9675C48.2316 26.3169 48.5155 26.6008 48.8649 26.6008C49.2144 26.6008 49.4982 26.3169 49.4982 25.9675C49.4982 23.523 47.5095 21.5342 45.065 21.5342C44.7155 21.5342 44.4316 21.818 44.4316 22.1675C44.4316 22.517 44.7155 22.8008 45.065 22.8008Z" fill="white"/>
<path d="M53.3429 33.5227C53.0952 33.275 52.6949 33.275 52.4475 33.5227C52.1998 33.7703 52.1998 34.1713 52.4475 34.4181C53.4043 35.3752 53.9313 36.6475 53.9313 38.0009C53.9313 39.3543 53.4043 40.6266 52.4475 41.5837C52.1998 41.8308 52.1998 42.2317 52.4475 42.4791C52.571 42.6027 52.733 42.6646 52.8953 42.6646C53.0573 42.6646 53.2196 42.6024 53.3432 42.4791C54.5391 41.2829 55.1979 39.6925 55.1979 38.0009C55.1979 36.3093 54.5391 34.7189 53.3429 33.5227Z" fill="white"/>
<path d="M50.2101 41.1348C50.3337 41.2583 50.4957 41.3203 50.658 41.3203C50.82 41.3203 50.9823 41.2581 51.1058 41.1348C52.8342 39.4064 52.8342 36.5938 51.1058 34.8654C50.8582 34.6178 50.4578 34.6178 50.2104 34.8654C49.9627 35.1126 49.9627 35.5135 50.2104 35.7609C51.4449 36.9958 51.4449 39.0046 50.2104 40.2391C49.9625 40.4862 49.9625 40.8877 50.2101 41.1348Z" fill="white"/>
<path d="M24.7984 25.9666C25.1478 25.9666 25.4317 25.6827 25.4317 25.3333C25.4317 22.5395 27.7046 20.2667 30.4983 20.2667C30.8478 20.2667 31.1316 19.9828 31.1316 19.6333C31.1316 19.2839 30.8478 19 30.4983 19C27.0062 19 24.165 21.8412 24.165 25.3333C24.165 25.6827 24.4489 25.9666 24.7984 25.9666Z" fill="white"/>
<path d="M26.7012 25.9675C26.7012 26.3169 26.985 26.6008 27.3345 26.6008C27.684 26.6008 27.9678 26.3169 27.9678 25.9675C27.9678 24.2213 29.3883 22.8008 31.1345 22.8008C31.4839 22.8008 31.7678 22.517 31.7678 22.1675C31.7678 21.818 31.4839 21.5342 31.1345 21.5342C28.69 21.5342 26.7012 23.523 26.7012 25.9675Z" fill="white"/>
<path d="M51.3997 50.0332C51.0502 50.0332 50.7663 50.3171 50.7663 50.6665C50.7663 53.4603 48.4935 55.7331 45.6997 55.7331C45.3503 55.7331 45.0664 56.017 45.0664 56.3665C45.0664 56.7159 45.3503 56.9998 45.6997 56.9998C49.1918 56.9998 52.033 54.1586 52.033 50.6665C52.033 50.3171 51.7491 50.0332 51.3997 50.0332Z" fill="white"/>
<path d="M49.4982 50.0327C49.4982 49.6833 49.2144 49.3994 48.8649 49.3994C48.5155 49.3994 48.2316 49.6833 48.2316 50.0327C48.2316 51.7789 46.8111 53.1994 45.065 53.1994C44.7155 53.1994 44.4316 53.4832 44.4316 53.8327C44.4316 54.1822 44.7155 54.466 45.065 54.466C47.5095 54.466 49.4982 52.4772 49.4982 50.0327Z" fill="white"/>
<path d="M30.4983 55.7331C27.7046 55.7331 25.4317 53.4603 25.4317 50.6665C25.4317 50.3171 25.1478 50.0332 24.7984 50.0332C24.4489 50.0332 24.165 50.3171 24.165 50.6665C24.165 54.1586 27.0062 56.9998 30.4983 56.9998C30.8478 56.9998 31.1316 56.7159 31.1316 56.3665C31.1316 56.017 30.8478 55.7331 30.4983 55.7331Z" fill="white"/>
<path d="M31.1345 53.1994C29.3883 53.1994 27.9678 51.7789 27.9678 50.0327C27.9678 49.6833 27.684 49.3994 27.3345 49.3994C26.985 49.3994 26.7012 49.6833 26.7012 50.0327C26.7012 52.4772 28.69 54.466 31.1345 54.466C31.4839 54.466 31.7678 54.1822 31.7678 53.8327C31.7678 53.4832 31.4839 53.1994 31.1345 53.1994Z" fill="white"/>
<path d="M35.3505 37.3668H40.8491C41.3563 37.3668 41.8129 37.0654 42.0131 36.5992L43.2786 33.6472C43.6739 32.7237 43.2798 31.6491 42.3818 31.1993C40.8612 30.4387 39.1436 30.1036 37.4153 30.2272C37.0664 30.2526 36.804 30.556 36.8289 30.9043C36.8543 31.2532 37.1608 31.5122 37.506 31.4907C39.0057 31.3819 40.4979 31.6737 41.8152 32.3325C42.1149 32.482 42.2458 32.8402 42.114 33.1482L40.849 36.1002H35.3504L34.0857 33.149C33.9539 32.8411 34.0851 32.4829 34.384 32.3328C34.6277 32.2112 34.8957 32.0959 35.2022 31.9825C35.5302 31.8609 35.6967 31.4962 35.5751 31.1679C35.453 30.84 35.0894 30.6734 34.7606 30.795C34.4111 30.9254 34.1027 31.058 33.8177 31.1996C32.9197 31.6486 32.5256 32.7241 32.9208 33.6475L34.1863 36.5995C34.3865 37.0655 34.8431 37.3669 35.3503 37.3669L35.3505 37.3668Z" fill="white"/>
<path d="M43.2771 46.1524L42.1764 43.5848C41.877 42.8848 41.1917 42.4327 40.4303 42.4327C40.0808 42.4327 39.7969 42.7165 39.7969 43.066C39.7969 43.4155 40.0808 43.6993 40.4303 43.6993C40.6836 43.6993 40.9123 43.85 41.0124 44.083L42.1125 46.6505C42.2443 46.9584 42.1131 47.3167 41.8137 47.4668C39.4873 48.6302 36.7097 48.6308 34.3831 47.4668C34.0834 47.3172 33.9525 46.959 34.0843 46.651L35.185 44.0835C35.2856 43.85 35.5135 43.6993 35.7677 43.6993H38.0988C38.4483 43.6993 38.7322 43.4154 38.7322 43.0659C38.7322 42.7165 38.4483 42.4326 38.0988 42.4326H35.7677C35.0065 42.4326 34.3212 42.8847 34.0215 43.5839L32.9208 46.1519C32.5256 47.0754 32.9197 48.15 33.8177 48.5998C35.1584 49.2699 36.6284 49.605 38.0997 49.605C39.5702 49.605 41.041 49.2699 42.3817 48.5998C43.2789 48.1503 43.6727 47.0754 43.2768 46.1522L43.2771 46.1524Z" fill="white"/>
<path d="M46.3342 47.4995V39.8996C46.3342 39.5501 46.0503 39.2663 45.7009 39.2663H43.8009V37.8147C43.8009 37.619 43.8473 37.4234 43.9346 37.2483L44.8625 35.3922C44.9157 35.2864 44.9886 35.194 45.0678 35.1077L45.0675 37.3662C45.0675 37.7157 45.3514 37.9995 45.7009 37.9995C46.0503 37.9995 46.3342 37.7157 46.3342 37.3662V34.84C46.5236 34.8838 46.7122 34.9135 46.8971 34.9135C47.7425 34.9135 48.4988 34.4696 48.7674 33.7323C48.9478 33.2369 48.8808 32.6734 48.5836 32.1857C48.3099 31.7367 47.866 31.3819 47.3339 31.1882C46.9989 31.0667 46.6593 31.0279 46.3339 31.0463L46.3342 29.7663C46.3342 26.6237 43.7769 24.0664 40.6343 24.0664H35.5676C32.425 24.0664 29.8677 26.6237 29.8677 29.7663V31.0468C29.5428 31.0279 29.2033 31.0672 28.8677 31.1893C28.3356 31.383 27.8917 31.7373 27.618 32.1862C27.3208 32.6739 27.2544 33.2374 27.4342 33.7328C27.7028 34.4707 28.4582 34.914 29.3045 34.914C29.4894 34.914 29.6783 34.8843 29.8674 34.8405L29.8677 39.8995C29.8677 40.249 30.1516 40.5328 30.501 40.5328H32.401V41.4333C32.401 41.5953 32.3705 41.7531 32.3097 41.9038L31.4477 44.0596C31.3781 44.2338 31.2678 44.3845 31.1335 44.5106L31.1338 42.4328C31.1338 42.0833 30.8499 41.7994 30.5005 41.7994C30.151 41.7994 29.8672 42.0833 29.8672 42.4328V47.4994C29.8672 49.9439 31.856 51.9327 34.3004 51.9327H41.9004C44.3454 51.9327 46.3342 49.9439 46.3342 47.4994L46.3342 47.4995ZM45.0675 40.5329V44.5107C44.9332 44.3846 44.8238 44.2339 44.754 44.0603L43.8914 41.9039C43.8314 41.754 43.8009 41.5957 43.8009 41.4334V40.5329L45.0675 40.5329ZM46.9011 32.3793C47.1601 32.4731 47.3786 32.6434 47.5016 32.8447C47.5579 32.9371 47.643 33.1189 47.5771 33.2987C47.4612 33.6154 46.9432 33.7421 46.4682 33.569C45.9927 33.3954 45.6765 32.9654 45.7919 32.6487C45.8717 32.429 46.1465 32.301 46.4651 32.301C46.6059 32.3015 46.7555 32.3261 46.9011 32.3793ZM44.2405 27.1976C44.0961 27.214 43.9521 27.2329 43.8009 27.2329C42.4279 27.2329 41.2676 26.5077 41.2676 25.6496C41.2676 25.5617 41.2854 25.4755 41.3094 25.3901C42.5153 25.5755 43.5608 26.2456 44.2405 27.1976ZM34.8926 25.39C34.9167 25.4754 34.9345 25.5617 34.9345 25.6496C34.9345 26.5077 33.7742 27.2329 32.4012 27.2329C32.2499 27.2329 32.106 27.214 31.9615 27.1976C32.6412 26.2456 33.6868 25.5755 34.8926 25.39ZM28.6252 33.299C28.5594 33.1192 28.6442 32.9374 28.7007 32.8449C28.8237 32.6428 29.0428 32.4731 29.3013 32.3796C29.4469 32.3264 29.5964 32.3015 29.7375 32.3015C30.0567 32.3015 30.331 32.4293 30.4107 32.6493C30.5261 32.966 30.21 33.3965 29.735 33.5696C29.2591 33.7435 28.7406 33.6162 28.6252 33.299ZM31.1345 39.2661V35.1076C31.2137 35.1939 31.2866 35.2863 31.3392 35.3921L32.2677 37.2491C32.3548 37.4232 32.4012 37.6189 32.4012 37.8145V39.2661L31.1345 39.2661ZM34.3012 50.0326C33.9737 50.0326 33.7133 50.2849 33.6805 50.6032C33.1188 50.4912 32.6172 50.2221 32.2049 49.8545C32.3251 49.7394 32.4011 49.5791 32.4011 49.3993C32.4011 49.0498 32.1173 48.766 31.7678 48.766C31.6513 48.766 31.5481 48.8058 31.4543 48.861C31.2555 48.4468 31.1345 47.989 31.1345 47.4994V45.9907L31.4048 45.8552C31.9601 45.5773 32.3935 45.1065 32.624 44.5298L33.486 42.3745C33.6065 42.0743 33.6678 41.7576 33.6678 41.4333V37.8146C33.6678 37.4233 33.5754 37.0317 33.4006 36.6817L32.4721 34.8247C32.35 34.5802 32.1902 34.3593 31.9977 34.1668L31.4746 33.6437C31.7096 33.1959 31.7735 32.6887 31.6013 32.2162C31.5043 31.9501 31.3403 31.7259 31.1351 31.5436V29.7663C31.1351 29.2851 31.2148 28.8219 31.3573 28.3882C31.6898 28.4583 32.0415 28.4996 32.4012 28.4996C34.5316 28.4996 36.2011 27.2477 36.2011 25.6496C36.2011 25.5433 36.1915 25.4382 36.1765 25.333H40.026C40.0107 25.4382 40.0011 25.5433 40.0011 25.6496C40.0011 27.2477 41.6706 28.4996 43.8011 28.4996C44.1607 28.4996 44.5124 28.4583 44.8455 28.3882C44.988 28.8219 45.0677 29.2851 45.0677 29.7663V31.5433C44.8625 31.7256 44.6979 31.9498 44.601 32.2159C44.4293 32.6883 44.4927 33.1956 44.7276 33.6434L44.2046 34.1665C44.012 34.3591 43.8525 34.5802 43.7296 34.8253L42.8016 36.6815C42.6269 37.0318 42.5345 37.4234 42.5345 37.8147V41.4334C42.5345 41.7577 42.5958 42.0743 42.7157 42.3737L43.5783 44.5302C43.8088 45.1064 44.2422 45.5771 44.7975 45.8551L45.0678 45.9908V47.4995C45.0678 47.9892 44.9468 48.4469 44.748 48.8611C44.6541 48.806 44.5509 48.7661 44.4345 48.7661C44.085 48.7661 43.8011 49.05 43.8011 49.3994C43.8011 49.5792 43.8772 49.7396 43.9974 49.8549C43.5851 50.2222 43.0836 50.4914 42.5217 50.6036C42.4889 50.285 42.2285 50.0328 41.9011 50.0328C41.5517 50.0328 41.2678 50.3166 41.2678 50.6661H34.9345C34.9345 50.3166 34.6507 50.0328 34.3012 50.0328L34.3012 50.0326Z" fill="white"/>
<path d="M22.2667 37.9999C22.2667 36.6465 22.7937 35.3742 23.7504 34.4171C23.9981 34.17 23.9981 33.7691 23.7504 33.5217C23.5028 33.274 23.1024 33.274 22.855 33.5217C21.6588 34.7179 21 36.3083 21 37.9999C21 39.6915 21.6588 41.2819 22.855 42.4782C22.9786 42.6017 23.1406 42.6636 23.3029 42.6636C23.4649 42.6636 23.6272 42.6014 23.7507 42.4782C23.9984 42.2305 23.9984 41.8296 23.7507 41.5827C22.7937 40.6257 22.2667 39.3534 22.2667 37.9999Z" fill="white"/>
<path d="M25.9876 34.8645C25.7399 34.6168 25.3396 34.6168 25.0922 34.8645C23.3638 36.5928 23.3638 39.4055 25.0922 41.1338C25.2157 41.2574 25.3777 41.3193 25.54 41.3193C25.702 41.3193 25.8643 41.2571 25.9879 41.1338C26.2356 40.8867 26.2356 40.4858 25.9879 40.2384C24.7534 39.0035 24.7534 36.9946 25.9879 35.7602C26.2353 35.5131 26.2353 35.1116 25.9876 34.8645Z" fill="white"/>
<defs>
<linearGradient id="paint0_linear_587_1260" x1="1.64324" y1="23.5862" x2="80.0246" y2="27.7479" gradientUnits="userSpaceOnUse">
<stop stop-color="#FF4B2A"/>
<stop offset="1" stop-color="#FF7551"/>
</linearGradient>
</defs>
</svg>
