<svg width="53" height="35" viewBox="0 0 53 35" fill="none" xmlns="http://www.w3.org/2000/svg">
<path d="M4.07667 0C3.53539 0 3.01923 0.106582 2.54757 0.294388L25.2899 20.3613C26.0824 21.0614 26.9621 21.0609 27.7532 20.3613L50.4519 0.294388C49.9803 0.106579 49.4641 0 48.9228 0H4.07631H4.07667ZM0.0421839 3.4707C0.0165889 3.65474 0 3.84725 0 4.03882V30.963C0 31.5152 0.117546 32.041 0.318512 32.5195L16.0099 17.5849L0.0421839 3.4707ZM52.9576 3.4707L37.032 17.5638L52.7028 32.4983C52.8972 32.026 53 31.5058 53 30.9631V4.03887C53 3.84778 52.9829 3.6548 52.9578 3.47075L52.9576 3.4707ZM33.9743 20.2767L30.4707 23.3896C28.2435 25.3597 24.7986 25.3563 22.5714 23.3896L19.0677 20.2972L3.60928 34.9793C3.76048 34.9962 3.92068 35 4.07662 35H48.9231C49.0715 35 49.225 34.9934 49.3691 34.9793L33.9738 20.2768L33.9743 20.2767Z" fill="white"/>
</svg>
