<svg width="145" height="23" viewBox="0 0 145 23" fill="none" xmlns="http://www.w3.org/2000/svg">
<path d="M12.24 5.76C12.24 4.8 11.76 4.32 10.8 4.32H6.72C5.76 4.32 5.28 4.8 5.28 5.76V13.44C5.28 14.4 5.76 14.88 6.72 14.88H10.8C11.76 14.88 12.24 14.4 12.24 13.44V5.76ZM16.56 13.44C16.56 15.12 16.176 16.344 15.408 17.112C14.656 17.864 13.44 18.24 11.76 18.24H5.76C4.08 18.24 2.856 17.864 2.088 17.112C1.336 16.344 0.96 15.12 0.96 13.44V5.76C0.96 4.08 1.336 2.864 2.088 2.112C2.856 1.344 4.08 0.959999 5.76 0.959999H11.76C13.44 0.959999 14.656 1.344 15.408 2.112C16.176 2.864 16.56 4.08 16.56 5.76V13.44ZM25.8113 8.52C24.9633 8.52 24.0033 8.68 22.9313 9V14.76H26.5313C27.1713 14.76 27.4913 14.44 27.4913 13.8V9.36C27.4913 9.12 27.4113 8.92 27.2513 8.76C27.0913 8.6 26.8913 8.52 26.6513 8.52H25.8113ZM22.9313 18V22.08H18.7313V5.28H22.4513L22.6913 6.48C23.4433 5.984 24.2113 5.624 24.9953 5.4C25.7953 5.16 26.4673 5.04 27.0113 5.04H28.0913C29.1793 5.04 30.0513 5.368 30.7073 6.024C31.3633 6.68 31.6913 7.552 31.6913 8.64V14.16C31.6913 15.36 31.3473 16.304 30.6593 16.992C29.9873 17.664 29.0512 18 27.8513 18H22.9313ZM38.7684 8.04C38.1284 8.04 37.8084 8.36 37.8084 9V10.32H41.8884V9C41.8884 8.36 41.5684 8.04 40.9284 8.04H38.7684ZM45.6084 17.76C42.5204 18.08 39.7204 18.24 37.2084 18.24C36.1204 18.24 35.2484 17.912 34.5924 17.256C33.9364 16.6 33.6084 15.728 33.6084 14.64V8.88C33.6084 7.68 33.9444 6.744 34.6164 6.072C35.3044 5.384 36.2484 5.04 37.4484 5.04H42.2484C43.4484 5.04 44.3844 5.384 45.0564 6.072C45.7444 6.744 46.0884 7.68 46.0884 8.88V13.32H37.8084V14.28C37.8084 14.52 37.8884 14.72 38.0484 14.88C38.2084 15.04 38.4084 15.12 38.6484 15.12C40.2324 15.12 42.5524 15 45.6084 14.76V17.76ZM55.3191 8.52C54.4711 8.52 53.5111 8.68 52.4391 9V18H48.2391V5.28H51.9591L52.1991 6.48C52.9511 5.984 53.7191 5.624 54.5031 5.4C55.3031 5.16 55.9751 5.04 56.5191 5.04H57.5991C58.6871 5.04 59.5591 5.368 60.2151 6.024C60.8711 6.68 61.1991 7.552 61.1991 8.64V18H56.9991V9.36C56.9991 9.12 56.9191 8.92 56.7591 8.76C56.5991 8.6 56.3991 8.52 56.1591 8.52H55.3191ZM83.0316 1.2L85.9116 12L88.4316 1.2H93.1116L88.5516 18H83.9916L81.1116 7.56L78.2316 18H73.6716L69.1116 1.2H73.7916L76.3116 12L79.1916 1.2H83.0316ZM98.2828 5.52C99.8348 5.2 101.195 5.04 102.363 5.04H103.443C104.531 5.04 105.403 5.368 106.059 6.024C106.715 6.68 107.043 7.552 107.043 8.64V18H102.843V9.12C102.843 8.88 102.763 8.68 102.603 8.52C102.443 8.36 102.243 8.28 102.003 8.28H101.163C100.555 8.28 99.9948 8.312 99.4828 8.376C98.9868 8.44 98.5868 8.488 98.2828 8.52V18H94.0828V1.2H98.2828V5.52ZM114.12 8.04C113.48 8.04 113.16 8.36 113.16 9V10.32H117.24V9C117.24 8.36 116.92 8.04 116.28 8.04H114.12ZM120.96 17.76C117.872 18.08 115.072 18.24 112.56 18.24C111.472 18.24 110.6 17.912 109.944 17.256C109.288 16.6 108.96 15.728 108.96 14.64V8.88C108.96 7.68 109.296 6.744 109.968 6.072C110.656 5.384 111.6 5.04 112.8 5.04H117.6C118.8 5.04 119.736 5.384 120.408 6.072C121.096 6.744 121.44 7.68 121.44 8.88V13.32H113.16V14.28C113.16 14.52 113.24 14.72 113.4 14.88C113.56 15.04 113.76 15.12 114 15.12C115.584 15.12 117.904 15 120.96 14.76V17.76ZM128.511 8.04C127.871 8.04 127.551 8.36 127.551 9V10.32H131.631V9C131.631 8.36 131.311 8.04 130.671 8.04H128.511ZM135.351 17.76C132.263 18.08 129.463 18.24 126.951 18.24C125.863 18.24 124.991 17.912 124.335 17.256C123.679 16.6 123.351 15.728 123.351 14.64V8.88C123.351 7.68 123.687 6.744 124.359 6.072C125.047 5.384 125.991 5.04 127.191 5.04H131.991C133.191 5.04 134.127 5.384 134.799 6.072C135.487 6.744 135.831 7.68 135.831 8.88V13.32H127.551V14.28C127.551 14.52 127.631 14.72 127.791 14.88C127.951 15.04 128.151 15.12 128.391 15.12C129.975 15.12 132.295 15 135.351 14.76V17.76ZM144.461 18C143.389 18.16 142.365 18.24 141.389 18.24C140.429 18.24 139.621 17.912 138.965 17.256C138.309 16.6 137.981 15.728 137.981 14.64V1.2H142.181V14.04C142.181 14.28 142.261 14.48 142.421 14.64C142.581 14.8 142.781 14.88 143.021 14.88H144.461V18Z" fill="white"/>
<path d="M12.24 5.76C12.24 4.8 11.76 4.32 10.8 4.32H6.72C5.76 4.32 5.28 4.8 5.28 5.76V13.44C5.28 14.4 5.76 14.88 6.72 14.88H10.8C11.76 14.88 12.24 14.4 12.24 13.44V5.76ZM16.56 13.44C16.56 15.12 16.176 16.344 15.408 17.112C14.656 17.864 13.44 18.24 11.76 18.24H5.76C4.08 18.24 2.856 17.864 2.088 17.112C1.336 16.344 0.96 15.12 0.96 13.44V5.76C0.96 4.08 1.336 2.864 2.088 2.112C2.856 1.344 4.08 0.959999 5.76 0.959999H11.76C13.44 0.959999 14.656 1.344 15.408 2.112C16.176 2.864 16.56 4.08 16.56 5.76V13.44ZM25.8113 8.52C24.9633 8.52 24.0033 8.68 22.9313 9V14.76H26.5313C27.1713 14.76 27.4913 14.44 27.4913 13.8V9.36C27.4913 9.12 27.4113 8.92 27.2513 8.76C27.0913 8.6 26.8913 8.52 26.6513 8.52H25.8113ZM22.9313 18V22.08H18.7313V5.28H22.4513L22.6913 6.48C23.4433 5.984 24.2113 5.624 24.9953 5.4C25.7953 5.16 26.4673 5.04 27.0113 5.04H28.0913C29.1793 5.04 30.0513 5.368 30.7073 6.024C31.3633 6.68 31.6913 7.552 31.6913 8.64V14.16C31.6913 15.36 31.3473 16.304 30.6593 16.992C29.9873 17.664 29.0512 18 27.8513 18H22.9313ZM38.7684 8.04C38.1284 8.04 37.8084 8.36 37.8084 9V10.32H41.8884V9C41.8884 8.36 41.5684 8.04 40.9284 8.04H38.7684ZM45.6084 17.76C42.5204 18.08 39.7204 18.24 37.2084 18.24C36.1204 18.24 35.2484 17.912 34.5924 17.256C33.9364 16.6 33.6084 15.728 33.6084 14.64V8.88C33.6084 7.68 33.9444 6.744 34.6164 6.072C35.3044 5.384 36.2484 5.04 37.4484 5.04H42.2484C43.4484 5.04 44.3844 5.384 45.0564 6.072C45.7444 6.744 46.0884 7.68 46.0884 8.88V13.32H37.8084V14.28C37.8084 14.52 37.8884 14.72 38.0484 14.88C38.2084 15.04 38.4084 15.12 38.6484 15.12C40.2324 15.12 42.5524 15 45.6084 14.76V17.76ZM55.3191 8.52C54.4711 8.52 53.5111 8.68 52.4391 9V18H48.2391V5.28H51.9591L52.1991 6.48C52.9511 5.984 53.7191 5.624 54.5031 5.4C55.3031 5.16 55.9751 5.04 56.5191 5.04H57.5991C58.6871 5.04 59.5591 5.368 60.2151 6.024C60.8711 6.68 61.1991 7.552 61.1991 8.64V18H56.9991V9.36C56.9991 9.12 56.9191 8.92 56.7591 8.76C56.5991 8.6 56.3991 8.52 56.1591 8.52H55.3191ZM83.0316 1.2L85.9116 12L88.4316 1.2H93.1116L88.5516 18H83.9916L81.1116 7.56L78.2316 18H73.6716L69.1116 1.2H73.7916L76.3116 12L79.1916 1.2H83.0316ZM98.2828 5.52C99.8348 5.2 101.195 5.04 102.363 5.04H103.443C104.531 5.04 105.403 5.368 106.059 6.024C106.715 6.68 107.043 7.552 107.043 8.64V18H102.843V9.12C102.843 8.88 102.763 8.68 102.603 8.52C102.443 8.36 102.243 8.28 102.003 8.28H101.163C100.555 8.28 99.9948 8.312 99.4828 8.376C98.9868 8.44 98.5868 8.488 98.2828 8.52V18H94.0828V1.2H98.2828V5.52ZM114.12 8.04C113.48 8.04 113.16 8.36 113.16 9V10.32H117.24V9C117.24 8.36 116.92 8.04 116.28 8.04H114.12ZM120.96 17.76C117.872 18.08 115.072 18.24 112.56 18.24C111.472 18.24 110.6 17.912 109.944 17.256C109.288 16.6 108.96 15.728 108.96 14.64V8.88C108.96 7.68 109.296 6.744 109.968 6.072C110.656 5.384 111.6 5.04 112.8 5.04H117.6C118.8 5.04 119.736 5.384 120.408 6.072C121.096 6.744 121.44 7.68 121.44 8.88V13.32H113.16V14.28C113.16 14.52 113.24 14.72 113.4 14.88C113.56 15.04 113.76 15.12 114 15.12C115.584 15.12 117.904 15 120.96 14.76V17.76ZM128.511 8.04C127.871 8.04 127.551 8.36 127.551 9V10.32H131.631V9C131.631 8.36 131.311 8.04 130.671 8.04H128.511ZM135.351 17.76C132.263 18.08 129.463 18.24 126.951 18.24C125.863 18.24 124.991 17.912 124.335 17.256C123.679 16.6 123.351 15.728 123.351 14.64V8.88C123.351 7.68 123.687 6.744 124.359 6.072C125.047 5.384 125.991 5.04 127.191 5.04H131.991C133.191 5.04 134.127 5.384 134.799 6.072C135.487 6.744 135.831 7.68 135.831 8.88V13.32H127.551V14.28C127.551 14.52 127.631 14.72 127.791 14.88C127.951 15.04 128.151 15.12 128.391 15.12C129.975 15.12 132.295 15 135.351 14.76V17.76ZM144.461 18C143.389 18.16 142.365 18.24 141.389 18.24C140.429 18.24 139.621 17.912 138.965 17.256C138.309 16.6 137.981 15.728 137.981 14.64V1.2H142.181V14.04C142.181 14.28 142.261 14.48 142.421 14.64C142.581 14.8 142.781 14.88 143.021 14.88H144.461V18Z" fill="url(#paint0_linear_130_3292)"/>
<defs>
<linearGradient id="paint0_linear_130_3292" x1="3.13514" y1="5.44827" x2="139.108" y2="49.0661" gradientUnits="userSpaceOnUse">
<stop stop-color="#FF4B2A"/>
<stop offset="1" stop-color="#FF7551"/>
</linearGradient>
</defs>
</svg>
