<svg width="161" height="23" viewBox="0 0 161 23" fill="none" xmlns="http://www.w3.org/2000/svg">
<path d="M12.24 5.76C12.24 4.8 11.76 4.32 10.8 4.32H6.72C5.76 4.32 5.28 4.8 5.28 5.76V13.44C5.28 14.4 5.76 14.88 6.72 14.88H10.8C11.76 14.88 12.24 14.4 12.24 13.44V5.76ZM16.56 13.44C16.56 15.12 16.176 16.344 15.408 17.112C14.656 17.864 13.44 18.24 11.76 18.24H5.76C4.08 18.24 2.856 17.864 2.088 17.112C1.336 16.344 0.96 15.12 0.96 13.44V5.76C0.96 4.08 1.336 2.864 2.088 2.112C2.856 1.344 4.08 0.959999 5.76 0.959999H11.76C13.44 0.959999 14.656 1.344 15.408 2.112C16.176 2.864 16.56 4.08 16.56 5.76V13.44ZM25.8113 8.52C24.9633 8.52 24.0033 8.68 22.9313 9V14.76H26.5313C27.1713 14.76 27.4913 14.44 27.4913 13.8V9.36C27.4913 9.12 27.4113 8.92 27.2513 8.76C27.0913 8.6 26.8913 8.52 26.6513 8.52H25.8113ZM22.9313 18V22.08H18.7313V5.28H22.4513L22.6913 6.48C23.4433 5.984 24.2113 5.624 24.9953 5.4C25.7953 5.16 26.4673 5.04 27.0113 5.04H28.0913C29.1793 5.04 30.0513 5.368 30.7073 6.024C31.3633 6.68 31.6913 7.552 31.6913 8.64V14.16C31.6913 15.36 31.3473 16.304 30.6593 16.992C29.9873 17.664 29.0512 18 27.8513 18H22.9313ZM38.7684 8.04C38.1284 8.04 37.8084 8.36 37.8084 9V10.32H41.8884V9C41.8884 8.36 41.5684 8.04 40.9284 8.04H38.7684ZM45.6084 17.76C42.5204 18.08 39.7204 18.24 37.2084 18.24C36.1204 18.24 35.2484 17.912 34.5924 17.256C33.9364 16.6 33.6084 15.728 33.6084 14.64V8.88C33.6084 7.68 33.9444 6.744 34.6164 6.072C35.3044 5.384 36.2484 5.04 37.4484 5.04H42.2484C43.4484 5.04 44.3844 5.384 45.0564 6.072C45.7444 6.744 46.0884 7.68 46.0884 8.88V13.32H37.8084V14.28C37.8084 14.52 37.8884 14.72 38.0484 14.88C38.2084 15.04 38.4084 15.12 38.6484 15.12C40.2324 15.12 42.5524 15 45.6084 14.76V17.76ZM55.3191 8.52C54.4711 8.52 53.5111 8.68 52.4391 9V18H48.2391V5.28H51.9591L52.1991 6.48C52.9511 5.984 53.7191 5.624 54.5031 5.4C55.3031 5.16 55.9751 5.04 56.5191 5.04H57.5991C58.6871 5.04 59.5591 5.368 60.2151 6.024C60.8711 6.68 61.1991 7.552 61.1991 8.64V18H56.9991V9.36C56.9991 9.12 56.9191 8.92 56.7591 8.76C56.5991 8.6 56.3991 8.52 56.1591 8.52H55.3191ZM70.7916 1.2H80.3916C81.9596 1.2 83.1116 1.56 83.8476 2.28C84.5836 2.984 84.9516 4.064 84.9516 5.52C84.9516 6.48 84.7436 7.264 84.3276 7.872C83.9116 8.464 83.3996 8.88 82.7916 9.12C84.0876 9.472 84.9676 10.336 85.4316 11.712C85.5916 12.208 85.6716 12.784 85.6716 13.44C85.6716 15.008 85.3036 16.16 84.5676 16.896C83.8316 17.632 82.6796 18 81.1116 18H70.7916V1.2ZM81.3516 12.72C81.3516 11.76 80.8716 11.28 79.9116 11.28H75.1116V14.64H79.9116C80.8716 14.64 81.3516 14.16 81.3516 13.2V12.72ZM80.6316 6C80.6316 5.04 80.1516 4.56 79.1916 4.56H75.1116V7.92H79.1916C80.1516 7.92 80.6316 7.44 80.6316 6.48V6ZM92.5106 8.04C91.8706 8.04 91.5506 8.36 91.5506 9V10.32H95.6306V9C95.6306 8.36 95.3106 8.04 94.6706 8.04H92.5106ZM99.3506 17.76C96.2626 18.08 93.4626 18.24 90.9506 18.24C89.8626 18.24 88.9906 17.912 88.3346 17.256C87.6786 16.6 87.3506 15.728 87.3506 14.64V8.88C87.3506 7.68 87.6866 6.744 88.3586 6.072C89.0466 5.384 89.9906 5.04 91.1906 5.04H95.9906C97.1906 5.04 98.1266 5.384 98.7986 6.072C99.4866 6.744 99.8306 7.68 99.8306 8.88V13.32H91.5506V14.28C91.5506 14.52 91.6306 14.72 91.7906 14.88C91.9506 15.04 92.1506 15.12 92.3906 15.12C93.9746 15.12 96.2946 15 99.3506 14.76V17.76ZM110.861 18C109.309 18.16 107.789 18.24 106.301 18.24C105.213 18.24 104.341 17.912 103.685 17.256C103.029 16.6 102.701 15.728 102.701 14.64V8.52H101.261V5.28H102.701L103.181 2.4H106.901V5.28H109.901V8.52H106.901V14.04C106.901 14.28 106.981 14.48 107.141 14.64C107.301 14.8 107.501 14.88 107.741 14.88H110.861V18ZM120.963 18C119.411 18.16 117.891 18.24 116.403 18.24C115.315 18.24 114.443 17.912 113.787 17.256C113.131 16.6 112.803 15.728 112.803 14.64V8.52H111.363V5.28H112.803L113.283 2.4H117.003V5.28H120.003V8.52H117.003V14.04C117.003 14.28 117.083 14.48 117.243 14.64C117.403 14.8 117.603 14.88 117.843 14.88H120.963V18ZM127.339 8.04C126.699 8.04 126.379 8.36 126.379 9V10.32H130.459V9C130.459 8.36 130.139 8.04 129.499 8.04H127.339ZM134.179 17.76C131.091 18.08 128.291 18.24 125.779 18.24C124.691 18.24 123.819 17.912 123.163 17.256C122.507 16.6 122.179 15.728 122.179 14.64V8.88C122.179 7.68 122.515 6.744 123.187 6.072C123.875 5.384 124.819 5.04 126.019 5.04H130.819C132.019 5.04 132.955 5.384 133.627 6.072C134.315 6.744 134.659 7.68 134.659 8.88V13.32H126.379V14.28C126.379 14.52 126.459 14.72 126.619 14.88C126.779 15.04 126.979 15.12 127.219 15.12C128.803 15.12 131.123 15 134.179 14.76V17.76ZM144.129 8.76C143.121 8.76 142.081 9 141.009 9.48V18H136.809V5.28H140.529L140.769 6.84C142.145 5.64 143.585 5.04 145.089 5.04H146.169V8.76H144.129ZM151.208 22.32C150.36 22.32 149.32 22.24 148.088 22.08V18.96H150.248C150.856 18.96 151.248 18.792 151.424 18.456C151.616 18.12 151.584 17.648 151.328 17.04L146.408 5.28H150.848L153.848 13.44L156.368 5.28H160.808L156.008 18.48C155.544 19.744 154.944 20.696 154.208 21.336C153.472 21.992 152.472 22.32 151.208 22.32Z" fill="black"/>
<path d="M12.24 5.76C12.24 4.8 11.76 4.32 10.8 4.32H6.72C5.76 4.32 5.28 4.8 5.28 5.76V13.44C5.28 14.4 5.76 14.88 6.72 14.88H10.8C11.76 14.88 12.24 14.4 12.24 13.44V5.76ZM16.56 13.44C16.56 15.12 16.176 16.344 15.408 17.112C14.656 17.864 13.44 18.24 11.76 18.24H5.76C4.08 18.24 2.856 17.864 2.088 17.112C1.336 16.344 0.96 15.12 0.96 13.44V5.76C0.96 4.08 1.336 2.864 2.088 2.112C2.856 1.344 4.08 0.959999 5.76 0.959999H11.76C13.44 0.959999 14.656 1.344 15.408 2.112C16.176 2.864 16.56 4.08 16.56 5.76V13.44ZM25.8113 8.52C24.9633 8.52 24.0033 8.68 22.9313 9V14.76H26.5313C27.1713 14.76 27.4913 14.44 27.4913 13.8V9.36C27.4913 9.12 27.4113 8.92 27.2513 8.76C27.0913 8.6 26.8913 8.52 26.6513 8.52H25.8113ZM22.9313 18V22.08H18.7313V5.28H22.4513L22.6913 6.48C23.4433 5.984 24.2113 5.624 24.9953 5.4C25.7953 5.16 26.4673 5.04 27.0113 5.04H28.0913C29.1793 5.04 30.0513 5.368 30.7073 6.024C31.3633 6.68 31.6913 7.552 31.6913 8.64V14.16C31.6913 15.36 31.3473 16.304 30.6593 16.992C29.9873 17.664 29.0512 18 27.8513 18H22.9313ZM38.7684 8.04C38.1284 8.04 37.8084 8.36 37.8084 9V10.32H41.8884V9C41.8884 8.36 41.5684 8.04 40.9284 8.04H38.7684ZM45.6084 17.76C42.5204 18.08 39.7204 18.24 37.2084 18.24C36.1204 18.24 35.2484 17.912 34.5924 17.256C33.9364 16.6 33.6084 15.728 33.6084 14.64V8.88C33.6084 7.68 33.9444 6.744 34.6164 6.072C35.3044 5.384 36.2484 5.04 37.4484 5.04H42.2484C43.4484 5.04 44.3844 5.384 45.0564 6.072C45.7444 6.744 46.0884 7.68 46.0884 8.88V13.32H37.8084V14.28C37.8084 14.52 37.8884 14.72 38.0484 14.88C38.2084 15.04 38.4084 15.12 38.6484 15.12C40.2324 15.12 42.5524 15 45.6084 14.76V17.76ZM55.3191 8.52C54.4711 8.52 53.5111 8.68 52.4391 9V18H48.2391V5.28H51.9591L52.1991 6.48C52.9511 5.984 53.7191 5.624 54.5031 5.4C55.3031 5.16 55.9751 5.04 56.5191 5.04H57.5991C58.6871 5.04 59.5591 5.368 60.2151 6.024C60.8711 6.68 61.1991 7.552 61.1991 8.64V18H56.9991V9.36C56.9991 9.12 56.9191 8.92 56.7591 8.76C56.5991 8.6 56.3991 8.52 56.1591 8.52H55.3191ZM70.7916 1.2H80.3916C81.9596 1.2 83.1116 1.56 83.8476 2.28C84.5836 2.984 84.9516 4.064 84.9516 5.52C84.9516 6.48 84.7436 7.264 84.3276 7.872C83.9116 8.464 83.3996 8.88 82.7916 9.12C84.0876 9.472 84.9676 10.336 85.4316 11.712C85.5916 12.208 85.6716 12.784 85.6716 13.44C85.6716 15.008 85.3036 16.16 84.5676 16.896C83.8316 17.632 82.6796 18 81.1116 18H70.7916V1.2ZM81.3516 12.72C81.3516 11.76 80.8716 11.28 79.9116 11.28H75.1116V14.64H79.9116C80.8716 14.64 81.3516 14.16 81.3516 13.2V12.72ZM80.6316 6C80.6316 5.04 80.1516 4.56 79.1916 4.56H75.1116V7.92H79.1916C80.1516 7.92 80.6316 7.44 80.6316 6.48V6ZM92.5106 8.04C91.8706 8.04 91.5506 8.36 91.5506 9V10.32H95.6306V9C95.6306 8.36 95.3106 8.04 94.6706 8.04H92.5106ZM99.3506 17.76C96.2626 18.08 93.4626 18.24 90.9506 18.24C89.8626 18.24 88.9906 17.912 88.3346 17.256C87.6786 16.6 87.3506 15.728 87.3506 14.64V8.88C87.3506 7.68 87.6866 6.744 88.3586 6.072C89.0466 5.384 89.9906 5.04 91.1906 5.04H95.9906C97.1906 5.04 98.1266 5.384 98.7986 6.072C99.4866 6.744 99.8306 7.68 99.8306 8.88V13.32H91.5506V14.28C91.5506 14.52 91.6306 14.72 91.7906 14.88C91.9506 15.04 92.1506 15.12 92.3906 15.12C93.9746 15.12 96.2946 15 99.3506 14.76V17.76ZM110.861 18C109.309 18.16 107.789 18.24 106.301 18.24C105.213 18.24 104.341 17.912 103.685 17.256C103.029 16.6 102.701 15.728 102.701 14.64V8.52H101.261V5.28H102.701L103.181 2.4H106.901V5.28H109.901V8.52H106.901V14.04C106.901 14.28 106.981 14.48 107.141 14.64C107.301 14.8 107.501 14.88 107.741 14.88H110.861V18ZM120.963 18C119.411 18.16 117.891 18.24 116.403 18.24C115.315 18.24 114.443 17.912 113.787 17.256C113.131 16.6 112.803 15.728 112.803 14.64V8.52H111.363V5.28H112.803L113.283 2.4H117.003V5.28H120.003V8.52H117.003V14.04C117.003 14.28 117.083 14.48 117.243 14.64C117.403 14.8 117.603 14.88 117.843 14.88H120.963V18ZM127.339 8.04C126.699 8.04 126.379 8.36 126.379 9V10.32H130.459V9C130.459 8.36 130.139 8.04 129.499 8.04H127.339ZM134.179 17.76C131.091 18.08 128.291 18.24 125.779 18.24C124.691 18.24 123.819 17.912 123.163 17.256C122.507 16.6 122.179 15.728 122.179 14.64V8.88C122.179 7.68 122.515 6.744 123.187 6.072C123.875 5.384 124.819 5.04 126.019 5.04H130.819C132.019 5.04 132.955 5.384 133.627 6.072C134.315 6.744 134.659 7.68 134.659 8.88V13.32H126.379V14.28C126.379 14.52 126.459 14.72 126.619 14.88C126.779 15.04 126.979 15.12 127.219 15.12C128.803 15.12 131.123 15 134.179 14.76V17.76ZM144.129 8.76C143.121 8.76 142.081 9 141.009 9.48V18H136.809V5.28H140.529L140.769 6.84C142.145 5.64 143.585 5.04 145.089 5.04H146.169V8.76H144.129ZM151.208 22.32C150.36 22.32 149.32 22.24 148.088 22.08V18.96H150.248C150.856 18.96 151.248 18.792 151.424 18.456C151.616 18.12 151.584 17.648 151.328 17.04L146.408 5.28H150.848L153.848 13.44L156.368 5.28H160.808L156.008 18.48C155.544 19.744 154.944 20.696 154.208 21.336C153.472 21.992 152.472 22.32 151.208 22.32Z" fill="white"/>
<path d="M12.24 5.76C12.24 4.8 11.76 4.32 10.8 4.32H6.72C5.76 4.32 5.28 4.8 5.28 5.76V13.44C5.28 14.4 5.76 14.88 6.72 14.88H10.8C11.76 14.88 12.24 14.4 12.24 13.44V5.76ZM16.56 13.44C16.56 15.12 16.176 16.344 15.408 17.112C14.656 17.864 13.44 18.24 11.76 18.24H5.76C4.08 18.24 2.856 17.864 2.088 17.112C1.336 16.344 0.96 15.12 0.96 13.44V5.76C0.96 4.08 1.336 2.864 2.088 2.112C2.856 1.344 4.08 0.959999 5.76 0.959999H11.76C13.44 0.959999 14.656 1.344 15.408 2.112C16.176 2.864 16.56 4.08 16.56 5.76V13.44ZM25.8113 8.52C24.9633 8.52 24.0033 8.68 22.9313 9V14.76H26.5313C27.1713 14.76 27.4913 14.44 27.4913 13.8V9.36C27.4913 9.12 27.4113 8.92 27.2513 8.76C27.0913 8.6 26.8913 8.52 26.6513 8.52H25.8113ZM22.9313 18V22.08H18.7313V5.28H22.4513L22.6913 6.48C23.4433 5.984 24.2113 5.624 24.9953 5.4C25.7953 5.16 26.4673 5.04 27.0113 5.04H28.0913C29.1793 5.04 30.0513 5.368 30.7073 6.024C31.3633 6.68 31.6913 7.552 31.6913 8.64V14.16C31.6913 15.36 31.3473 16.304 30.6593 16.992C29.9873 17.664 29.0512 18 27.8513 18H22.9313ZM38.7684 8.04C38.1284 8.04 37.8084 8.36 37.8084 9V10.32H41.8884V9C41.8884 8.36 41.5684 8.04 40.9284 8.04H38.7684ZM45.6084 17.76C42.5204 18.08 39.7204 18.24 37.2084 18.24C36.1204 18.24 35.2484 17.912 34.5924 17.256C33.9364 16.6 33.6084 15.728 33.6084 14.64V8.88C33.6084 7.68 33.9444 6.744 34.6164 6.072C35.3044 5.384 36.2484 5.04 37.4484 5.04H42.2484C43.4484 5.04 44.3844 5.384 45.0564 6.072C45.7444 6.744 46.0884 7.68 46.0884 8.88V13.32H37.8084V14.28C37.8084 14.52 37.8884 14.72 38.0484 14.88C38.2084 15.04 38.4084 15.12 38.6484 15.12C40.2324 15.12 42.5524 15 45.6084 14.76V17.76ZM55.3191 8.52C54.4711 8.52 53.5111 8.68 52.4391 9V18H48.2391V5.28H51.9591L52.1991 6.48C52.9511 5.984 53.7191 5.624 54.5031 5.4C55.3031 5.16 55.9751 5.04 56.5191 5.04H57.5991C58.6871 5.04 59.5591 5.368 60.2151 6.024C60.8711 6.68 61.1991 7.552 61.1991 8.64V18H56.9991V9.36C56.9991 9.12 56.9191 8.92 56.7591 8.76C56.5991 8.6 56.3991 8.52 56.1591 8.52H55.3191ZM70.7916 1.2H80.3916C81.9596 1.2 83.1116 1.56 83.8476 2.28C84.5836 2.984 84.9516 4.064 84.9516 5.52C84.9516 6.48 84.7436 7.264 84.3276 7.872C83.9116 8.464 83.3996 8.88 82.7916 9.12C84.0876 9.472 84.9676 10.336 85.4316 11.712C85.5916 12.208 85.6716 12.784 85.6716 13.44C85.6716 15.008 85.3036 16.16 84.5676 16.896C83.8316 17.632 82.6796 18 81.1116 18H70.7916V1.2ZM81.3516 12.72C81.3516 11.76 80.8716 11.28 79.9116 11.28H75.1116V14.64H79.9116C80.8716 14.64 81.3516 14.16 81.3516 13.2V12.72ZM80.6316 6C80.6316 5.04 80.1516 4.56 79.1916 4.56H75.1116V7.92H79.1916C80.1516 7.92 80.6316 7.44 80.6316 6.48V6ZM92.5106 8.04C91.8706 8.04 91.5506 8.36 91.5506 9V10.32H95.6306V9C95.6306 8.36 95.3106 8.04 94.6706 8.04H92.5106ZM99.3506 17.76C96.2626 18.08 93.4626 18.24 90.9506 18.24C89.8626 18.24 88.9906 17.912 88.3346 17.256C87.6786 16.6 87.3506 15.728 87.3506 14.64V8.88C87.3506 7.68 87.6866 6.744 88.3586 6.072C89.0466 5.384 89.9906 5.04 91.1906 5.04H95.9906C97.1906 5.04 98.1266 5.384 98.7986 6.072C99.4866 6.744 99.8306 7.68 99.8306 8.88V13.32H91.5506V14.28C91.5506 14.52 91.6306 14.72 91.7906 14.88C91.9506 15.04 92.1506 15.12 92.3906 15.12C93.9746 15.12 96.2946 15 99.3506 14.76V17.76ZM110.861 18C109.309 18.16 107.789 18.24 106.301 18.24C105.213 18.24 104.341 17.912 103.685 17.256C103.029 16.6 102.701 15.728 102.701 14.64V8.52H101.261V5.28H102.701L103.181 2.4H106.901V5.28H109.901V8.52H106.901V14.04C106.901 14.28 106.981 14.48 107.141 14.64C107.301 14.8 107.501 14.88 107.741 14.88H110.861V18ZM120.963 18C119.411 18.16 117.891 18.24 116.403 18.24C115.315 18.24 114.443 17.912 113.787 17.256C113.131 16.6 112.803 15.728 112.803 14.64V8.52H111.363V5.28H112.803L113.283 2.4H117.003V5.28H120.003V8.52H117.003V14.04C117.003 14.28 117.083 14.48 117.243 14.64C117.403 14.8 117.603 14.88 117.843 14.88H120.963V18ZM127.339 8.04C126.699 8.04 126.379 8.36 126.379 9V10.32H130.459V9C130.459 8.36 130.139 8.04 129.499 8.04H127.339ZM134.179 17.76C131.091 18.08 128.291 18.24 125.779 18.24C124.691 18.24 123.819 17.912 123.163 17.256C122.507 16.6 122.179 15.728 122.179 14.64V8.88C122.179 7.68 122.515 6.744 123.187 6.072C123.875 5.384 124.819 5.04 126.019 5.04H130.819C132.019 5.04 132.955 5.384 133.627 6.072C134.315 6.744 134.659 7.68 134.659 8.88V13.32H126.379V14.28C126.379 14.52 126.459 14.72 126.619 14.88C126.779 15.04 126.979 15.12 127.219 15.12C128.803 15.12 131.123 15 134.179 14.76V17.76ZM144.129 8.76C143.121 8.76 142.081 9 141.009 9.48V18H136.809V5.28H140.529L140.769 6.84C142.145 5.64 143.585 5.04 145.089 5.04H146.169V8.76H144.129ZM151.208 22.32C150.36 22.32 149.32 22.24 148.088 22.08V18.96H150.248C150.856 18.96 151.248 18.792 151.424 18.456C151.616 18.12 151.584 17.648 151.328 17.04L146.408 5.28H150.848L153.848 13.44L156.368 5.28H160.808L156.008 18.48C155.544 19.744 154.944 20.696 154.208 21.336C153.472 21.992 152.472 22.32 151.208 22.32Z" fill="url(#paint0_linear_130_3290)"/>
<defs>
<linearGradient id="paint0_linear_130_3290" x1="3.48108" y1="5.44827" x2="151.248" y2="58.0797" gradientUnits="userSpaceOnUse">
<stop stop-color="#FF4B2A"/>
<stop offset="1" stop-color="#FF7551"/>
</linearGradient>
</defs>
</svg>
