<svg width="48" height="52" viewBox="0 0 48 52" fill="none" xmlns="http://www.w3.org/2000/svg">
<path d="M46.1596 39.7956L45.8754 39.2274C45.0801 37.3527 35.3089 34.5122 34.5136 34.4555L33.8887 34.5122C32.6955 34.7392 31.389 35.8187 28.8326 38.0342C28.3215 38.4888 27.6395 38.6025 27.0146 38.2613C23.6629 36.3866 19.5726 32.6371 17.5274 30.3648C15.3119 27.9222 12.6418 23.8886 11.392 20.6502C11.165 20.0253 11.392 19.3437 11.8465 18.8893C14.7437 16.2758 15.9935 15.0264 16.1072 13.6628C16.1639 12.8675 14.46 2.81225 12.6985 1.84649L12.1873 1.5057C11.0512 0.767058 9.34683 -0.312398 7.47212 0.0854693C7.0176 0.199199 6.56308 0.369597 6.16561 0.596661C4.91621 1.39277 1.79161 3.55165 0.371376 6.335C-0.4806 8.09598 -0.878427 24.0595 11.0515 37.5233C22.8678 50.8734 37.4678 51.4415 39.6265 50.987H39.6832L39.8536 50.9304C42.8078 49.8509 45.3075 47.0676 46.2731 45.8744C48.0341 43.7725 46.8414 41.2158 46.1594 39.7956L46.1596 39.7956Z" fill="url(#paint0_linear_130_3183)"/>
<defs>
<linearGradient id="paint0_linear_130_3183" x1="1.02035" y1="15.8545" x2="49.7105" y2="18.2426" gradientUnits="userSpaceOnUse">
<stop stop-color="#FF4B2A"/>
<stop offset="1" stop-color="#FF7551"/>
</linearGradient>
</defs>
</svg>
