<svg width="50" height="39" viewBox="0 0 50 39" fill="none" xmlns="http://www.w3.org/2000/svg">
<path d="M49.1993 3.23593H41.5233V0.800636C41.5233 0.358527 41.1649 0 40.7227 0H35.2328C34.7907 0 34.4322 0.358415 34.4322 0.800636V3.23593H15.5676V0.800636C15.5676 0.358527 15.2091 0 14.7669 0H9.2771C8.83499 0 8.47646 0.358415 8.47646 0.800636V3.23593H0.800635C0.358527 3.23593 0 3.59435 0 4.03657V9.14715C0 9.58926 0.358415 9.94779 0.800635 9.94779H3.40006H46.5999H49.1994C49.6414 9.94779 50 9.58938 50 9.14715V4.03657C49.9999 3.59446 49.6414 3.23593 49.1993 3.23593Z" fill="black"/>
<path d="M49.1993 3.23593H41.5233V0.800636C41.5233 0.358527 41.1649 0 40.7227 0H35.2328C34.7907 0 34.4322 0.358415 34.4322 0.800636V3.23593H15.5676V0.800636C15.5676 0.358527 15.2091 0 14.7669 0H9.2771C8.83499 0 8.47646 0.358415 8.47646 0.800636V3.23593H0.800635C0.358527 3.23593 0 3.59435 0 4.03657V9.14715C0 9.58926 0.358415 9.94779 0.800635 9.94779H3.40006H46.5999H49.1994C49.6414 9.94779 50 9.58938 50 9.14715V4.03657C49.9999 3.59446 49.6414 3.23593 49.1993 3.23593Z" fill="white"/>
<path d="M49.1993 3.23593H41.5233V0.800636C41.5233 0.358527 41.1649 0 40.7227 0H35.2328C34.7907 0 34.4322 0.358415 34.4322 0.800636V3.23593H15.5676V0.800636C15.5676 0.358527 15.2091 0 14.7669 0H9.2771C8.83499 0 8.47646 0.358415 8.47646 0.800636V3.23593H0.800635C0.358527 3.23593 0 3.59435 0 4.03657V9.14715C0 9.58926 0.358415 9.94779 0.800635 9.94779H3.40006H46.5999H49.1994C49.6414 9.94779 50 9.58938 50 9.14715V4.03657C49.9999 3.59446 49.6414 3.23593 49.1993 3.23593Z" fill="url(#paint0_linear_130_3305)"/>
<path d="M3.40039 37.2468C3.40039 37.8203 3.86524 38.2854 4.43877 38.2854H45.5619C46.1354 38.2854 46.6004 37.8204 46.6004 37.2468V12.6743H3.40039V37.2468ZM20.0849 26.6356L22.5179 18.8599C22.5597 18.7264 22.6835 18.6354 22.8235 18.6354H26.6176C26.72 18.6354 26.816 18.6845 26.8765 18.7673C26.9368 18.8499 26.9537 18.9567 26.922 19.0542L25.4407 23.6298H29.6105C29.7278 23.6298 29.8355 23.6939 29.8917 23.7967C29.9477 23.8996 29.9431 24.0247 29.8797 24.1232L24.3092 32.767C24.2489 32.8605 24.1464 32.9137 24.0401 32.9137C24.0017 32.9137 23.9629 32.9068 23.9253 32.8925C23.7837 32.8381 23.6998 32.6916 23.7244 32.5419L24.6238 27.0514H20.3905C20.2887 27.0514 20.1929 27.0028 20.1326 26.9207C20.0721 26.8386 20.0544 26.7327 20.0849 26.6356Z" fill="black"/>
<path d="M3.40039 37.2468C3.40039 37.8203 3.86524 38.2854 4.43877 38.2854H45.5619C46.1354 38.2854 46.6004 37.8204 46.6004 37.2468V12.6743H3.40039V37.2468ZM20.0849 26.6356L22.5179 18.8599C22.5597 18.7264 22.6835 18.6354 22.8235 18.6354H26.6176C26.72 18.6354 26.816 18.6845 26.8765 18.7673C26.9368 18.8499 26.9537 18.9567 26.922 19.0542L25.4407 23.6298H29.6105C29.7278 23.6298 29.8355 23.6939 29.8917 23.7967C29.9477 23.8996 29.9431 24.0247 29.8797 24.1232L24.3092 32.767C24.2489 32.8605 24.1464 32.9137 24.0401 32.9137C24.0017 32.9137 23.9629 32.9068 23.9253 32.8925C23.7837 32.8381 23.6998 32.6916 23.7244 32.5419L24.6238 27.0514H20.3905C20.2887 27.0514 20.1929 27.0028 20.1326 26.9207C20.0721 26.8386 20.0544 26.7327 20.0849 26.6356Z" fill="white"/>
<path d="M3.40039 37.2468C3.40039 37.8203 3.86524 38.2854 4.43877 38.2854H45.5619C46.1354 38.2854 46.6004 37.8204 46.6004 37.2468V12.6743H3.40039V37.2468ZM20.0849 26.6356L22.5179 18.8599C22.5597 18.7264 22.6835 18.6354 22.8235 18.6354H26.6176C26.72 18.6354 26.816 18.6845 26.8765 18.7673C26.9368 18.8499 26.9537 18.9567 26.922 19.0542L25.4407 23.6298H29.6105C29.7278 23.6298 29.8355 23.6939 29.8917 23.7967C29.9477 23.8996 29.9431 24.0247 29.8797 24.1232L24.3092 32.767C24.2489 32.8605 24.1464 32.9137 24.0401 32.9137C24.0017 32.9137 23.9629 32.9068 23.9253 32.8925C23.7837 32.8381 23.6998 32.6916 23.7244 32.5419L24.6238 27.0514H20.3905C20.2887 27.0514 20.1929 27.0028 20.1326 26.9207C20.0721 26.8386 20.0544 26.7327 20.0849 26.6356Z" fill="url(#paint1_linear_130_3305)"/>
<defs>
<linearGradient id="paint0_linear_130_3305" x1="1.08108" y1="3.08724" x2="49.3551" y2="15.9701" gradientUnits="userSpaceOnUse">
<stop stop-color="#FF4B2A"/>
<stop offset="1" stop-color="#FF7551"/>
</linearGradient>
<linearGradient id="paint1_linear_130_3305" x1="4.33444" y1="20.6226" x2="48.6582" y2="24.5922" gradientUnits="userSpaceOnUse">
<stop stop-color="#FF4B2A"/>
<stop offset="1" stop-color="#FF7551"/>
</linearGradient>
</defs>
</svg>
