<svg width="54" height="50" viewBox="0 0 54 50" fill="none" xmlns="http://www.w3.org/2000/svg">
<path d="M42.6646 31.2734C42.7229 30.8585 42.75 30.5151 42.75 30.1931C42.75 29.8701 42.7229 29.5256 42.6646 29.1108C42.6003 28.66 42.8198 28.2151 43.2161 27.987L44.546 27.2242C44.0995 25.7829 43.3311 24.4665 42.288 23.3552L40.9641 24.1155C40.5659 24.3437 40.0707 24.3092 39.7096 24.0282C39.128 23.5774 38.4947 23.2119 37.8262 22.9414C37.4019 22.7701 37.1251 22.3608 37.1251 21.9055V20.3789C35.65 20.0469 34.1002 20.0469 32.6251 20.3789V21.9055C32.6251 22.3608 32.3484 22.7701 31.924 22.9419C31.2535 23.2124 30.6212 23.5769 30.0416 24.0277C29.6815 24.3107 29.1823 24.3442 28.786 24.116L27.4621 23.3557C26.418 24.4685 25.651 25.7845 25.2041 27.2247L26.5341 27.9885C26.9313 28.2166 27.1493 28.6614 27.0855 29.1123C27.0273 29.5266 27.0002 29.8711 27.0002 30.1931C27.0002 30.5116 27.0273 30.856 27.0845 31.2744C27.1473 31.7252 26.9293 32.169 26.5331 32.3961L25.2031 33.159C25.6486 34.5993 26.417 35.9167 27.4597 37.0305L28.7851 36.2701C29.1824 36.042 29.6786 36.0765 30.0397 36.3575C30.6223 36.8093 31.2556 37.1747 31.9241 37.4458C32.3484 37.6161 32.6252 38.0254 32.6252 38.4807V40.0073C34.1003 40.3393 35.6501 40.3393 37.1252 40.0073V38.4807C37.1252 38.0254 37.4019 37.6161 37.8263 37.4443C38.4948 37.1747 39.1281 36.8093 39.7106 36.356C40.0717 36.0755 40.569 36.0405 40.9652 36.2687L42.2891 37.029C43.3318 35.9172 44.0992 34.6002 44.5471 33.16L43.2161 32.3962C42.8199 32.1691 42.6004 31.7243 42.6647 31.2734L42.6646 31.2734ZM34.875 34.6662C32.3934 34.6662 30.375 32.6598 30.375 30.1931C30.375 27.7264 32.3934 25.72 34.875 25.72C37.3565 25.72 39.375 27.7264 39.375 30.1931C39.375 32.6598 37.3565 34.6662 34.875 34.6662Z" fill="#FF4B2A"/>
<path d="M42.6646 31.2734C42.7229 30.8585 42.75 30.5151 42.75 30.1931C42.75 29.8701 42.7229 29.5256 42.6646 29.1108C42.6003 28.66 42.8198 28.2151 43.2161 27.987L44.546 27.2242C44.0995 25.7829 43.3311 24.4665 42.288 23.3552L40.9641 24.1155C40.5659 24.3437 40.0707 24.3092 39.7096 24.0282C39.128 23.5774 38.4947 23.2119 37.8262 22.9414C37.4019 22.7701 37.1251 22.3608 37.1251 21.9055V20.3789C35.65 20.0469 34.1002 20.0469 32.6251 20.3789V21.9055C32.6251 22.3608 32.3484 22.7701 31.924 22.9419C31.2535 23.2124 30.6212 23.5769 30.0416 24.0277C29.6815 24.3107 29.1823 24.3442 28.786 24.116L27.4621 23.3557C26.418 24.4685 25.651 25.7845 25.2041 27.2247L26.5341 27.9885C26.9313 28.2166 27.1493 28.6614 27.0855 29.1123C27.0273 29.5266 27.0002 29.8711 27.0002 30.1931C27.0002 30.5116 27.0273 30.856 27.0845 31.2744C27.1473 31.7252 26.9293 32.169 26.5331 32.3961L25.2031 33.159C25.6486 34.5993 26.417 35.9167 27.4597 37.0305L28.7851 36.2701C29.1824 36.042 29.6786 36.0765 30.0397 36.3575C30.6223 36.8093 31.2556 37.1747 31.9241 37.4458C32.3484 37.6161 32.6252 38.0254 32.6252 38.4807V40.0073C34.1003 40.3393 35.6501 40.3393 37.1252 40.0073V38.4807C37.1252 38.0254 37.4019 37.6161 37.8263 37.4443C38.4948 37.1747 39.1281 36.8093 39.7106 36.356C40.0717 36.0755 40.569 36.0405 40.9652 36.2687L42.2891 37.029C43.3318 35.9172 44.0992 34.6002 44.5471 33.16L43.2161 32.3962C42.8199 32.1691 42.6004 31.7243 42.6647 31.2734L42.6646 31.2734ZM34.875 34.6662C32.3934 34.6662 30.375 32.6598 30.375 30.1931C30.375 27.7264 32.3934 25.72 34.875 25.72C37.3565 25.72 39.375 27.7264 39.375 30.1931C39.375 32.6598 37.3565 34.6662 34.875 34.6662Z" fill="url(#paint0_linear_130_3334)"/>
<path d="M10.125 19.0105V41.3758C10.125 42.6104 11.133 43.6123 12.375 43.6123H13.5V16.7739H12.375C11.133 16.7739 10.125 17.7759 10.125 19.0105Z" fill="#FF4B2A"/>
<path d="M10.125 19.0105V41.3758C10.125 42.6104 11.133 43.6123 12.375 43.6123H13.5V16.7739H12.375C11.133 16.7739 10.125 17.7759 10.125 19.0105Z" fill="url(#paint1_linear_130_3334)"/>
<path d="M49.5001 11.1826H22.5C21.9039 11.1826 21.3313 11.4188 20.9095 11.8381L15.75 16.774V43.6123L20.9095 48.5482C21.3313 48.9675 21.9039 49.2037 22.5 49.2037H54.0001V15.6557L51.3001 12.0772C50.9289 11.585 50.1188 11.1826 49.5001 11.1826V11.1826ZM46.9508 32.8617C46.4018 35.3218 45.1146 37.5314 43.2292 39.2502C42.8656 39.5792 42.3292 39.6381 41.9064 39.3945L40.47 38.5693C40.1169 38.8039 39.7498 39.0146 39.3741 39.2023V40.8627C39.3741 41.3524 39.0547 41.7833 38.5856 41.9295C37.3837 42.304 36.1351 42.4942 34.8751 42.4942C33.6151 42.4942 32.3665 42.304 31.1637 41.9295C30.6946 41.7828 30.3752 41.3524 30.3752 40.8627V39.2023C29.9985 39.0146 29.6339 38.8044 29.2793 38.5693L27.8413 39.3945C27.416 39.6381 26.8806 39.5802 26.5174 39.2492C24.6321 37.5284 23.3458 35.3173 22.7984 32.8581C22.6924 32.3818 22.9099 31.8921 23.3348 31.648L24.7736 30.8228C24.758 30.6036 24.75 30.3969 24.75 30.1932C24.75 29.9876 24.758 29.7794 24.7736 29.5612L23.3357 28.736C22.9103 28.4909 22.6943 28.0026 22.7993 27.5259C23.3462 25.0657 24.634 22.8561 26.5208 21.1363C26.8844 20.8063 27.4208 20.7484 27.8437 20.992L29.2801 21.8172C29.6321 21.5836 29.9978 21.3734 30.3749 21.1852V19.5248C30.3749 19.0351 30.6944 18.6042 31.1634 18.458C33.5676 17.7086 36.1822 17.7086 38.5864 18.458C39.0555 18.6037 39.3749 19.0341 39.3749 19.5238V21.1842C39.7506 21.3719 40.1162 21.5821 40.4698 21.8162L41.9062 20.991C42.329 20.7474 42.8669 20.8053 43.229 21.1353C45.1144 22.8541 46.4006 25.0637 46.9505 27.5238C47.0565 28.0011 46.8391 28.4898 46.4142 28.735L44.9762 29.5592C44.9918 29.7794 44.9998 29.9875 44.9998 30.1932C44.9998 30.3989 44.9918 30.6061 44.9762 30.8237L46.4151 31.6489C46.8405 31.8941 47.0564 32.3838 46.9504 32.8616L46.9508 32.8617Z" fill="#FF4B2A"/>
<path d="M49.5001 11.1826H22.5C21.9039 11.1826 21.3313 11.4188 20.9095 11.8381L15.75 16.774V43.6123L20.9095 48.5482C21.3313 48.9675 21.9039 49.2037 22.5 49.2037H54.0001V15.6557L51.3001 12.0772C50.9289 11.585 50.1188 11.1826 49.5001 11.1826V11.1826ZM46.9508 32.8617C46.4018 35.3218 45.1146 37.5314 43.2292 39.2502C42.8656 39.5792 42.3292 39.6381 41.9064 39.3945L40.47 38.5693C40.1169 38.8039 39.7498 39.0146 39.3741 39.2023V40.8627C39.3741 41.3524 39.0547 41.7833 38.5856 41.9295C37.3837 42.304 36.1351 42.4942 34.8751 42.4942C33.6151 42.4942 32.3665 42.304 31.1637 41.9295C30.6946 41.7828 30.3752 41.3524 30.3752 40.8627V39.2023C29.9985 39.0146 29.6339 38.8044 29.2793 38.5693L27.8413 39.3945C27.416 39.6381 26.8806 39.5802 26.5174 39.2492C24.6321 37.5284 23.3458 35.3173 22.7984 32.8581C22.6924 32.3818 22.9099 31.8921 23.3348 31.648L24.7736 30.8228C24.758 30.6036 24.75 30.3969 24.75 30.1932C24.75 29.9876 24.758 29.7794 24.7736 29.5612L23.3357 28.736C22.9103 28.4909 22.6943 28.0026 22.7993 27.5259C23.3462 25.0657 24.634 22.8561 26.5208 21.1363C26.8844 20.8063 27.4208 20.7484 27.8437 20.992L29.2801 21.8172C29.6321 21.5836 29.9978 21.3734 30.3749 21.1852V19.5248C30.3749 19.0351 30.6944 18.6042 31.1634 18.458C33.5676 17.7086 36.1822 17.7086 38.5864 18.458C39.0555 18.6037 39.3749 19.0341 39.3749 19.5238V21.1842C39.7506 21.3719 40.1162 21.5821 40.4698 21.8162L41.9062 20.991C42.329 20.7474 42.8669 20.8053 43.229 21.1353C45.1144 22.8541 46.4006 25.0637 46.9505 27.5238C47.0565 28.0011 46.8391 28.4898 46.4142 28.735L44.9762 29.5592C44.9918 29.7794 44.9998 29.9875 44.9998 30.1932C44.9998 30.3989 44.9918 30.6061 44.9762 30.8237L46.4151 31.6489C46.8405 31.8941 47.0564 32.3838 46.9504 32.8616L46.9508 32.8617Z" fill="url(#paint2_linear_130_3334)"/>
<path d="M5.62501 13.419C5.62501 12.8005 5.12227 12.3008 4.50001 12.3008H1.125C0.502741 12.3008 0 12.8005 0 13.419V42.494C0 43.1125 0.502741 43.6122 1.125 43.6122H4.50001C5.12227 43.6122 5.62501 43.1125 5.62501 42.494V36.9026H7.87502V23.4834H5.62501V13.419Z" fill="#FF4B2A"/>
<path d="M5.62501 13.419C5.62501 12.8005 5.12227 12.3008 4.50001 12.3008H1.125C0.502741 12.3008 0 12.8005 0 13.419V42.494C0 43.1125 0.502741 43.6122 1.125 43.6122H4.50001C5.12227 43.6122 5.62501 43.1125 5.62501 42.494V36.9026H7.87502V23.4834H5.62501V13.419Z" fill="url(#paint3_linear_130_3334)"/>
<path d="M24.75 6.7096H28.125V8.94613H41.625V6.7096H45C45.6223 6.7096 46.125 6.20986 46.125 5.59133V1.11827C46.125 0.499731 45.6223 0 45 0H24.75C24.1277 0 23.625 0.499731 23.625 1.11827V5.59133C23.625 6.20986 24.1277 6.7096 24.75 6.7096Z" fill="#FF4B2A"/>
<path d="M24.75 6.7096H28.125V8.94613H41.625V6.7096H45C45.6223 6.7096 46.125 6.20986 46.125 5.59133V1.11827C46.125 0.499731 45.6223 0 45 0H24.75C24.1277 0 23.625 0.499731 23.625 1.11827V5.59133C23.625 6.20986 24.1277 6.7096 24.75 6.7096Z" fill="url(#paint4_linear_130_3334)"/>
<defs>
<linearGradient id="paint0_linear_130_3334" x1="25.6214" y1="26.376" x2="45.5757" y2="27.3943" gradientUnits="userSpaceOnUse">
<stop stop-color="#FF4B2A"/>
<stop offset="1" stop-color="#FF7551"/>
</linearGradient>
<linearGradient id="paint1_linear_130_3334" x1="10.198" y1="25.1031" x2="13.6884" y2="25.1264" gradientUnits="userSpaceOnUse">
<stop stop-color="#FF4B2A"/>
<stop offset="1" stop-color="#FF7551"/>
</linearGradient>
<linearGradient id="paint2_linear_130_3334" x1="16.577" y1="22.9822" x2="56.0243" y2="25.0893" gradientUnits="userSpaceOnUse">
<stop stop-color="#FF4B2A"/>
<stop offset="1" stop-color="#FF7551"/>
</linearGradient>
<linearGradient id="paint3_linear_130_3334" x1="0.170271" y1="22.0181" x2="8.31349" y2="22.1269" gradientUnits="userSpaceOnUse">
<stop stop-color="#FF4B2A"/>
<stop offset="1" stop-color="#FF7551"/>
</linearGradient>
<linearGradient id="paint4_linear_130_3334" x1="24.1115" y1="2.77638" x2="46.9743" y2="5.82942" gradientUnits="userSpaceOnUse">
<stop stop-color="#FF4B2A"/>
<stop offset="1" stop-color="#FF7551"/>
</linearGradient>
</defs>
</svg>
