<svg width="49" height="32" viewBox="0 0 49 32" fill="none" xmlns="http://www.w3.org/2000/svg">
<path d="M24.5006 5.70505C26.2023 5.70662 27.8117 5.82609 29.2962 6.03399C29.2962 6.03399 29.5238 5.07663 29.7557 4.59005C29.4005 4.46546 28.4714 4.368 27.0114 4.27721C26.0439 4.21787 25.6308 4.21119 24.5014 4.20215C23.372 4.21119 22.9588 4.21748 21.9914 4.27721C20.531 4.368 19.6022 4.46546 19.2471 4.59005C19.4782 5.07697 19.7057 6.03399 19.7057 6.03399C21.1899 5.82609 22.7992 5.70662 24.5006 5.70505H24.5006Z" fill="white"/>
<path d="M24.5006 5.70505C26.2023 5.70662 27.8117 5.82609 29.2962 6.03399C29.2962 6.03399 29.5238 5.07663 29.7557 4.59005C29.4005 4.46546 28.4714 4.368 27.0114 4.27721C26.0439 4.21787 25.6308 4.21119 24.5014 4.20215C23.372 4.21119 22.9588 4.21748 21.9914 4.27721C20.531 4.368 19.6022 4.46546 19.2471 4.59005C19.4782 5.07697 19.7057 6.03399 19.7057 6.03399C21.1899 5.82609 22.7992 5.70662 24.5006 5.70505H24.5006Z" fill="url(#paint0_linear_130_3316)"/>
<path d="M16.035 20.9657C16.419 19.2867 17.6843 17.4291 19.0021 16.9755C20.7774 17.2561 22.653 17.3992 24.5005 17.4015C26.3477 17.3992 28.2241 17.2561 29.999 16.9755C31.3163 17.4291 32.5821 19.2868 32.9652 20.9657C42.3034 18.944 45.4161 15.3277 46.2696 14.0241C45.3448 12.2245 42.8795 9.9675 39.8381 11.1705C40.2596 9.66999 39.116 8.20875 38.1426 7.52692C38.1426 7.52692 37.699 7.95844 37.2399 8.65092C38.1714 9.10602 38.7276 10.1357 38.7276 10.8002C38.7276 11.5399 38.1493 12.3059 37.1147 13.012C36.8746 12.9405 36.6292 12.8741 36.3843 12.8065C35.966 11.8955 36.5056 9.8028 37.2399 8.65082C37.2111 8.62842 34.6679 6.83322 29.2963 6.03418C28.8329 8.04163 29.0154 10.0039 29.4555 11.5343C27.8394 11.3708 26.1798 11.2871 24.5006 11.2859C22.8221 11.2871 21.1626 11.3708 19.5457 11.5343C19.9862 10.0039 20.1687 8.04163 19.7049 6.03418C14.3333 6.83316 11.7897 8.62799 11.7612 8.65082C12.4956 9.8031 13.0357 11.8955 12.6169 12.8065C12.3723 12.8741 12.1266 12.9405 11.8865 13.012C10.8519 12.3054 10.2736 11.5398 10.2736 10.8002C10.2736 10.1349 10.829 9.10558 11.7609 8.65092C11.3014 7.95845 10.8582 7.52692 10.8582 7.52692C9.88486 8.20878 8.7408 9.66999 9.162 11.1705C6.12108 9.9675 3.65528 12.2246 2.73047 14.0241C3.58492 15.3277 6.69701 18.944 16.0348 20.9657H16.035ZM24.5001 12.7896C28.264 12.7923 31.9188 13.2223 35.2015 14.0303C32.6397 15.1174 28.8671 15.8912 24.5001 15.8963C20.1338 15.8912 16.361 15.1178 13.7998 14.0303C17.0821 13.2223 20.7366 12.7923 24.5001 12.7896Z" fill="white"/>
<path d="M16.035 20.9657C16.419 19.2867 17.6843 17.4291 19.0021 16.9755C20.7774 17.2561 22.653 17.3992 24.5005 17.4015C26.3477 17.3992 28.2241 17.2561 29.999 16.9755C31.3163 17.4291 32.5821 19.2868 32.9652 20.9657C42.3034 18.944 45.4161 15.3277 46.2696 14.0241C45.3448 12.2245 42.8795 9.9675 39.8381 11.1705C40.2596 9.66999 39.116 8.20875 38.1426 7.52692C38.1426 7.52692 37.699 7.95844 37.2399 8.65092C38.1714 9.10602 38.7276 10.1357 38.7276 10.8002C38.7276 11.5399 38.1493 12.3059 37.1147 13.012C36.8746 12.9405 36.6292 12.8741 36.3843 12.8065C35.966 11.8955 36.5056 9.8028 37.2399 8.65082C37.2111 8.62842 34.6679 6.83322 29.2963 6.03418C28.8329 8.04163 29.0154 10.0039 29.4555 11.5343C27.8394 11.3708 26.1798 11.2871 24.5006 11.2859C22.8221 11.2871 21.1626 11.3708 19.5457 11.5343C19.9862 10.0039 20.1687 8.04163 19.7049 6.03418C14.3333 6.83316 11.7897 8.62799 11.7612 8.65082C12.4956 9.8031 13.0357 11.8955 12.6169 12.8065C12.3723 12.8741 12.1266 12.9405 11.8865 13.012C10.8519 12.3054 10.2736 11.5398 10.2736 10.8002C10.2736 10.1349 10.829 9.10558 11.7609 8.65092C11.3014 7.95845 10.8582 7.52692 10.8582 7.52692C9.88486 8.20878 8.7408 9.66999 9.162 11.1705C6.12108 9.9675 3.65528 12.2246 2.73047 14.0241C3.58492 15.3277 6.69701 18.944 16.0348 20.9657H16.035ZM24.5001 12.7896C28.264 12.7923 31.9188 13.2223 35.2015 14.0303C32.6397 15.1174 28.8671 15.8912 24.5001 15.8963C20.1338 15.8912 16.361 15.1178 13.7998 14.0303C17.0821 13.2223 20.7366 12.7923 24.5001 12.7896Z" fill="url(#paint1_linear_130_3316)"/>
<path d="M24.5003 21.7388C21.0553 21.7388 18.9845 21.4409 16.0352 20.9665C16.0352 20.9665 15.8851 21.7368 15.835 22.3609C16.719 22.542 20.1116 23.1701 24.5004 23.1701C28.8892 23.1701 32.2817 22.542 33.1665 22.3597C33.1156 21.736 32.9655 20.9653 32.9655 20.9653C30.0162 21.4405 27.9454 21.7388 24.5004 21.7388H24.5003Z" fill="white"/>
<path d="M24.5003 21.7388C21.0553 21.7388 18.9845 21.4409 16.0352 20.9665C16.0352 20.9665 15.8851 21.7368 15.835 22.3609C16.719 22.542 20.1116 23.1701 24.5004 23.1701C28.8892 23.1701 32.2817 22.542 33.1665 22.3597C33.1156 21.736 32.9655 20.9653 32.9655 20.9653C30.0162 21.4405 27.9454 21.7388 24.5004 21.7388H24.5003Z" fill="url(#paint2_linear_130_3316)"/>
<path d="M48.318 10.8145C46.6189 3.71369 38.9379 0 24.5003 0C10.0623 0 2.38166 3.71389 0.682714 10.8145C-0.797089 16.9984 0.326005 22.4419 2.16919 24.9682C5.56729 29.623 13.4935 31.968 24.5002 31.9735C35.507 31.968 43.4334 29.623 46.8313 24.9682C48.6748 22.442 49.7963 16.998 48.3177 10.8145H48.318ZM46.547 22.9449C47.6155 19.2991 47.0546 16.2379 46.8488 15.5164C46.0876 16.6923 42.8578 20.4238 33.1662 22.3601C33.5727 26.1282 32.3544 29.6704 31.7094 29.9761C28.6735 30.4241 27.6485 30.4253 24.4997 30.4693C21.3508 30.4253 20.3258 30.4241 17.29 29.9765C16.6449 29.6707 15.4266 26.1286 15.8335 22.3605C6.14183 20.4238 2.91141 16.6922 2.15093 15.5163C1.94472 16.2375 1.38457 19.299 2.45273 22.9449C1.2483 20.5008 0.894354 16.6923 1.45488 14.1443C1.61803 14.4874 1.92734 15.1865 2.15093 15.5163C2.15093 15.5163 2.26312 14.8899 2.73044 14.0245C2.35911 13.3894 1.95974 12.2898 1.95974 11.4728C1.95974 11.2963 1.97554 11.1194 2.00003 10.9426C2.39308 9.09119 3.24754 7.67441 4.63532 6.67697C6.1585 5.58164 9.31329 5.7259 10.8586 7.52782C10.9838 7.42407 13.5661 5.50105 19.2463 4.59124C18.743 3.41693 17.9869 2.59827 17.2561 2.04301C19.4852 1.69913 21.9096 1.50695 24.4993 1.50498C27.0891 1.50734 29.5135 1.69952 31.7438 2.04182C31.0138 2.59753 30.2574 3.41614 29.7536 4.59005C35.4334 5.49986 38.0161 7.42281 38.1413 7.52663C39.6866 5.72472 42.841 5.58045 44.3638 6.67578C45.752 7.67362 46.606 9.09 46.9994 10.9414C47.0227 11.1183 47.0389 11.2951 47.0389 11.4716C47.0389 12.2886 46.6395 13.3883 46.2682 14.0233C46.7359 14.8887 46.8477 15.5152 46.8477 15.5152C47.0713 15.1854 47.3794 14.487 47.5437 14.1431C48.1051 16.6922 47.7511 20.5007 46.5463 22.9448L46.547 22.9449Z" fill="white"/>
<path d="M48.318 10.8145C46.6189 3.71369 38.9379 0 24.5003 0C10.0623 0 2.38166 3.71389 0.682714 10.8145C-0.797089 16.9984 0.326005 22.4419 2.16919 24.9682C5.56729 29.623 13.4935 31.968 24.5002 31.9735C35.507 31.968 43.4334 29.623 46.8313 24.9682C48.6748 22.442 49.7963 16.998 48.3177 10.8145H48.318ZM46.547 22.9449C47.6155 19.2991 47.0546 16.2379 46.8488 15.5164C46.0876 16.6923 42.8578 20.4238 33.1662 22.3601C33.5727 26.1282 32.3544 29.6704 31.7094 29.9761C28.6735 30.4241 27.6485 30.4253 24.4997 30.4693C21.3508 30.4253 20.3258 30.4241 17.29 29.9765C16.6449 29.6707 15.4266 26.1286 15.8335 22.3605C6.14183 20.4238 2.91141 16.6922 2.15093 15.5163C1.94472 16.2375 1.38457 19.299 2.45273 22.9449C1.2483 20.5008 0.894354 16.6923 1.45488 14.1443C1.61803 14.4874 1.92734 15.1865 2.15093 15.5163C2.15093 15.5163 2.26312 14.8899 2.73044 14.0245C2.35911 13.3894 1.95974 12.2898 1.95974 11.4728C1.95974 11.2963 1.97554 11.1194 2.00003 10.9426C2.39308 9.09119 3.24754 7.67441 4.63532 6.67697C6.1585 5.58164 9.31329 5.7259 10.8586 7.52782C10.9838 7.42407 13.5661 5.50105 19.2463 4.59124C18.743 3.41693 17.9869 2.59827 17.2561 2.04301C19.4852 1.69913 21.9096 1.50695 24.4993 1.50498C27.0891 1.50734 29.5135 1.69952 31.7438 2.04182C31.0138 2.59753 30.2574 3.41614 29.7536 4.59005C35.4334 5.49986 38.0161 7.42281 38.1413 7.52663C39.6866 5.72472 42.841 5.58045 44.3638 6.67578C45.752 7.67362 46.606 9.09 46.9994 10.9414C47.0227 11.1183 47.0389 11.2951 47.0389 11.4716C47.0389 12.2886 46.6395 13.3883 46.2682 14.0233C46.7359 14.8887 46.8477 15.5152 46.8477 15.5152C47.0713 15.1854 47.3794 14.487 47.5437 14.1431C48.1051 16.6922 47.7511 20.5007 46.5463 22.9448L46.547 22.9449Z" fill="url(#paint3_linear_130_3316)"/>
<defs>
<linearGradient id="paint0_linear_130_3316" x1="19.4743" y1="4.77065" x2="29.42" y2="7.79999" gradientUnits="userSpaceOnUse">
<stop stop-color="#FF4B2A"/>
<stop offset="1" stop-color="#FF7551"/>
</linearGradient>
<linearGradient id="paint1_linear_130_3316" x1="3.67186" y1="10.6681" x2="47.6478" y2="17.4765" gradientUnits="userSpaceOnUse">
<stop stop-color="#FF4B2A"/>
<stop offset="1" stop-color="#FF7551"/>
</linearGradient>
<linearGradient id="paint2_linear_130_3316" x1="16.2097" y1="21.6496" x2="31.4753" y2="28.0212" gradientUnits="userSpaceOnUse">
<stop stop-color="#FF4B2A"/>
<stop offset="1" stop-color="#FF7551"/>
</linearGradient>
<linearGradient id="paint3_linear_130_3316" x1="1.05946" y1="9.92281" x2="51.404" y2="14.0193" gradientUnits="userSpaceOnUse">
<stop stop-color="#FF4B2A"/>
<stop offset="1" stop-color="#FF7551"/>
</linearGradient>
</defs>
</svg>
