<svg width="38" height="55" viewBox="0 0 38 55" fill="none" xmlns="http://www.w3.org/2000/svg">
<path d="M31.8513 36.7179H25.1905C25.959 38.5109 26.386 39.8775 26.386 40.9019C26.386 45.0007 23.0558 48.3309 18.9571 48.3309C14.8583 48.3309 11.5282 45.0006 11.5282 40.9019C11.5282 39.877 11.9551 38.5109 12.7237 36.7179H6.06286C5.55062 36.7179 5.20898 37.0595 5.20898 37.5718V48.5869C5.20898 49.0992 5.55061 49.4408 6.06286 49.4408L31.8511 49.4412C32.3633 49.4412 32.705 49.0996 32.705 48.5873V37.5712C32.705 37.0589 32.3634 36.7173 31.8511 36.7173L31.8513 36.7179Z" fill="white"/>
<path d="M31.8513 36.7179H25.1905C25.959 38.5109 26.386 39.8775 26.386 40.9019C26.386 45.0007 23.0558 48.3309 18.9571 48.3309C14.8583 48.3309 11.5282 45.0006 11.5282 40.9019C11.5282 39.877 11.9551 38.5109 12.7237 36.7179H6.06286C5.55062 36.7179 5.20898 37.0595 5.20898 37.5718V48.5869C5.20898 49.0992 5.55061 49.4408 6.06286 49.4408L31.8511 49.4412C32.3633 49.4412 32.705 49.0996 32.705 48.5873V37.5712C32.705 37.0589 32.3634 36.7173 31.8511 36.7173L31.8513 36.7179Z" fill="url(#paint0_linear_130_3310)"/>
<path d="M18.9576 46.6248C22.1172 46.6248 24.6788 44.0632 24.6788 40.9035C24.6788 38.1709 20.3238 31.0836 18.9576 28.7783C17.5057 31.084 13.2363 38.2571 13.2363 40.9035C13.2363 44.0628 15.7979 46.6248 18.9576 46.6248Z" fill="white"/>
<path d="M18.9576 46.6248C22.1172 46.6248 24.6788 44.0632 24.6788 40.9035C24.6788 38.1709 20.3238 31.0836 18.9576 28.7783C17.5057 31.084 13.2363 38.2571 13.2363 40.9035C13.2363 44.0628 15.7979 46.6248 18.9576 46.6248Z" fill="url(#paint1_linear_130_3310)"/>
<path d="M24.4217 0.853878C24.4217 0.426939 24.08 0 23.5678 0H15.2845C14.8576 0 14.4307 0.426939 14.4307 0.853878V5.3796H24.4216L24.4217 0.853878Z" fill="white"/>
<path d="M24.4217 0.853878C24.4217 0.426939 24.08 0 23.5678 0H15.2845C14.8576 0 14.4307 0.426939 14.4307 0.853878V5.3796H24.4216L24.4217 0.853878Z" fill="url(#paint2_linear_130_3310)"/>
<path d="M24.422 9.0516V7.08789H14.4314V8.79567H5.97757C2.64736 8.79567 0 11.443 0 14.7732V51.321C0 53.1998 1.53709 54.7365 3.41555 54.7365H34.5841C36.4628 54.7365 37.9996 53.1995 37.9996 51.321L38 25.0195C38 17.0779 32.2788 10.2464 24.4225 9.05079L24.422 9.0516ZM23.3975 13.1507C23.4828 12.7238 23.9098 12.3821 24.4224 12.4674C28.4359 13.3213 31.8513 16.054 33.4739 19.8111C33.6445 20.238 33.4739 20.7503 33.0469 20.9213C32.9616 21.0066 32.7906 21.0066 32.7053 21.0066C32.3637 21.0066 32.0221 20.836 31.9368 20.4943C30.4849 17.2495 27.4964 14.8585 24.0805 14.1752C23.6536 14.0899 23.3122 13.663 23.3975 13.1507ZM4.26969 14.7731C4.26969 13.834 5.03826 13.0654 5.97747 13.0654L10.5036 13.065V30.9972H4.27009L4.26969 14.7731ZM34.4137 48.5029C34.4137 49.869 33.3035 51.0646 31.8521 51.0646L5.97827 51.0649C4.52643 51.0649 3.41666 49.8694 3.41666 48.5033L3.41627 37.5727C3.41627 36.2066 4.52644 35.0111 5.97788 35.0111H13.4068C15.3709 30.9977 18.1035 26.8989 18.1888 26.6426C18.5305 26.1304 19.299 26.1304 19.6407 26.6426C19.726 26.8132 22.4586 30.9977 24.4227 35.0111H31.8521C33.3039 35.0111 34.4137 36.2066 34.4137 37.5727L34.4137 48.5029ZM33.7304 25.8738C33.3035 25.8738 32.8765 25.4469 32.8765 25.02C32.8765 24.3367 32.7912 23.7391 32.7059 23.0558C32.6206 22.6289 32.9622 22.1167 33.3892 22.0309C33.8161 21.9456 34.3284 22.2872 34.4141 22.7142C34.5847 23.4827 34.5847 24.2513 34.5847 24.9345C34.5847 25.5321 34.2431 25.8738 33.7304 25.8738Z" fill="white"/>
<path d="M24.422 9.0516V7.08789H14.4314V8.79567H5.97757C2.64736 8.79567 0 11.443 0 14.7732V51.321C0 53.1998 1.53709 54.7365 3.41555 54.7365H34.5841C36.4628 54.7365 37.9996 53.1995 37.9996 51.321L38 25.0195C38 17.0779 32.2788 10.2464 24.4225 9.05079L24.422 9.0516ZM23.3975 13.1507C23.4828 12.7238 23.9098 12.3821 24.4224 12.4674C28.4359 13.3213 31.8513 16.054 33.4739 19.8111C33.6445 20.238 33.4739 20.7503 33.0469 20.9213C32.9616 21.0066 32.7906 21.0066 32.7053 21.0066C32.3637 21.0066 32.0221 20.836 31.9368 20.4943C30.4849 17.2495 27.4964 14.8585 24.0805 14.1752C23.6536 14.0899 23.3122 13.663 23.3975 13.1507ZM4.26969 14.7731C4.26969 13.834 5.03826 13.0654 5.97747 13.0654L10.5036 13.065V30.9972H4.27009L4.26969 14.7731ZM34.4137 48.5029C34.4137 49.869 33.3035 51.0646 31.8521 51.0646L5.97827 51.0649C4.52643 51.0649 3.41666 49.8694 3.41666 48.5033L3.41627 37.5727C3.41627 36.2066 4.52644 35.0111 5.97788 35.0111H13.4068C15.3709 30.9977 18.1035 26.8989 18.1888 26.6426C18.5305 26.1304 19.299 26.1304 19.6407 26.6426C19.726 26.8132 22.4586 30.9977 24.4227 35.0111H31.8521C33.3039 35.0111 34.4137 36.2066 34.4137 37.5727L34.4137 48.5029ZM33.7304 25.8738C33.3035 25.8738 32.8765 25.4469 32.8765 25.02C32.8765 24.3367 32.7912 23.7391 32.7059 23.0558C32.6206 22.6289 32.9622 22.1167 33.3892 22.0309C33.8161 21.9456 34.3284 22.2872 34.4141 22.7142C34.5847 23.4827 34.5847 24.2513 34.5847 24.9345C34.5847 25.5321 34.2431 25.8738 33.7304 25.8738Z" fill="url(#paint3_linear_130_3310)"/>
<defs>
<linearGradient id="paint0_linear_130_3310" x1="5.80349" y1="40.6661" x2="33.8715" y2="43.8865" gradientUnits="userSpaceOnUse">
<stop stop-color="#FF4B2A"/>
<stop offset="1" stop-color="#FF7551"/>
</linearGradient>
<linearGradient id="paint1_linear_130_3310" x1="13.4837" y1="34.3169" x2="25.3043" y2="34.7193" gradientUnits="userSpaceOnUse">
<stop stop-color="#FF4B2A"/>
<stop offset="1" stop-color="#FF7551"/>
</linearGradient>
<linearGradient id="paint2_linear_130_3310" x1="14.6467" y1="1.66953" x2="24.8803" y2="2.67865" gradientUnits="userSpaceOnUse">
<stop stop-color="#FF4B2A"/>
<stop offset="1" stop-color="#FF7551"/>
</linearGradient>
<linearGradient id="paint3_linear_130_3310" x1="0.821622" y1="21.8754" x2="40.0525" y2="23.5366" gradientUnits="userSpaceOnUse">
<stop stop-color="#FF4B2A"/>
<stop offset="1" stop-color="#FF7551"/>
</linearGradient>
</defs>
</svg>
