<svg width="55" height="48" viewBox="0 0 55 48" fill="none" xmlns="http://www.w3.org/2000/svg">
<path d="M51.4634 0C51.1467 0 50.9094 0.238873 50.9094 0.557756V7.51222C50.9094 7.83111 51.1467 8.0684 51.4634 8.0684C51.7801 8.0684 52.0165 7.8311 52.0165 7.51222V0.557756C52.0165 0.238863 51.7808 0 51.4634 0ZM28.7633 1.69255C19.092 1.73 9.92302 9.16145 7.95377 18.722C7.02911 23.2984 7.52432 28.071 7.40219 32.8806L7.40297 32.8656V45.6629H7.71968C15.6505 45.6255 23.5719 45.7784 31.47 45.5585C40.8543 44.7472 49.1902 37.0293 50.7336 27.6652C50.734 27.6625 50.7348 27.6597 50.7351 27.6566C52.036 20.4754 49.5815 12.6251 44.2344 7.66743C44.2039 7.63984 44.1765 7.60949 44.1522 7.57677H35.5621C37.4851 8.33872 39.2729 9.44672 40.8055 10.8586L40.8063 10.8594C45.8374 15.3495 47.729 22.8666 45.5243 29.2431C43.4158 35.786 37.1597 40.6166 30.3324 40.9536C30.325 40.954 30.3179 40.9544 30.3105 40.9548C24.415 41.0313 18.5241 40.9698 12.6433 40.9847C12.4844 40.9855 12.3317 40.9221 12.219 40.8093C12.1066 40.6962 12.0432 40.5429 12.0432 40.3828V33.625C12.0037 33.5032 12.0037 33.3716 12.0432 33.2498V25.8338C11.9591 22.7998 12.1407 19.6251 13.476 16.729C16.0793 10.5377 22.4818 6.31316 29.1599 6.3737C29.1619 6.37331 29.1642 6.37331 29.1662 6.37291C29.181 6.37094 29.1959 6.36937 29.2108 6.36858C29.2159 6.36818 29.221 6.36779 29.2257 6.36739H29.23H29.2362H49.7074V1.69247H29.2302C29.2204 1.69208 29.2103 1.69168 29.2005 1.69089C29.0529 1.68892 28.9053 1.68656 28.7585 1.68656L28.7633 1.69255ZM53.2121 1.69689V6.37181H55V1.69689H53.2121ZM28.139 3.22233C28.4612 3.22943 28.7199 3.49274 28.7238 3.81714C28.7281 4.14155 28.476 4.41117 28.1539 4.42615C20.6134 4.79825 13.6014 10.2135 11.2764 17.4424C11.231 17.5985 11.1249 17.7294 10.9816 17.8055C10.8387 17.8816 10.6716 17.8961 10.5177 17.8461C10.3639 17.7956 10.237 17.6849 10.1658 17.539C10.0942 17.3928 10.0848 17.2241 10.1392 17.0707C12.6266 9.33775 20.0269 3.62154 28.094 3.22295C28.1088 3.22216 28.1241 3.22194 28.139 3.22233ZM28.6318 7.58C26.2333 7.6474 23.8751 8.31316 21.7588 9.44682L26.7743 18.1947C27.3514 17.9322 27.9761 17.7564 28.6322 17.6902L28.6318 7.58ZM29.8282 7.58631V17.6903C30.4843 17.7578 31.1091 17.9312 31.6861 18.1941C33.3613 15.2729 35.0372 12.3509 36.7122 9.42964C34.5928 8.30934 32.2225 7.66794 29.8282 7.58631ZM37.7488 10.0298C36.0729 12.9527 34.3975 15.8759 32.7216 18.7983C33.2442 19.1783 33.7034 19.6411 34.0807 20.1673L42.7913 15.1028C42.0284 13.862 41.0975 12.7275 40.006 11.7547C40.0041 11.7523 40.0017 11.7503 39.9994 11.748C39.3029 11.1062 38.5479 10.5324 37.7488 10.0298ZM20.7241 10.0523C18.6943 11.3369 16.9405 13.0642 15.667 15.1033L24.3797 20.1693C24.757 19.643 25.2166 19.1803 25.7392 18.8003L20.7241 10.0523ZM15.0709 16.1482C14.8904 16.4967 14.7236 16.8514 14.5713 17.2144L14.5709 17.214C14.5682 17.2215 14.5655 17.229 14.5627 17.2365C13.7215 19.0584 13.371 21.0481 13.2622 23.0845H23.2796C23.3465 22.4239 23.5187 21.7948 23.7799 21.2137L15.0709 16.1482ZM43.382 16.1526L34.6804 21.2118C34.9411 21.7929 35.1149 22.4215 35.1807 23.0822H45.2164C45.1142 20.6757 44.4836 18.2882 43.3827 16.153L43.382 16.1526ZM29.2304 18.8672C26.5813 18.8672 24.4463 21.0163 24.4463 23.6836C24.4463 26.351 26.5814 28.5008 29.2304 28.5008C31.8796 28.5008 34.0138 26.351 34.0138 23.6836C34.0138 21.0163 31.8795 18.8672 29.2304 18.8672ZM13.2249 24.2864C13.2186 24.7921 13.2245 25.2994 13.2397 25.8059L13.2394 25.8055C13.2397 25.8107 13.2401 25.8154 13.2405 25.8205V32.373C16.7547 30.3012 20.2682 28.2294 23.7823 26.1576C23.5208 25.5758 23.3462 24.9462 23.2804 24.2848L13.2249 24.2864ZM35.1793 24.2864C35.1124 24.947 34.9401 25.5757 34.679 26.1567L43.3931 31.2227C43.7897 30.4686 44.1259 29.6815 44.3882 28.8655C44.3894 28.8604 44.3914 28.8553 44.3925 28.8505C44.9018 27.3795 45.1731 25.8359 45.2217 24.2836H35.179L35.1793 24.2864ZM34.0792 27.1993C33.7018 27.7255 33.2426 28.1875 32.7204 28.5675L37.7371 37.3175C39.7626 36.0293 41.5109 34.2949 42.7921 32.2633L34.0792 27.1993ZM24.3813 27.2009C20.667 29.3905 16.9531 31.5801 13.2392 33.7695V39.7846C15.2373 39.7783 17.2341 39.7826 19.231 39.7857C21.3998 36.0454 23.5681 32.3054 25.7369 28.5646C25.2158 28.1854 24.7578 27.7246 24.3817 27.2L24.3813 27.2009ZM26.7716 29.1702C24.7195 32.7095 22.6671 36.2492 20.6149 39.7889C23.2887 39.7932 25.9613 39.7932 28.6314 39.7664V29.6735C27.9746 29.6061 27.349 29.4319 26.7715 29.1682L26.7716 29.1702ZM31.6857 29.171C31.1087 29.4343 30.4839 29.6093 29.8274 29.6748V39.7558C29.9781 39.7538 30.1285 39.7538 30.2792 39.7515C32.5293 39.6395 34.7232 38.9868 36.7036 37.9221L31.6857 29.171ZM47.9228 29.4517C48.1158 29.4513 48.2971 29.5447 48.4094 29.7028C48.5222 29.8604 48.5519 30.0634 48.4901 30.2475C46.0027 37.9805 38.6019 43.6967 30.5343 44.0953C30.3742 44.1067 30.216 44.0519 30.0958 43.9447C29.976 43.8375 29.9036 43.6857 29.8958 43.5245C29.8876 43.3629 29.9443 43.2048 30.0535 43.0858C30.1624 42.9671 30.3143 42.8974 30.4748 42.8922C38.0153 42.5201 45.0262 37.1057 47.3522 29.877L47.3518 29.8774C47.4289 29.6251 47.6603 29.4532 47.9222 29.4524L47.9228 29.4517ZM3.53694 39.2919C3.22024 39.2919 2.98458 39.5308 2.98458 39.8497V46.8041C2.98458 47.123 3.22025 47.3611 3.53694 47.3611C3.85364 47.3611 4.09087 47.123 4.09087 46.8041V39.8493C4.09087 39.5304 3.85442 39.2919 3.53694 39.2919ZM0 40.9884V45.6646H1.78786V40.9884H0ZM5.28642 40.9884V45.6646H6.20481V40.9884H5.28642Z" fill="white"/>
<path d="M51.4634 0C51.1467 0 50.9094 0.238873 50.9094 0.557756V7.51222C50.9094 7.83111 51.1467 8.0684 51.4634 8.0684C51.7801 8.0684 52.0165 7.8311 52.0165 7.51222V0.557756C52.0165 0.238863 51.7808 0 51.4634 0ZM28.7633 1.69255C19.092 1.73 9.92302 9.16145 7.95377 18.722C7.02911 23.2984 7.52432 28.071 7.40219 32.8806L7.40297 32.8656V45.6629H7.71968C15.6505 45.6255 23.5719 45.7784 31.47 45.5585C40.8543 44.7472 49.1902 37.0293 50.7336 27.6652C50.734 27.6625 50.7348 27.6597 50.7351 27.6566C52.036 20.4754 49.5815 12.6251 44.2344 7.66743C44.2039 7.63984 44.1765 7.60949 44.1522 7.57677H35.5621C37.4851 8.33872 39.2729 9.44672 40.8055 10.8586L40.8063 10.8594C45.8374 15.3495 47.729 22.8666 45.5243 29.2431C43.4158 35.786 37.1597 40.6166 30.3324 40.9536C30.325 40.954 30.3179 40.9544 30.3105 40.9548C24.415 41.0313 18.5241 40.9698 12.6433 40.9847C12.4844 40.9855 12.3317 40.9221 12.219 40.8093C12.1066 40.6962 12.0432 40.5429 12.0432 40.3828V33.625C12.0037 33.5032 12.0037 33.3716 12.0432 33.2498V25.8338C11.9591 22.7998 12.1407 19.6251 13.476 16.729C16.0793 10.5377 22.4818 6.31316 29.1599 6.3737C29.1619 6.37331 29.1642 6.37331 29.1662 6.37291C29.181 6.37094 29.1959 6.36937 29.2108 6.36858C29.2159 6.36818 29.221 6.36779 29.2257 6.36739H29.23H29.2362H49.7074V1.69247H29.2302C29.2204 1.69208 29.2103 1.69168 29.2005 1.69089C29.0529 1.68892 28.9053 1.68656 28.7585 1.68656L28.7633 1.69255ZM53.2121 1.69689V6.37181H55V1.69689H53.2121ZM28.139 3.22233C28.4612 3.22943 28.7199 3.49274 28.7238 3.81714C28.7281 4.14155 28.476 4.41117 28.1539 4.42615C20.6134 4.79825 13.6014 10.2135 11.2764 17.4424C11.231 17.5985 11.1249 17.7294 10.9816 17.8055C10.8387 17.8816 10.6716 17.8961 10.5177 17.8461C10.3639 17.7956 10.237 17.6849 10.1658 17.539C10.0942 17.3928 10.0848 17.2241 10.1392 17.0707C12.6266 9.33775 20.0269 3.62154 28.094 3.22295C28.1088 3.22216 28.1241 3.22194 28.139 3.22233ZM28.6318 7.58C26.2333 7.6474 23.8751 8.31316 21.7588 9.44682L26.7743 18.1947C27.3514 17.9322 27.9761 17.7564 28.6322 17.6902L28.6318 7.58ZM29.8282 7.58631V17.6903C30.4843 17.7578 31.1091 17.9312 31.6861 18.1941C33.3613 15.2729 35.0372 12.3509 36.7122 9.42964C34.5928 8.30934 32.2225 7.66794 29.8282 7.58631ZM37.7488 10.0298C36.0729 12.9527 34.3975 15.8759 32.7216 18.7983C33.2442 19.1783 33.7034 19.6411 34.0807 20.1673L42.7913 15.1028C42.0284 13.862 41.0975 12.7275 40.006 11.7547C40.0041 11.7523 40.0017 11.7503 39.9994 11.748C39.3029 11.1062 38.5479 10.5324 37.7488 10.0298ZM20.7241 10.0523C18.6943 11.3369 16.9405 13.0642 15.667 15.1033L24.3797 20.1693C24.757 19.643 25.2166 19.1803 25.7392 18.8003L20.7241 10.0523ZM15.0709 16.1482C14.8904 16.4967 14.7236 16.8514 14.5713 17.2144L14.5709 17.214C14.5682 17.2215 14.5655 17.229 14.5627 17.2365C13.7215 19.0584 13.371 21.0481 13.2622 23.0845H23.2796C23.3465 22.4239 23.5187 21.7948 23.7799 21.2137L15.0709 16.1482ZM43.382 16.1526L34.6804 21.2118C34.9411 21.7929 35.1149 22.4215 35.1807 23.0822H45.2164C45.1142 20.6757 44.4836 18.2882 43.3827 16.153L43.382 16.1526ZM29.2304 18.8672C26.5813 18.8672 24.4463 21.0163 24.4463 23.6836C24.4463 26.351 26.5814 28.5008 29.2304 28.5008C31.8796 28.5008 34.0138 26.351 34.0138 23.6836C34.0138 21.0163 31.8795 18.8672 29.2304 18.8672ZM13.2249 24.2864C13.2186 24.7921 13.2245 25.2994 13.2397 25.8059L13.2394 25.8055C13.2397 25.8107 13.2401 25.8154 13.2405 25.8205V32.373C16.7547 30.3012 20.2682 28.2294 23.7823 26.1576C23.5208 25.5758 23.3462 24.9462 23.2804 24.2848L13.2249 24.2864ZM35.1793 24.2864C35.1124 24.947 34.9401 25.5757 34.679 26.1567L43.3931 31.2227C43.7897 30.4686 44.1259 29.6815 44.3882 28.8655C44.3894 28.8604 44.3914 28.8553 44.3925 28.8505C44.9018 27.3795 45.1731 25.8359 45.2217 24.2836H35.179L35.1793 24.2864ZM34.0792 27.1993C33.7018 27.7255 33.2426 28.1875 32.7204 28.5675L37.7371 37.3175C39.7626 36.0293 41.5109 34.2949 42.7921 32.2633L34.0792 27.1993ZM24.3813 27.2009C20.667 29.3905 16.9531 31.5801 13.2392 33.7695V39.7846C15.2373 39.7783 17.2341 39.7826 19.231 39.7857C21.3998 36.0454 23.5681 32.3054 25.7369 28.5646C25.2158 28.1854 24.7578 27.7246 24.3817 27.2L24.3813 27.2009ZM26.7716 29.1702C24.7195 32.7095 22.6671 36.2492 20.6149 39.7889C23.2887 39.7932 25.9613 39.7932 28.6314 39.7664V29.6735C27.9746 29.6061 27.349 29.4319 26.7715 29.1682L26.7716 29.1702ZM31.6857 29.171C31.1087 29.4343 30.4839 29.6093 29.8274 29.6748V39.7558C29.9781 39.7538 30.1285 39.7538 30.2792 39.7515C32.5293 39.6395 34.7232 38.9868 36.7036 37.9221L31.6857 29.171ZM47.9228 29.4517C48.1158 29.4513 48.2971 29.5447 48.4094 29.7028C48.5222 29.8604 48.5519 30.0634 48.4901 30.2475C46.0027 37.9805 38.6019 43.6967 30.5343 44.0953C30.3742 44.1067 30.216 44.0519 30.0958 43.9447C29.976 43.8375 29.9036 43.6857 29.8958 43.5245C29.8876 43.3629 29.9443 43.2048 30.0535 43.0858C30.1624 42.9671 30.3143 42.8974 30.4748 42.8922C38.0153 42.5201 45.0262 37.1057 47.3522 29.877L47.3518 29.8774C47.4289 29.6251 47.6603 29.4532 47.9222 29.4524L47.9228 29.4517ZM3.53694 39.2919C3.22024 39.2919 2.98458 39.5308 2.98458 39.8497V46.8041C2.98458 47.123 3.22025 47.3611 3.53694 47.3611C3.85364 47.3611 4.09087 47.123 4.09087 46.8041V39.8493C4.09087 39.5304 3.85442 39.2919 3.53694 39.2919ZM0 40.9884V45.6646H1.78786V40.9884H0ZM5.28642 40.9884V45.6646H6.20481V40.9884H5.28642Z" fill="url(#paint0_linear_130_3328)"/>
<defs>
<linearGradient id="paint0_linear_130_3328" x1="1.18919" y1="14.6983" x2="57.857" y2="18.1923" gradientUnits="userSpaceOnUse">
<stop stop-color="#FF4B2A"/>
<stop offset="1" stop-color="#FF7551"/>
</linearGradient>
</defs>
</svg>
