<svg width="21" height="20" viewBox="0 0 21 20" fill="none" xmlns="http://www.w3.org/2000/svg">
<path d="M20.5966 0.0468777C20.8652 -0.132601 21.1524 0.246476 20.9066 0.456403C15.2239 5.32172 10.5102 12.0836 7.2585 19.0823C7.1655 19.2819 6.88106 19.2803 6.79077 19.0796C4.90744 14.9 2.6319 11.5411 0.107838 9.71373C-0.124394 9.54568 0.0507313 9.18129 0.327552 9.25744C2.95715 9.98458 5.67752 12.1122 7.02191 14.2767C10.278 8.58204 14.8796 3.8689 20.5966 0.0476531L20.5966 0.0468777Z" fill="#FB5F07"/>
<path d="M20.5966 0.0468777C20.8652 -0.132601 21.1524 0.246476 20.9066 0.456403C15.2239 5.32172 10.5102 12.0836 7.2585 19.0823C7.1655 19.2819 6.88106 19.2803 6.79077 19.0796C4.90744 14.9 2.6319 11.5411 0.107838 9.71373C-0.124394 9.54568 0.0507313 9.18129 0.327552 9.25744C2.95715 9.98458 5.67752 12.1122 7.02191 14.2767C10.278 8.58204 14.8796 3.8689 20.5966 0.0476531L20.5966 0.0468777Z" fill="url(#paint0_linear_130_1506)"/>
<defs>
<linearGradient id="paint0_linear_130_1506" x1="0.454054" y1="5.96826" x2="22.1004" y2="7.22329" gradientUnits="userSpaceOnUse">
<stop stop-color="#FF4B2A"/>
<stop offset="1" stop-color="#FF7551"/>
</linearGradient>
</defs>
</svg>
