<svg width="156" height="61" viewBox="0 0 156 61" fill="none" xmlns="http://www.w3.org/2000/svg">
<path fill-rule="evenodd" clip-rule="evenodd" d="M22.5 8C34.9058 8 45 18.0942 45 30.5C45 42.9058 34.9058 53 22.5 53C10.0942 53 0 42.9058 0 30.5C0 18.0942 10.0942 8 22.5 8ZM22.5 9.95632C11.1718 9.95632 1.95632 19.1718 1.95632 30.5C1.95632 41.8282 11.1718 51.0437 22.5 51.0437C33.8282 51.0437 43.0437 41.8282 43.0437 30.5C43.0437 19.1718 33.8282 9.95632 22.5 9.95632ZM22.5 13.8701C31.6705 13.8701 39.1299 21.3307 39.1299 30.5C39.1299 39.6705 31.6693 47.1299 22.5 47.1299C13.3295 47.1299 5.87013 39.6693 5.87013 30.5C5.87013 21.3295 13.3307 13.8701 22.5 13.8701ZM22.5 15.8264C14.4083 15.8264 7.82645 22.4083 7.82645 30.5C7.82645 38.5917 14.4083 45.1736 22.5 45.1736C30.5917 45.1736 37.1736 38.5917 37.1736 30.5C37.1736 22.4083 30.5917 15.8264 22.5 15.8264ZM22.5 17.7828C23.04 17.7828 23.4782 18.2209 23.4782 18.7609V28.1387L27.6774 23.9395C27.8638 23.7714 28.1076 23.6813 28.3585 23.6877C28.6094 23.6942 28.8483 23.7968 29.0258 23.9742C29.2032 24.1517 29.3058 24.3906 29.3123 24.6415C29.3187 24.8924 29.2286 25.1362 29.0605 25.3226L23.1904 31.1928C23.0535 31.3296 22.8791 31.4228 22.6893 31.4604C22.4995 31.4981 22.3027 31.4787 22.124 31.4045C21.9452 31.3303 21.7925 31.2048 21.6851 31.0438C21.5777 30.8828 21.5205 30.6935 21.5207 30.5V18.7609C21.5207 18.2209 21.96 17.7828 22.5 17.7828Z" fill="white"/>
<path fill-rule="evenodd" clip-rule="evenodd" d="M22.5 8C34.9058 8 45 18.0942 45 30.5C45 42.9058 34.9058 53 22.5 53C10.0942 53 0 42.9058 0 30.5C0 18.0942 10.0942 8 22.5 8ZM22.5 9.95632C11.1718 9.95632 1.95632 19.1718 1.95632 30.5C1.95632 41.8282 11.1718 51.0437 22.5 51.0437C33.8282 51.0437 43.0437 41.8282 43.0437 30.5C43.0437 19.1718 33.8282 9.95632 22.5 9.95632ZM22.5 13.8701C31.6705 13.8701 39.1299 21.3307 39.1299 30.5C39.1299 39.6705 31.6693 47.1299 22.5 47.1299C13.3295 47.1299 5.87013 39.6693 5.87013 30.5C5.87013 21.3295 13.3307 13.8701 22.5 13.8701ZM22.5 15.8264C14.4083 15.8264 7.82645 22.4083 7.82645 30.5C7.82645 38.5917 14.4083 45.1736 22.5 45.1736C30.5917 45.1736 37.1736 38.5917 37.1736 30.5C37.1736 22.4083 30.5917 15.8264 22.5 15.8264ZM22.5 17.7828C23.04 17.7828 23.4782 18.2209 23.4782 18.7609V28.1387L27.6774 23.9395C27.8638 23.7714 28.1076 23.6813 28.3585 23.6877C28.6094 23.6942 28.8483 23.7968 29.0258 23.9742C29.2032 24.1517 29.3058 24.3906 29.3123 24.6415C29.3187 24.8924 29.2286 25.1362 29.0605 25.3226L23.1904 31.1928C23.0535 31.3296 22.8791 31.4228 22.6893 31.4604C22.4995 31.4981 22.3027 31.4787 22.124 31.4045C21.9452 31.3303 21.7925 31.2048 21.6851 31.0438C21.5777 30.8828 21.5205 30.6935 21.5207 30.5V18.7609C21.5207 18.2209 21.96 17.7828 22.5 17.7828Z" fill="url(#paint0_linear_130_3113)"/>
<path d="M80.6922 32H75.6522V16.32H69.7722V12.4H86.5722V16.32H80.6922V32ZM94.4155 17.72V32H89.5155V21.5H87.4155V17.72H94.4155ZM89.5155 12.12H94.4155V16.04H89.5155V12.12ZM107.164 16.88C108.676 16.88 109.843 17.44 110.664 18.56C111.523 17.9813 112.447 17.5613 113.436 17.3C114.444 17.02 115.34 16.88 116.124 16.88H116.404C117.674 16.88 118.691 17.2627 119.456 18.028C120.222 18.7933 120.604 19.8107 120.604 21.08V32H115.704V21.92C115.704 21.64 115.611 21.4067 115.424 21.22C115.238 21.0333 115.004 20.94 114.724 20.94H114.584C113.744 20.94 112.671 21.1267 111.364 21.5V32H106.464V21.92C106.464 21.64 106.371 21.4067 106.184 21.22C105.998 21.0333 105.764 20.94 105.484 20.94H105.344C104.504 20.94 103.431 21.1267 102.124 21.5V32H97.2242V17.16H101.564L101.844 18.56C102.722 17.9813 103.618 17.5613 104.532 17.3C105.466 17.02 106.25 16.88 106.884 16.88H107.164ZM128.859 20.38C128.112 20.38 127.739 20.7533 127.739 21.5V23.04H132.499V21.5C132.499 20.7533 132.125 20.38 131.379 20.38H128.859ZM136.839 31.72C133.236 32.0933 129.969 32.28 127.039 32.28C125.769 32.28 124.752 31.8973 123.987 31.132C123.221 30.3667 122.839 29.3493 122.839 28.08V21.36C122.839 19.96 123.231 18.868 124.015 18.084C124.817 17.2813 125.919 16.88 127.319 16.88H132.919C134.319 16.88 135.411 17.2813 136.195 18.084C136.997 18.868 137.399 19.96 137.399 21.36V26.54H127.739V27.66C127.739 27.94 127.832 28.1733 128.019 28.36C128.205 28.5467 128.439 28.64 128.719 28.64C130.567 28.64 133.273 28.5 136.839 28.22V31.72ZM68.7256 39.8H75.4456C76.5656 39.8 77.3763 40.056 77.8776 40.568C78.3896 41.0693 78.6456 41.88 78.6456 43V44.6C78.6456 45.72 78.3896 46.536 77.8776 47.048C77.3763 47.5493 76.5656 47.8 75.4456 47.8H71.6056V51H68.7256V39.8ZM75.7656 43C75.7656 42.36 75.4456 42.04 74.8056 42.04H71.6056V45.56H74.8056C75.4456 45.56 75.7656 45.24 75.7656 44.6V43ZM83.205 44.36C82.7783 44.36 82.565 44.5733 82.565 45V45.88H85.285V45C85.285 44.5733 85.0717 44.36 84.645 44.36H83.205ZM87.765 50.84C85.7063 51.0533 83.8397 51.16 82.165 51.16C81.4397 51.16 80.8583 50.9413 80.421 50.504C79.9837 50.0667 79.765 49.4853 79.765 48.76V44.92C79.765 44.12 79.989 43.496 80.437 43.048C80.8957 42.5893 81.525 42.36 82.325 42.36H85.525C86.325 42.36 86.949 42.5893 87.397 43.048C87.8557 43.496 88.085 44.12 88.085 44.92V47.88H82.565V48.52C82.565 48.68 82.6183 48.8133 82.725 48.92C82.8317 49.0267 82.965 49.08 83.125 49.08C84.181 49.08 85.7277 49 87.765 48.84V50.84ZM94.3988 44.84C93.7268 44.84 93.0334 45 92.3188 45.32V51H89.5188V42.52H91.9988L92.1588 43.56C93.0761 42.76 94.0361 42.36 95.0388 42.36H95.7588V44.84H94.3988ZM111.595 51H108.715V46.44H104.715V51H101.835V39.8H104.715V44.2H108.715V39.8H111.595V51ZM122.003 48.6C122.003 49.4 121.773 50.0293 121.315 50.488C120.867 50.936 120.242 51.16 119.443 51.16H115.763C114.963 51.16 114.333 50.936 113.875 50.488C113.427 50.0293 113.203 49.4 113.203 48.6V44.92C113.203 44.12 113.427 43.496 113.875 43.048C114.333 42.5893 114.963 42.36 115.763 42.36H119.443C120.242 42.36 120.867 42.5893 121.315 43.048C121.773 43.496 122.003 44.12 122.003 44.92V48.6ZM119.203 45.16C119.203 44.7333 118.989 44.52 118.563 44.52H116.643C116.216 44.52 116.003 44.7333 116.003 45.16V48.36C116.003 48.7867 116.216 49 116.643 49H118.563C118.989 49 119.203 48.7867 119.203 48.36V45.16ZM127.361 48.84C127.926 48.84 128.566 48.7333 129.281 48.52V42.52H132.081V51H129.601L129.441 50.2C128.939 50.5307 128.422 50.776 127.889 50.936C127.366 51.0853 126.923 51.16 126.561 51.16H125.841C125.115 51.16 124.534 50.9413 124.097 50.504C123.659 50.0667 123.441 49.4853 123.441 48.76V42.52H126.241V48.28C126.241 48.44 126.294 48.5733 126.401 48.68C126.507 48.7867 126.641 48.84 126.801 48.84H127.361ZM138.555 44.84C137.883 44.84 137.19 45 136.475 45.32V51H133.675V42.52H136.155L136.315 43.56C137.232 42.76 138.192 42.36 139.195 42.36H139.915V44.84H138.555Z" fill="white"/>
<defs>
<linearGradient id="paint0_linear_130_3113" x1="0.972973" y1="21.9655" x2="47.383" y2="24.4297" gradientUnits="userSpaceOnUse">
<stop stop-color="#FF4B2A"/>
<stop offset="1" stop-color="#FF7551"/>
</linearGradient>
</defs>
</svg>
