<svg width="117" height="121" viewBox="0 0 117 121" fill="none" xmlns="http://www.w3.org/2000/svg">
<path d="M94.6188 68.4521C93.507 68.4521 92.6055 69.3536 92.6055 70.4654C92.6055 71.5772 93.507 72.4787 94.6188 72.4787C99.4228 72.485 104.028 74.3958 107.425 77.7924C110.821 81.189 112.732 85.7943 112.738 90.5983V118.784C112.738 119.896 113.64 120.798 114.752 120.798C115.863 120.798 116.765 119.896 116.765 118.784V90.5983C116.758 84.7264 114.423 79.0984 110.271 74.946C106.119 70.7945 100.49 68.4595 94.6188 68.4521Z" fill="#C8C8C8"/>
<path d="M53.453 10.2787C52.4571 10.7758 52.0536 11.9855 52.5506 12.9804C53.0476 13.9763 54.2574 14.3798 55.2523 13.8828C57.6216 12.7009 60.2333 12.0834 62.8812 12.0808H74.0109H74.01C76.6579 12.0835 79.2696 12.7009 81.6389 13.8828C82.6338 14.3799 83.8436 13.9763 84.3406 12.9804C84.8376 11.9855 84.4341 10.7757 83.4382 10.2787C80.5098 8.81999 77.2824 8.05781 74.0098 8.0542H62.881C59.6084 8.05779 56.381 8.81996 53.4526 10.2787H53.453Z" fill="#C8C8C8"/>
<path d="M83.3322 94.4621C84.0719 94.1448 84.5519 93.4168 84.5519 92.6115V85.3915L87.989 81.9544V81.9553C88.3665 81.5778 88.5786 81.0655 88.5786 80.5316V70.4652C88.5786 69.9313 88.3665 69.419 87.989 69.0415C87.6115 68.664 87.0992 68.4519 86.5653 68.4519H82.5387V65.8884C88.8519 61.3621 92.598 54.0728 92.6052 46.3057V44.0911C94.8773 43.6237 96.9193 42.3879 98.3862 40.5902C99.853 38.7936 100.656 36.5457 100.658 34.2259V32.2126C100.647 27.8481 98.3565 23.8072 94.6184 21.5539V18.1196C94.6122 13.3156 92.7013 8.71007 89.3047 5.31371C85.9081 1.91734 81.3029 0.00644253 76.4988 0C75.387 0 74.4855 0.901494 74.4855 2.01329C74.4855 3.12509 75.387 4.02658 76.4988 4.02658C80.235 4.03107 83.8178 5.51678 86.4592 8.15923C89.1016 10.8007 90.5873 14.3834 90.5919 18.1196V19.9558C76.0628 16.2295 60.8274 16.2295 46.2995 19.9558V18.1196C46.304 14.3834 47.7897 10.8007 50.4321 8.15923C53.0736 5.51688 56.6563 4.03118 60.3925 4.02658H68.4457C69.5575 4.02658 70.459 3.12509 70.459 2.01329C70.459 0.901494 69.5575 0 68.4457 0H60.3925C55.5885 0.00629159 50.983 1.91711 47.5866 5.31371C44.1902 8.7103 42.2793 13.3156 42.2729 18.1196V21.5539C38.5348 23.8072 36.2448 27.8481 36.233 32.2126V34.2259C36.2357 36.5457 37.0383 38.7937 38.5052 40.5902C39.972 42.3878 42.014 43.6237 44.2862 44.0911V46.3057C44.2934 54.0731 48.0394 61.3623 54.3526 65.8884V68.4519H42.2729C38.1412 68.4447 34.092 69.6095 30.5958 71.8098L30.0305 70.8292C32.1408 67.1802 32.734 62.8472 31.6816 58.7647C30.6291 54.6815 28.0153 51.1763 24.4031 49.001C20.7918 46.826 16.4703 46.1573 12.3692 47.1369C11.7517 47.2843 11.2394 47.7157 10.9886 48.2991C10.7369 48.8824 10.7756 49.5502 11.0929 50.1002L17.8437 61.7934C18.3992 62.7569 18.0693 63.9883 17.1067 64.5437C16.1441 65.1001 14.9128 64.7702 14.3565 63.8067L7.6056 52.1135C7.28743 51.5634 6.72748 51.1958 6.09563 51.123C5.46468 51.0493 4.83462 51.2785 4.39872 51.7414C1.50188 54.8108 -0.0763114 58.8931 0.00283969 63.112C0.0819332 67.3319 1.81211 71.352 4.82116 74.311C7.83028 77.2688 11.8803 78.9298 16.1002 78.9369H16.1164L20.5339 86.5874H20.533C20.2759 87.9087 20.1402 89.2514 20.1267 90.5979V118.784C20.1267 119.896 21.0282 120.797 22.14 120.797C23.2518 120.797 24.1533 119.896 24.1533 118.784V92.8551L28.8099 100.92C28.4557 101.671 28.1681 102.452 27.9506 103.254C26.7651 107.668 27.7951 112.383 30.7117 115.901C33.6293 119.42 38.0709 121.306 42.6288 120.959C47.1857 120.613 51.2921 118.079 53.6453 114.16C55.9975 110.241 56.3031 105.426 54.465 101.241C54.2672 100.729 53.8691 100.32 53.3621 100.108C52.8552 99.8973 52.2845 99.9018 51.7812 100.121C51.2779 100.341 50.8869 100.757 50.6972 101.272C50.5085 101.787 50.5382 102.358 50.779 102.852C52.0652 105.776 51.8881 109.138 50.3018 111.911C48.7154 114.685 45.9066 116.542 42.733 116.916C39.5602 117.289 36.3974 116.136 34.2097 113.806C32.0221 111.477 31.0694 108.248 31.641 105.105C32.2135 101.961 34.2422 99.2744 37.1102 97.8651C39.9783 96.4558 43.3443 96.4899 46.1827 97.9567C46.6591 98.2201 47.2208 98.2785 47.7412 98.1203C48.2616 97.9622 48.6957 97.5999 48.9447 97.1164C49.1945 96.6337 49.2377 96.0693 49.0642 95.5543C48.8917 95.0384 48.5169 94.615 48.027 94.3795C46.3867 93.5347 44.5982 93.0197 42.76 92.8615L32.6091 75.2973C35.4942 73.4521 38.8485 72.4734 42.2729 72.4787H55.0392L64.6204 94.8262L56.366 91.2849V84.5584C56.366 84.0246 56.1538 83.5122 55.7763 83.1348L52.3393 79.6986V78.5185C52.3393 77.4067 51.4378 76.5052 50.326 76.5052C49.2142 76.5052 48.3127 77.4067 48.3127 78.5185V80.5318C48.3127 81.0656 48.5248 81.578 48.9023 81.9555L52.3394 85.3916V92.6116C52.3394 93.4169 52.8193 94.145 53.559 94.4622L66.4324 99.9782V118.784C66.4324 119.896 67.3338 120.798 68.4456 120.798C69.5574 120.798 70.4589 119.896 70.4589 118.784V99.9782L83.3322 94.4621ZM6.99514 70.7559C5.34857 68.8505 4.33392 66.4813 4.09117 63.9744C3.8485 61.4685 4.38958 58.9484 5.63979 56.7634L10.8744 65.8232C11.9538 67.6927 13.9481 68.8459 16.1071 68.8459C18.266 68.8468 20.2613 67.6955 21.3416 65.826C22.422 63.9565 22.4229 61.6528 21.3434 59.7834L16.099 50.7353C19.9638 50.7272 23.5995 52.5688 25.8787 55.6903C28.159 58.8108 28.8071 62.8348 27.6242 66.5135C26.4405 70.1931 23.5679 73.0837 19.8964 74.2908C17.6377 75.0521 15.2037 75.1222 12.9055 74.4921C10.6073 73.8621 8.54991 72.5615 6.99496 70.7559H6.99514ZM34.5139 94.6968C33.3329 95.3772 32.2571 96.2256 31.3187 97.2151L20.3931 78.2902C20.6645 78.2138 20.9404 78.1752 21.2083 78.0889C23.52 77.2962 25.6258 75.9983 27.3731 74.2896L38.2987 93.2146C36.9721 93.5228 35.6975 94.0217 34.5139 94.6967V94.6968ZM84.5494 79.6977L81.1123 83.1348V83.1339C80.7348 83.5114 80.5227 84.0237 80.5227 84.5575V91.284L72.2682 94.8253L81.8494 72.4778H84.5493L84.5494 79.6977ZM68.4431 93.539L65.3028 86.2102C66.3319 86.4501 67.3862 86.5706 68.4431 86.5706C69.5018 86.5697 70.5579 86.4447 71.5879 86.2003L68.4431 93.539ZM92.6025 39.8957V33.0505L96.6291 33.8559V34.2262C96.6237 35.471 96.2346 36.6835 95.5137 37.6982C94.7929 38.713 93.7764 39.4805 92.6026 39.8958L92.6025 39.8957ZM40.257 34.2261V33.8639L44.2836 33.0585V39.9037C43.1089 39.4885 42.0914 38.72 41.3706 37.7035C40.6498 36.687 40.2606 35.4718 40.257 34.2261L40.257 34.2261ZM48.3102 46.3058V32.3331C56.3111 30.9175 64.4381 30.3459 72.5594 30.6281C73.0968 30.6632 73.6253 30.4744 74.0199 30.1077C74.4154 29.7401 74.641 29.2269 74.6446 28.6876C74.6635 28.1537 74.4702 27.6342 74.1062 27.2433C73.7422 26.8523 73.238 26.6222 72.7041 26.6033C63.3774 26.2672 54.0426 27.015 44.8885 28.8323L40.6606 29.6799C41.5297 26.9108 43.756 24.7797 46.5594 24.031C60.9085 20.2094 76.0063 20.2094 90.3571 24.031C93.1614 24.7796 95.3866 26.9108 96.2559 29.6799L92.028 28.8323C88.4545 28.1178 84.7136 27.5543 80.9082 27.1597H80.9091C80.3761 27.0959 79.8404 27.2514 79.4234 27.5893C79.0063 27.9264 78.743 28.4189 78.6945 28.9528C78.6378 29.4849 78.7951 30.017 79.1322 30.4322C79.4683 30.8483 79.9564 31.1126 80.4884 31.1674C83.2504 31.455 85.9503 31.8604 88.5954 32.3232V46.3058C88.5954 53.4989 84.7585 60.1453 78.529 63.7414C72.3004 67.3375 64.6255 67.3375 58.3961 63.7414C52.1675 60.1453 48.3296 53.4987 48.3296 46.3058L48.3102 46.3058ZM58.3766 68.2507C64.7598 71.2168 72.1264 71.2168 78.5095 68.2507V70.0626L73.8483 80.9344C72.2296 81.9536 70.3556 82.4938 68.4431 82.4938C66.5305 82.4938 64.6565 81.9536 63.0378 80.9344L58.3766 70.0626V68.2507Z" fill="#C8C8C8"/>
<path d="M92.6048 108.718H80.525C79.4132 108.718 78.5117 109.62 78.5117 110.732V118.785C78.5117 119.319 78.7238 119.831 79.1013 120.208C79.4788 120.586 79.9911 120.798 80.525 120.798H92.6048C93.1386 120.798 93.6509 120.586 94.0284 120.208C94.4059 119.831 94.618 119.319 94.618 118.785V110.732C94.618 110.198 94.4059 109.685 94.0284 109.308C93.6509 108.93 93.1386 108.718 92.6048 108.718ZM90.5915 116.771H82.5383V112.745H90.5915V116.771Z" fill="#C8C8C8"/>
<path d="M100.658 92.6118C99.546 92.6118 98.6445 93.5133 98.6445 94.6251V118.785C98.6445 119.896 99.546 120.798 100.658 120.798C101.77 120.798 102.671 119.896 102.671 118.785V94.6251C102.671 94.0912 102.459 93.5789 102.082 93.2014C101.704 92.8239 101.192 92.6118 100.658 92.6118Z" fill="#C8C8C8"/>
<path d="M62.4052 39.9218C63.2195 39.9218 63.9529 39.4311 64.2648 38.6788C64.5767 37.9265 64.4041 37.061 63.8289 36.4848C62.3603 35.0827 60.4091 34.3008 58.3785 34.3008C56.348 34.3008 54.3968 35.0827 52.9281 36.4848C52.1651 37.2749 52.1768 38.5305 52.9533 39.3071C53.7299 40.0838 54.9855 40.0954 55.7756 39.3323C56.4758 38.6609 57.4087 38.287 58.3784 38.287C59.348 38.287 60.2811 38.6609 60.9812 39.3323C61.3586 39.7098 61.871 39.9219 62.4048 39.9219L62.4052 39.9218Z" fill="#C8C8C8"/>
<path d="M75.9087 39.3323C76.6089 38.6609 77.5418 38.287 78.5115 38.287C79.4811 38.287 80.4142 38.6609 81.1143 39.3323C81.9043 40.0954 83.1599 40.0837 83.9365 39.3071C84.7132 38.5306 84.7248 37.275 83.9617 36.4848C82.4931 35.0827 80.5419 34.3008 78.5113 34.3008C76.4808 34.3008 74.5296 35.0827 73.061 36.4848C72.2979 37.2749 72.3096 38.5305 73.0861 39.3071C73.8627 40.0838 75.1183 40.0954 75.9084 39.3323H75.9087Z" fill="#C8C8C8"/>
<path d="M77.7066 57.312C78.5964 56.6451 78.7761 55.3832 78.1092 54.4934C77.4423 53.6036 76.1804 53.4238 75.2906 54.0907C73.3115 55.5612 70.9109 56.3557 68.4454 56.3557C65.98 56.3557 63.5795 55.5612 61.6003 54.0907C60.7105 53.4238 59.4486 53.6036 58.7817 54.4934C58.1148 55.3832 58.2945 56.6451 59.1843 57.312C61.86 59.3055 65.1082 60.3823 68.4454 60.3823C71.7827 60.3823 75.0309 59.3056 77.7066 57.312Z" fill="#C8C8C8"/>
<path d="M62.4303 48.6412C62.5337 49.2811 62.9381 49.8321 63.5179 50.1215L67.5444 52.1348C68.5394 52.6318 69.7492 52.2283 70.2462 51.2324C70.7432 50.2374 70.3396 49.0277 69.3438 48.5307L67.8158 47.7676L69.8678 45.7157V45.7166C70.6309 44.9265 70.6192 43.6709 69.8426 42.8943C69.0661 42.1176 67.8105 42.106 67.0203 42.8691L62.9937 46.8957C62.5363 47.3532 62.3269 48.003 62.4302 48.6411L62.4303 48.6412Z" fill="#C8C8C8"/>
<path d="M38.542 101.673C37.1552 102.474 36.144 103.794 35.7296 105.341C35.3144 106.887 35.5319 108.536 36.3327 109.923C37.1326 111.309 38.4511 112.323 39.998 112.737C41.5449 113.152 43.1933 112.935 44.581 112.135C45.9678 111.335 46.9808 110.017 47.3959 108.471C47.812 106.924 47.5963 105.276 46.7964 103.888C45.9965 102.499 44.6771 101.486 43.1285 101.069C41.5799 100.654 39.9307 100.872 38.5419 101.673L38.542 101.673ZM42.5686 108.647C41.8639 109.054 40.9822 108.997 40.3369 108.502C39.6906 108.006 39.4066 107.17 39.6178 106.383C39.8282 105.597 40.4924 105.014 41.2995 104.908C42.1066 104.801 42.8984 105.192 43.3056 105.898C43.862 106.86 43.5321 108.092 42.5686 108.647L42.5686 108.647Z" fill="#C8C8C8"/>
<path d="M2.15191 26.7121L6.17849 33.686V33.6869C6.73485 34.6495 7.96618 34.9793 8.92876 34.4239L10.1125 33.739C10.7344 34.1686 11.3905 34.5461 12.0736 34.8688V36.2394C12.0736 36.7733 12.2857 37.2856 12.6632 37.6631C13.0407 38.0406 13.553 38.2527 14.0869 38.2527H22.1401C22.6739 38.2527 23.1863 38.0406 23.5637 37.6631C23.9412 37.2856 24.1534 36.7733 24.1534 36.2394V34.8688C24.8364 34.5461 25.4925 34.1686 26.1145 33.739L27.2982 34.4239C28.2608 34.9793 29.4922 34.6495 30.0485 33.6869L34.0751 26.713V26.7121C34.6305 25.7495 34.3007 24.5182 33.3381 23.9619L32.1579 23.2797C32.1903 22.8995 32.2065 22.5229 32.2065 22.1463C32.2065 21.7697 32.1903 21.3932 32.1579 21.013L33.3381 20.3308C33.8045 20.0656 34.1452 19.6252 34.2854 19.1075C34.4265 18.5898 34.3546 18.038 34.0868 17.5733C33.818 17.1095 33.3758 16.7707 32.8572 16.6341C32.3386 16.4965 31.7876 16.572 31.3247 16.8435L28.9852 18.2006C28.2473 18.6258 27.8572 19.4697 28.0109 20.3083C28.2473 21.5226 28.2473 22.77 28.0109 23.9845C27.8572 24.823 28.2473 25.667 28.9852 26.0921L29.5892 26.4427L27.5759 29.9299L26.9719 29.5794C26.2331 29.1525 25.3055 29.2378 24.6567 29.7933C23.7184 30.5941 22.6407 31.2152 21.4778 31.625C20.6734 31.9091 20.135 32.6703 20.135 33.5233V34.2261H16.1004V33.5233C16.1004 32.6703 15.562 31.9091 14.7576 31.625C13.5946 31.2152 12.516 30.5941 11.5787 29.7933C10.9297 29.2378 10.0022 29.1525 9.2635 29.5794L8.65951 29.9299L6.64622 26.4427L7.25021 26.0921C7.98811 25.667 8.37818 24.8231 8.2245 23.9845C7.98813 22.7702 7.98813 21.5227 8.2245 20.3083C8.3773 19.468 7.98362 18.624 7.24213 18.2006L6.63815 17.8501L8.65144 14.3629L9.25542 14.7134C9.99694 15.143 10.9299 15.0558 11.5789 14.4959C12.5163 13.6951 13.5949 13.074 14.7578 12.6642C15.5613 12.3801 16.0988 11.6216 16.1006 10.7695V10.0666H20.1272V10.7695C20.1272 11.6224 20.6655 12.3837 21.47 12.6677C22.633 13.0776 23.7115 13.6987 24.6489 14.4995C25.2978 15.0549 26.2254 15.1403 26.964 14.7134L29.3117 13.3562C30.2662 12.7963 30.5906 11.5712 30.037 10.6131C29.4833 9.65407 28.2601 9.32242 27.2984 9.86888L26.1147 10.5538C25.4928 10.1241 24.8367 9.74666 24.1536 9.42398V8.05333C24.1536 7.51945 23.9415 7.00713 23.564 6.62965C23.1865 6.25216 22.6742 6.04004 22.1403 6.04004H14.0871C12.9753 6.04004 12.0738 6.94153 12.0738 8.05333V9.42398C11.3908 9.74663 10.7347 10.1241 10.1127 10.5538L8.929 9.86529C7.96639 9.30893 6.73504 9.63969 6.17873 10.6023L2.15215 17.5761C1.8825 18.039 1.80881 18.5908 1.94722 19.1085C2.08564 19.6263 2.42448 20.0676 2.88917 20.3345L4.06928 21.0167C4.03692 21.3933 4.02074 21.7698 4.02074 22.1465C4.02074 22.5231 4.03692 22.8996 4.06928 23.2798L2.88917 23.962C1.92656 24.5184 1.5967 25.7497 2.15216 26.7123L2.15191 26.7121Z" fill="#C8C8C8"/>
<path d="M12.0742 22.1472C12.0742 23.7488 12.7106 25.2858 13.843 26.4181C14.9755 27.5504 16.5125 28.1869 18.114 28.1869C19.7154 28.1869 21.2526 27.5506 22.3849 26.4181C23.5172 25.2856 24.1537 23.7486 24.1537 22.1472C24.1537 20.5457 23.5174 19.0085 22.3849 17.8762C21.2524 16.744 19.7154 16.1074 18.114 16.1074C16.5125 16.1074 14.9753 16.7438 13.843 17.8762C12.7108 19.0087 12.0742 20.5457 12.0742 22.1472ZM20.1274 22.1472C20.1274 22.9615 19.6366 23.6958 18.8844 24.0068C18.1321 24.3187 17.2666 24.147 16.6904 23.5709C16.1143 22.9947 15.9426 22.1292 16.2545 21.3769C16.5655 20.6246 17.2998 20.1339 18.1141 20.1339C18.648 20.1339 19.1603 20.346 19.5378 20.7235C19.9153 21.101 20.1274 21.6133 20.1274 22.1472Z" fill="#C8C8C8"/>
</svg>
