<svg width="121" height="121" viewBox="0 0 121 121" fill="none" xmlns="http://www.w3.org/2000/svg">
<path d="M108.879 65.079L98.9081 63.6674L92.7657 61.1601V56.4176C97.2678 53.0516 100.145 47.9461 100.693 42.3519H100.832C103.451 42.3609 105.91 41.0943 107.424 38.9579C108.937 36.8206 109.316 34.0812 108.439 31.6136C107.563 29.146 105.539 27.2598 103.016 26.5576C103.428 25.0154 103.369 23.3859 102.849 21.877V14.1195C102.849 10.3754 101.362 6.78514 98.714 4.13823C96.0674 1.49062 92.4771 0.00342065 88.7328 0.00342065H72.6001C68.8559 0.00342065 65.2657 1.49065 62.6188 4.13823C59.9712 6.78491 58.484 10.3751 58.484 14.1195V21.877C57.9636 23.3859 57.9051 25.0153 58.3165 26.5576C55.8021 27.2679 53.7883 29.154 52.9158 31.617C52.0432 34.08 52.4215 36.8134 53.9295 38.9479C55.4374 41.0825 57.887 42.351 60.5005 42.3519H60.6401C61.1874 47.947 64.0646 53.0525 68.567 56.4194V61.2592L62.3156 64.258L51.4799 66.551C48.582 67.2001 45.9605 68.7422 43.9835 70.9587C42.0075 73.176 40.775 75.957 40.4618 78.9107C39.1861 77.7503 37.7916 76.7285 36.3016 75.8616V45.1427C41.1036 42.3799 44.8091 38.0496 46.7959 32.8775C48.7819 27.7063 48.9286 22.0087 47.211 16.7411C46.994 16.0767 46.4484 15.5717 45.7687 15.4078C45.089 15.2431 44.3724 15.4429 43.8755 15.9345L30.8587 28.8406C29.7217 29.9236 27.9346 29.9236 26.7977 28.8406L19.564 21.6051C19.032 21.0749 18.7295 20.3565 18.7232 19.6047C18.7205 18.8395 19.0175 18.104 19.5496 17.5558L32.4756 4.52908H32.4765C32.9689 4.03214 33.1688 3.31463 33.0049 2.63491C32.8402 1.95432 32.3351 1.40786 31.6698 1.1909C28.3011 0.0916895 24.7323 -0.252213 21.2161 0.182609C15.6434 0.934322 10.4985 3.57831 6.64436 7.67186C2.78934 11.7663 0.459549 17.0606 0.0454005 22.6674C-0.230077 27.1643 0.752105 31.6485 2.88222 35.6176C5.01134 39.5869 8.20462 42.8854 12.1027 45.1423V75.8589C7.30073 78.6218 3.59528 82.952 1.60843 88.1242C-0.377551 93.2954 -0.52429 98.993 1.1934 104.261C1.41037 104.925 1.95593 105.43 2.63562 105.594C3.31531 105.759 4.03193 105.559 4.52886 105.067L17.5475 92.161C18.6845 91.0771 20.4723 91.0771 21.6085 92.161L28.8484 99.4027C29.3805 99.933 29.683 100.651 29.6893 101.403C29.692 102.167 29.3949 102.903 28.8628 103.452L15.9341 116.473C15.4416 116.969 15.2409 117.687 15.4056 118.367C15.5704 119.047 16.0754 119.594 16.7407 119.811C19.1553 120.6 21.6796 121.002 24.2201 121C25.214 121 26.206 120.941 27.1926 120.821C32.3673 120.155 37.1873 117.828 40.928 114.19C41.605 116.171 42.8834 117.89 44.5839 119.111C46.2854 120.331 48.3244 120.991 50.4175 120.998H56.4672C56.6068 120.998 56.7463 120.984 56.8822 120.956L78.6496 116.36V120.998H82.6828V116.372L104.45 120.956C104.586 120.984 104.726 120.998 104.865 120.998H110.915C113.588 120.995 116.151 119.932 118.041 118.042C119.931 116.151 120.994 113.588 120.998 110.916V79.0535C120.978 75.6612 119.745 72.3879 117.522 69.8249C115.299 67.2618 112.234 65.5783 108.879 65.0786L108.879 65.079ZM80.6671 86.7636L77.7627 78.6505H83.5703L80.6671 86.7636ZM72.6007 58.7711C77.7305 61.0785 83.6037 61.0785 88.7334 58.7711V62.1993L84.8632 74.6175H76.471L72.6007 62.2073V58.7711ZM88.2536 77.2976L92.0229 65.2124L96.2577 66.9346L95.0478 81.3812L88.2651 77.5011L88.3299 77.3237L88.2536 77.2976ZM88.9531 27.5721C83.4668 26.6547 77.8672 26.6547 72.3812 27.5721L66.8472 28.494C65.6165 28.6974 64.3588 28.3301 63.4317 27.4956C62.5044 26.6601 62.0075 25.4484 62.0822 24.2024H99.2519C99.3266 25.4484 98.8296 26.6601 97.9024 27.4956C96.9751 28.3301 95.7174 28.6974 94.4868 28.494L88.9531 27.5721ZM86.7169 20.1693H74.6173V16.1361H86.7169V20.1693ZM104.866 34.2854C104.866 35.3549 104.441 36.3812 103.685 37.1374C102.929 37.8936 101.902 38.3185 100.833 38.3185V30.2522C101.902 30.2522 102.929 30.6771 103.685 31.4333C104.441 32.1895 104.866 33.2159 104.866 34.2854ZM62.5178 14.1195C62.5178 11.4456 63.5802 8.881 65.4706 6.98933C67.362 5.09879 69.9269 4.03659 72.6008 4.03659H88.7334C91.4073 4.03659 93.972 5.0989 95.8636 6.98933C97.7542 8.88077 98.8164 11.4456 98.8164 14.1195V20.1693H90.75V14.1195C90.75 13.5848 90.5376 13.0716 90.1595 12.6935C89.7813 12.3154 89.2682 12.1029 88.7334 12.1029H72.6008C71.4872 12.1029 70.5842 13.0059 70.5842 14.1195V20.1693H62.5178V14.1195ZM57.652 37.1346C56.8949 36.3802 56.4691 35.3557 56.4691 34.2863C56.4682 33.2177 56.8931 32.1932 57.6502 31.438C58.4064 30.6826 59.4327 30.2595 60.5013 30.2622V38.3186C59.4327 38.3141 58.4091 37.8892 57.652 37.1348L57.652 37.1346ZM64.5344 40.3351V32.4165C65.5148 32.6164 66.524 32.6362 67.5107 32.4723L68.7548 32.2707C68.6342 32.5939 68.5712 32.9351 68.5676 33.279C68.5613 34.2584 69.0294 35.1803 69.8243 35.7528C70.6184 36.3245 71.6411 36.4775 72.5683 36.1615C73.4946 35.8455 74.2113 35.1001 74.4912 34.162C74.7712 33.223 74.5786 32.2075 73.9763 31.4361C78.4128 30.7888 82.9212 30.7888 87.3577 31.4361C86.7554 32.2076 86.5627 33.224 86.8427 34.162C87.1227 35.101 87.8393 35.8464 88.7666 36.1615C89.6938 36.4775 90.7165 36.3245 91.5114 35.7519C92.3055 35.1784 92.7736 34.2566 92.7664 33.2771C92.7628 32.9323 92.6998 32.5911 92.5791 32.2689L93.8233 32.4705C94.2779 32.5461 94.7389 32.5848 95.2007 32.5857C95.7381 32.5803 96.2738 32.5209 96.7996 32.4102V40.3353C96.8041 43.3034 95.9857 46.2149 94.4373 48.7464C92.8879 51.2787 90.668 53.3315 88.0238 54.6791C83.3965 57.0243 77.9292 57.0243 73.3028 54.6791C70.6586 53.3305 68.4404 51.2769 66.893 48.7455C65.3455 46.2131 64.5289 43.3025 64.5344 40.3353V40.3351ZM69.3544 65.3408L73.0769 77.2827L73.0004 77.3088L73.067 77.496L66.2809 81.3743L65.1151 67.3753L69.3544 65.3408ZM52.3305 70.4947L61.1728 68.6114L62.5178 84.8673C62.5754 85.5533 62.9788 86.1628 63.5882 86.4833C64.1977 86.8038 64.9287 86.7912 65.5265 86.45L74.4382 81.3581L78.6504 93.119V97.7247L67.0388 96.8316L58.4846 93.1693V84.6996H54.4514V91.4371L53.2298 90.9131V90.9122C52.9786 90.8042 52.7085 90.7484 52.4348 90.7493H44.3685V80.364C44.3811 78.0611 45.176 75.8302 46.6218 74.0379C48.0685 72.2455 50.0816 70.9978 52.3305 70.4991L52.3305 70.4947ZM26.7049 116.819C24.9197 117.036 23.1128 117.018 21.3323 116.761L31.7321 106.275C33.0123 104.976 33.727 103.224 33.7208 101.4C33.7145 99.5768 32.987 97.8304 31.6979 96.5402L24.458 89.3003C23.149 88.0481 21.408 87.3477 19.5956 87.3432C17.7834 87.3387 16.0395 88.0319 14.7242 89.2787L4.23798 99.6705C4.10114 98.7198 4.03362 97.761 4.03632 96.8005C4.02912 93.0842 5.05362 89.4382 6.99644 86.2693C8.9383 83.1013 11.7219 80.5337 15.0367 78.8529C15.711 78.5081 16.1359 77.8149 16.1359 77.0577V43.9466C16.1359 43.1894 15.7119 42.4962 15.0385 42.1514C9.30659 39.2446 5.30499 33.7772 4.26697 27.434C3.22897 21.0916 5.27796 14.6341 9.78458 10.0509C14.2904 5.46756 20.7119 3.30878 27.0724 4.23963L16.6725 14.7259C15.3924 16.0249 14.6776 17.7768 14.6839 19.5998C14.6902 21.4237 15.4176 23.1702 16.7067 24.4594L23.9466 31.6993C25.2556 32.9552 26.9975 33.6583 28.8116 33.6628C30.6256 33.6673 32.372 32.9741 33.6882 31.7254L44.1664 21.3337C44.3032 22.2843 44.3708 23.2431 44.3681 24.2037C44.3753 27.9199 43.3508 31.5659 41.408 34.7348C39.4661 37.9028 36.6825 40.4705 33.3677 42.1513C32.6934 42.4961 32.2684 43.1893 32.2684 43.9464V77.0576C32.2684 77.8147 32.6925 78.5079 33.3659 78.8527C36.1073 80.2742 38.4901 82.2998 40.3347 84.7773V108.774C37.0741 113.196 32.1522 116.101 26.7047 116.817L26.7049 116.819ZM56.2669 116.966H50.4188C48.8145 116.966 47.275 116.329 46.1409 115.194C45.0067 114.06 44.3692 112.521 44.3692 110.917V108.9H51.601L55.0437 112.343H55.0428C55.4209 112.721 55.9341 112.933 56.4688 112.933H66.3501L70.8711 113.885L56.2669 116.966ZM116.967 106.883V110.916C116.967 112.521 116.33 114.06 115.196 115.194C114.061 116.328 112.522 116.966 110.918 116.966H105.07L66.9549 108.942C66.8226 108.915 66.6875 108.901 66.5516 108.9H57.3032L53.8605 105.457H53.8614C53.4833 105.079 52.9701 104.867 52.4354 104.867H44.369V94.7836H52.032L65.7674 100.67C65.97 100.757 66.186 100.81 66.4066 100.827L116.966 104.717L116.967 106.883ZM116.967 100.672L98.8297 99.277L109.316 94.7838H116.967V100.672ZM116.967 90.7506H108.901C108.624 90.7488 108.349 90.8055 108.094 90.9162L106.884 91.4384V84.7009H102.851V90.7507H86.7185V94.7838H99.0763L94.2969 96.8328L82.6853 97.734V93.1138L86.8876 81.3591L95.8012 86.451C96.3999 86.7967 97.1336 86.8111 97.7448 86.4897C98.357 86.1684 98.7621 85.5571 98.8179 84.8684L100.23 67.929L108.314 69.0805C110.709 69.4388 112.896 70.6406 114.483 72.47C116.069 74.2984 116.95 76.6336 116.967 79.0544L116.967 90.7506ZM74.619 92.7672H70.5858V88.734H74.619V92.7672ZM78.8879 46.3857H74.619V42.3525H78.8879C81.3419 42.357 83.7835 41.9987 86.1333 41.2902L87.3028 45.1496H87.3037C84.574 45.9734 81.7383 46.3902 78.8879 46.3857L78.8879 46.3857ZM22.1884 42.3525H26.2216V78.6511H22.1884V42.3525Z" fill="#C8C8C8"/>
</svg>
